<svg xmlns="http://www.w3.org/2000/svg" xmlns:xlink="http://www.w3.org/1999/xlink" width="93" height="93" viewBox="0 0 93 93">
    <defs>
        <filter id="a" width="132.1%" height="131.4%" x="-16.1%" y="-15.7%" filterUnits="objectBoundingBox">
            <feOffset dx="2" dy="2" in="SourceAlpha" result="shadowOffsetOuter1"/>
            <feGaussianBlur in="shadowOffsetOuter1" result="shadowBlurOuter1" stdDeviation="2.5"/>
            <feColorMatrix in="shadowBlurOuter1" result="shadowMatrixOuter1" values="0 0 0 0 0 0 0 0 0 0 0 0 0 0 0 0 0 0 0.2 0"/>
            <feMerge>
                <feMergeNode in="shadowMatrixOuter1"/>
                <feMergeNode in="SourceGraphic"/>
            </feMerge>
        </filter>
        <path id="b" d="M0 .326h83.153V84.51H0z"/>
        <path id="d" d="M0 84.674h83.153V.49H0z"/>
    </defs>
    <g fill="none" fill-rule="evenodd" filter="url(#a)" transform="translate(3 2)">
        <g transform="translate(0 .165)">
            <mask id="c" fill="#fff">
                <use xlink:href="#b"/>
            </mask>
            <path fill="#231916" d="M53.336 1.027c-3.876 2.691-7.613 3.944-11.759 3.944s-7.883-1.253-11.76-3.944l-1.01-.7-1.024.678c-4.38 2.9-7.94 3.432-13.372 3.432-1.873 0-3.885-.354-5.822-1.022L7.3 2.969l-.784 1.116c-.418.594-.728.97-1.028 1.335-.37.45-.718.874-1.127 1.533l-.657 1.054L4.45 9c3.32 4.411 4.572 8.95 4.572 13.221 0 7.966-4.356 15.005-7.786 18.565L0 42.068l1.261 1.259c.676.675 1.88 1.925 2.877 2.972l-.04.55-.009.099a42.895 42.895 0 0 0-.062 2.286c0 8.09 2.391 14.816 7.123 20.018 5.48 6.023 14.046 9.619 24.17 10.179a74.964 74.964 0 0 0 5.184 4.275l1.082.803 1.081-.805c.114-.085 2.654-1.985 5.166-4.273 10.124-.56 18.69-4.156 24.17-10.18 4.732-5.2 7.123-11.927 7.123-20.017 0-.75-.02-1.512-.062-2.286l-.001-.018-.009-.1-.038-.53a196.42 196.42 0 0 1 2.877-2.973l1.26-1.259-1.236-1.282c-3.43-3.56-7.785-10.6-7.785-18.566 0-4.271 1.252-8.81 4.57-13.22l.747-.992-.655-1.054c-.41-.66-.759-1.085-1.128-1.534-.3-.364-.61-.74-1.027-1.334l-.784-1.117-1.29.446c-1.937.668-3.95 1.022-5.822 1.022-5.432 0-8.992-.531-13.372-3.432L54.346.326l-1.01.701z" mask="url(#c)"/>
        </g>
        <path fill="#E4BE00" d="M41.584 82.415s-2.894-2.146-5.509-4.589C18.971 77.117 4.818 67.525 5.9 47.21c.064-.536.01-.5.103-1.414a220.757 220.757 0 0 0-3.46-3.586C8.676 35.843 15.835 21.28 5.898 8.075c.653-1.05 1.126-1.399 2.099-2.782 1.986.686 4.195 1.121 6.413 1.121 5.698 0 9.59-.565 14.373-3.732 3.782 2.625 7.883 4.267 12.793 4.267 4.91 0 9.012-1.642 12.793-4.267 4.783 3.167 8.674 3.732 14.373 3.732 2.218 0 4.428-.435 6.414-1.121.972 1.383 1.445 1.732 2.097 2.782-9.936 13.205-2.777 27.768 3.358 34.134-.857.855-2.48 2.548-3.46 3.586.092.914.039.878.102 1.414 1.081 20.316-13.072 29.908-30.175 30.617-2.615 2.443-5.495 4.59-5.495 4.59"/>
        <path fill="#231916" d="M9.144 45.997h-.242l-.103.874-.074.563c-.399 7.826 1.552 14.148 5.798 18.806 4.87 5.342 12.761 8.386 22.82 8.802l.168.002c3.017.016 5.868.032 8.293-.001 10.065-.417 17.955-3.461 22.826-8.803 4.246-4.658 6.198-10.98 5.8-18.792l-.077-.58-.101-.86-.242-.01H9.144z"/>
        <path fill="#00489A" d="M9.385 46.54l-.05.415-.068.521c-.034.652-.05 1.295-.05 1.925 0 6.779 1.916 12.313 5.708 16.473a21.277 21.277 0 0 0 3.037 2.736V46.54H9.385zM73.887 47.49l-.07-.537-.049-.413h-8.577v22.07a21.168 21.168 0 0 0 3.037-2.736c3.793-4.16 5.71-9.696 5.71-16.466 0-.628-.017-1.268-.05-1.917"/>
        <path fill="#A81C4B" d="M27.408 46.54h-9.446v22.07c2.614 1.942 5.788 3.426 9.446 4.425V46.54zM55.745 46.54v26.494c3.66-.999 6.833-2.483 9.446-4.424V46.54h-9.446z"/>
        <path fill="#00489A" d="M32.522 60.134a9.049 9.049 0 0 1 4.332-7.726V46.54h-9.446v26.495c2.864.782 6.024 1.266 9.446 1.44V67.86a9.05 9.05 0 0 1-4.332-7.726M46.3 46.54v5.868a9.05 9.05 0 0 1 4.33 7.726 9.05 9.05 0 0 1-4.33 7.726v6.615c3.422-.174 6.582-.659 9.445-1.44V46.54H46.3z"/>
        <path fill="#A81C4B" d="M46.3 52.408v-5.867h-9.446v5.867a9.01 9.01 0 0 1 4.722-1.328 9.01 9.01 0 0 1 4.724 1.328M36.854 67.86v6.615c.166.008.333.018.501.024l.159.001c3.015.017 5.862.032 8.275 0 .171-.007.34-.017.51-.026V67.86a9.016 9.016 0 0 1-4.722 1.328 9.012 9.012 0 0 1-4.723-1.328"/>
        <path fill="#E4BE00" d="M36.956 61.777c-1.638-1.493-1.643-4.525-1.203-6.539.122-.56.276-1.11.435-1.737a8.53 8.53 0 0 0-3.157 6.633c0 1.133.22 2.213.62 3.203a3.4 3.4 0 0 0 .445.03c1.265 0 2.298-.585 2.86-1.59M45.754 62.43c-.281 1.433-1.812 2.506-3.256 3.367-1.487.887-3.885 1.345-5.69 1.429a8.508 8.508 0 0 0 4.769 1.453 8.542 8.542 0 0 0 7.484-4.418c-.256-2.108-2.26-2.356-3.307-1.83"/>
        <path fill="#E4BE00" d="M36.145 66.73c1.783.014 4.523-.434 6.093-1.37 2.03-1.212 3.607-2.504 2.858-4.295-.38-.906-1.638-1.953-3.27-.798-.104 1.337-1.755 2.517-2.94 2.365a3.564 3.564 0 0 1-1.524-.54c-.666 1.137-1.86 1.783-3.266 1.783-.07 0-.138-.001-.207-.005a8.56 8.56 0 0 0 2.256 2.86M41.554 54.808c1.414-.585 3.373.176 4.866 1.01 1.409.786 2.88 2.256 3.687 3.799a8.546 8.546 0 0 0-8.457-8.028c-1.348.885-1.164 2.554-.096 3.22"/>
        <path fill="#E4BE00" d="M41.316 60.26c-1.75-1.276-1.643-3.284-.89-4.477.184-.292.4-.522.639-.698a2.37 2.37 0 0 1-.235-3.465 8.5 8.5 0 0 0-4.004 1.409c-.373 1.605-.848 3.07-.824 4.747.032 2.259.967 4.098 2.948 4.352.924.118 2.258-.865 2.366-1.867"/>
        <path fill="#E4BE00" d="M50.086 60.92c-.487-1.769-2.24-3.723-3.915-4.658-2.064-1.153-4.322-1.78-5.315-.207-.637 1.01-.726 2.679.72 3.766 1.965-1.358 3.535-.038 3.989 1.047.145.348.219.678.232.993 1.159-.407 3.045-.145 3.625 1.666a8.49 8.49 0 0 0 .664-2.607"/>
        <path fill="#231916" d="M33.786 36.145h-5.973v8.4h1.82v-3.466h2.479v-1.773h-2.479V37.93h4.241v-1.785zM37.26 40.345c0 2.63 1.446 4.329 3.683 4.329 1.458 0 2.508-.641 3.121-1.906l.035-.072-1.53-.908-.045.075c-.437.73-.852 1.003-1.534 1.003-1.114 0-1.863-1.014-1.863-2.52 0-1.555.71-2.521 1.851-2.521.663 0 1.13.277 1.426.846l.038.073 1.685-.777-.039-.08c-.592-1.224-1.659-1.871-3.087-1.871-2.202 0-3.74 1.78-3.74 4.33M52.386 42.807h-2.097v-1.951h2.097c.742 0 1.087.308 1.087.97 0 .642-.376.98-1.087.98zm-2.097-4.97h2.003c.817 0 .923.374.923.699 0 .463-.276.688-.84.688h-2.086v-1.387zm3.962 2.158c.509-.36.807-.926.807-1.589 0-1.415-1.008-2.26-2.695-2.26h-3.859v8.398h3.823c1.886 0 3.013-1.025 3.013-2.743 0-.804-.402-1.448-1.089-1.806zM54.276 6.12c-4.07 2.462-8.224 3.66-12.7 3.663-4.476-.004-8.63-1.201-12.699-3.663l-.136-.083-.138.079c-4.635 2.62-8.714 3.132-14.193 3.132-1.316 0-2.675-.132-4.037-.394l-.587-.112.302.517c5.628 9.63 3.63 18.943.963 25.059l-.167.38H72.27l-.166-.38c-2.667-6.116-4.666-15.428.962-25.06l.302-.516-.587.112a21.502 21.502 0 0 1-4.038.394c-5.478 0-9.556-.513-14.192-3.132l-.138-.079-.136.083z"/>
        <path fill="#FEFEFE" d="M22.75 9.016c-2.571.61-5.236.775-8.34.775-1.174 0-2.38-.121-3.593-.324 1.439 2.571 2.354 5.116 2.872 7.582h9.06V9.016zM41.305 17.05V10.32a23.864 23.864 0 0 1-9.342-1.998v8.726h9.342zM13.946 26.264c-.428 2.949-1.281 5.622-2.24 7.89H22.75v-7.89h-8.804z"/>
        <mask id="e" fill="#fff">
            <use xlink:href="#d"/>
        </mask>
        <path fill="#FEFEFE" d="M31.963 34.155h9.342v-7.891h-9.342z" mask="url(#e)"/>
        <path fill="#DE3232" d="M31.963 17.05V8.322A27.875 27.875 0 0 1 28.73 6.66c-2.045 1.14-3.985 1.882-5.98 2.355v8.033h-9.06c.378 1.804.547 3.567.547 5.266 0 1.36-.106 2.68-.29 3.949h8.803v7.89h9.213v-7.89h9.342v-9.215h-9.342z" mask="url(#e)"/>
        <path fill="#FFE300" d="M54.422 6.66c-.004.004-.009.006-.013.009v27.486h3.239V8.168a24.298 24.298 0 0 1-3.226-1.507M47.93 9.472v24.682h3.24V8.331a24.549 24.549 0 0 1-3.24 1.141M41.848 10.321v23.834h2.844V10.12c-.935.12-1.882.19-2.844.2M60.887 9.121v25.033h3.239V9.608a27.417 27.417 0 0 1-3.239-.487M68.916 22.315c0-4.022.93-8.396 3.42-12.848a21.917 21.917 0 0 1-3.594.324c-.47 0-.926-.006-1.377-.014v24.378h4.082c-1.371-3.245-2.531-7.316-2.531-11.84" mask="url(#e)"/>
        <path fill="#DE3232" d="M64.126 9.608v24.547h3.239V9.777a44.433 44.433 0 0 1-3.239-.169M44.692 10.121v24.034h3.239V9.472a23.606 23.606 0 0 1-3.24.65M51.17 8.331v25.824h3.239V6.668a27.842 27.842 0 0 1-3.24 1.663M57.648 8.168v25.987h3.24V9.12a22.234 22.234 0 0 1-3.24-.953" mask="url(#e)"/>
    </g>
</svg>
