<svg xmlns="http://www.w3.org/2000/svg" xmlns:xlink="http://www.w3.org/1999/xlink" width="115" height="77" viewBox="0 0 115 77">
    <defs>
        <filter id="a" width="125.2%" height="139.7%" x="-12.6%" y="-19.9%" filterUnits="objectBoundingBox">
            <feOffset dx="2" dy="2" in="SourceAlpha" result="shadowOffsetOuter1"/>
            <feGaussianBlur in="shadowOffsetOuter1" result="shadowBlurOuter1" stdDeviation="2.5"/>
            <feColorMatrix in="shadowBlurOuter1" result="shadowMatrixOuter1" values="0 0 0 0 0 0 0 0 0 0 0 0 0 0 0 0 0 0 0.2 0"/>
            <feMerge>
                <feMergeNode in="shadowMatrixOuter1"/>
                <feMergeNode in="SourceGraphic"/>
            </feMerge>
        </filter>
        <path id="b" d="M.126.099h41.867V26.83H.126z"/>
        <path id="d" d="M.207 32.612c0 17.946 14.331 32.494 32.006 32.494 17.68 0 32.012-14.547 32.012-32.494C64.225 14.667 49.893.118 32.213.118 14.538.118.207 14.668.207 32.612"/>
        <path id="f" d="M.207 32.612c0 17.946 14.331 32.494 32.006 32.494 17.68 0 32.012-14.547 32.012-32.494C64.225 14.667 49.893.118 32.213.118 14.538.118.207 14.668.207 32.612z"/>
        <path id="h" d="M.207 32.612c0 17.946 14.331 32.494 32.006 32.494 17.68 0 32.012-14.547 32.012-32.494C64.225 14.667 49.893.118 32.213.118 14.538.118.207 14.668.207 32.612"/>
        <path id="j" d="M.207 32.612c0 17.946 14.331 32.494 32.006 32.494 17.68 0 32.012-14.547 32.012-32.494C64.225 14.667 49.893.118 32.213.118 14.538.118.207 14.668.207 32.612"/>
        <path id="l" d="M.207 32.612c0 17.946 14.331 32.494 32.006 32.494 17.68 0 32.012-14.547 32.012-32.494C64.225 14.667 49.893.118 32.213.118 14.538.118.207 14.668.207 32.612"/>
        <path id="n" d="M.207 32.612c0 17.946 14.331 32.494 32.006 32.494 17.68 0 32.012-14.547 32.012-32.494C64.225 14.667 49.893.118 32.213.118 14.538.118.207 14.668.207 32.612"/>
        <path id="p" d="M.207 32.612c0 17.946 14.331 32.494 32.006 32.494 17.68 0 32.012-14.547 32.012-32.494C64.225 14.667 49.893.118 32.213.118 14.538.118.207 14.668.207 32.612z"/>
        <path id="r" d="M.207 32.612c0 17.946 14.331 32.494 32.006 32.494 17.68 0 32.012-14.547 32.012-32.494C64.225 14.667 49.893.118 32.213.118 14.538.118.207 14.668.207 32.612"/>
        <path id="t" d="M.207 32.612c0 17.946 14.331 32.494 32.006 32.494 17.68 0 32.012-14.547 32.012-32.494C64.225 14.667 49.893.118 32.213.118 14.538.118.207 14.668.207 32.612"/>
        <path id="v" d="M.207 32.612c0 17.946 14.331 32.494 32.006 32.494 17.68 0 32.012-14.547 32.012-32.494C64.225 14.667 49.893.118 32.213.118 14.538.118.207 14.668.207 32.612"/>
        <path id="x" d="M.207 32.612c0 17.946 14.331 32.494 32.006 32.494 17.68 0 32.012-14.547 32.012-32.494C64.225 14.667 49.893.118 32.213.118 14.538.118.207 14.668.207 32.612"/>
        <path id="z" d="M.207 32.612c0 17.946 14.331 32.494 32.006 32.494 17.68 0 32.012-14.547 32.012-32.494C64.225 14.667 49.893.118 32.213.118 14.538.118.207 14.668.207 32.612z"/>
        <path id="B" d="M.09.054h55.873v22.788H.091z"/>
    </defs>
    <g fill="none" fill-rule="evenodd" filter="url(#a)" transform="translate(2 3)">
        <path fill="#FFB900" d="M50.37 66.043c17.68 0 32.01-14.547 32.01-32.493 0-17.945-14.33-32.494-32.01-32.494-17.676 0-32.007 14.549-32.007 32.494s14.331 32.493 32.006 32.493"/>
        <path fill="#562385" d="M53.904 33.386l-1.398-.008a.175.175 0 0 0-.176.175c0 .097.08.176.176.176l1.417-.013c.48 0 .919.061.797.274L51.049 41c-.455.835-1.42.621-1.573-.047l-1.819-9.393 6.393-4.958c.634-.545 1.857-1.434 2.482-1.424l1.392-.008c.847-.005 1.151.391.95.905l-.246.474c-.16.266-.66.298-1.087.298l-.804.004a.177.177 0 0 0-.179.178c0 .1.08.177.179.177h.793c.343 0 .772.008.614.266l-2.965 5.653c-.137.22-.753.26-1.275.26m11.058 3.489c-2.99 3.627-4.686 4.87-7.723 4.87-1.034 0-1.572-.233-1.282-.734l3.602-7.244h1.373c1.534 0 1.323 1.292.905 3.042-.073.244.112.257.294.046l3.425-6.019c.167-.38-.266-.453-.477-.167-1.715 2.329-3.521 2.156-4.282 2.156h-.62l3.848-7.343h1.55c1.953.121 2.864 1.78 2.298 5.779h.813l2.828-5.576c.229-.47-.253-.902-.786-.902l-19.197.005c-1.112 0-1.162.854-.095.854.863 0 .817 1.238.041 1.838l-8.149 6.47 1.647 7.64c.12.577.491.852 1.127.852h15.874c.655 0 .925-.267 1.136-.539l2.874-4.965c.398-.714-.524-.668-1.024-.063"/>
        <path fill="#562385" d="M29.843 34.792h-5.05l6.389-8.427-1.34 8.427zm-1.172 5.234c-.15.864-1.02 1.436-2.115 1.727l-1.128.28.927-1.67c.244-.454-.291-.721-.874-.046-3.924 4.572-5.177 6.76-11.229 6.777l-1.626.002c-.493 0-1.032-.192-.699-.662l2.141-3.99 8.133.002c1.11 0 .826-.837.173-.858-.43-.015-.9-.262-1.233-.788-.095-.145-.297-.724.02-1.17l3.115-4.14h5.178l-.783 4.536zm12.055 1.561a.871.871 0 0 1-.804-.594c-.136-.409-.124-1.133.04-1.454l7.408-13.133c.12-.243.42-.75.788-.75.654.002.936-.86-.172-.86h-5.932c-1.108 0-1.12.844-.057.844.433 0 .606.426.482.685l-1.637 2.97c-.206.326-.66.35-1.138.35l-1.412-.004a.179.179 0 1 0 0 .358h1.4c.38 0 .681.114.463.554l-5.467 9.958c-.394.549-1.178.671-1.133-.379l1.943-14.585c.077-.455-.042-.764-.53-.764l-2.93.005c-.351 0-.567.17-.735.397l-1.048 1.317c-.138.137-.431.136-.757.136l-2.463-.004a.176.176 0 0 0-.176.177c0 .1.079.179.176.179h2.01c.356 0 .773.083.622.25l-2.82 3.548c-.085.097-.358.124-.526.124l-.797-.001c-.099 0-.178.08-.178.177 0 .097.079.176.178.176l.665.003c.206 0 .207.1.125.194l-2.652 3.33c-.136.129-.4.156-.658.156l-2.342-.003a.176.176 0 0 0-.175.178c0 .097.08.177.175.177h2.01c.305 0 .54.054.379.26l-3.768 4.726c-.708.902-4.119 1.36-4.783 1.36l12.743-23.842c.121-.273.595-.692 1.083-.692h2.706c1.277 0 1.24-.85.131-.85H17.561c-1.108 0-1.153.85.122.85h2.52c.714 0 .944.432.76.786l-.361.656c-.118.212-.289.298-.979.298l-4.451-.002a.175.175 0 0 0-.177.176c0 .098.079.177.177.177l4.44.002c.24 0 .601.062.375.496l-.625 1.155c-.105.176-.377.259-.69.259l-2.018-.004a.178.178 0 1 0 0 .355l2.008.003c.287 0 .295.188.128.453l-1.434 2.665c-.122.227-.355.258-.81.258l-.803-.004c-.1 0-.18.079-.18.178 0 .098.08.177.18.177h.792c.302 0 .382.17.246.458l-1.176 2.188c-.176.31-.425.434-1.208.434l-4.45-.004a.178.178 0 1 0 0 .356l4.438.001c.501.008.687.228.49.587l-2.299 4.317c-.136.192-.51.22-1.15.22l-4.45-.005a.178.178 0 0 0 0 .355l4.44.001c.531 0 .856.024.694.303l-1.322 2.49c-.244.38-.926.38-1.192.38l-1.412-.004a.177.177 0 0 0-.177.178c0 .098.08.177.177.177l1.4.001c.495 0 .755.086.626.35L8.44 41.304c-.159.296-.85.31-1.383.31l-6.88-.006a.18.18 0 0 0-.178.18.18.18 0 0 0 .178.177l6.87.001c.456 0 1.031.056.817.42l-1.126 2.122c-.106.175-.491.19-1.047.19l-1.41-.002a.176.176 0 0 0 0 .353h1.4c.34 0 .758.039.612.3l-.706 1.354c-.228.337-.454.637-1 .637H1.135c-1.277 0-1.232.85-.124.85l20.275.012c.593 0 .611-.08.891-.518l3.007-5.242 15.368.002c1.11.002.825-.835.174-.856z"/>
        <g transform="translate(64.718 24.365)">
            <mask id="c" fill="#fff">
                <use xlink:href="#b"/>
            </mask>
            <path fill="#562385" d="M15.251 7.609c-.557.455-1.434.983-1.605.815-.237-.235-.975-.744-1.372-.926l3.312-6.052c.136-.213.294-.329.659-.329 1.287 0 1.709 1.397 1.103 3.138-.424 1.22-1.112 2.542-2.097 3.354m26.728 5.424c-.083-.416-.233-.162-.508.361-.084.16-.35.163-.617.163l-.81.004c-.1 0-.18.08-.18.18 0 .095.08.173.18.173h.8c.3 0 .308.204.165.509-.56 1.19-1.136 1.989-1.902 2.946-.12.15-.427.281-.67.281l-.818.006a.176.176 0 0 0-.176.178c0 .096.079.176.176.176h.8c.403 0-.006.246-.074.338-1.417 1.892-2.394 2.736-3.435 3.583-.123.098-.71.063-1.122.06l-.805.003a.18.18 0 0 0-.177.18c0 .098.08.18.177.18h.796c.606 0 .149.347.06.422-2.212 1.842-5.501 2.434-7.008 2.246-4.886-.613-5.895-4.323-6.257-5.806-.073-.31-.309-.947-.386-1.338-.15-.775 2.054-.996 2.663-.588.922.618 3.077 1.252 4.771 1.257 1.568.006 4.776-1.133 5.704-3.825.95-2.754-1.435-5.812-2.494-6.865-1.344-1.347-2.617-3.49-2.08-5.062.404-1.187 1.08-1.724 2.527-1.724 1.87 0 3.228 1.202 3.228 2.908 0 .154-.091.333-.215.333l-.66.003a.179.179 0 0 0 0 .357l.62-.001c.175 0 .285.132.239.346-.12.57-.16.972-.284 1.544-.075.331.413.561.581.32l2.94-5.247c.212-.397-.261-.503-.608-.38-.807.277-2.115.472-2.578.138C33.442.603 32.44.1 30.91.1c-2.615 0-4.444.641-5.618 2.792-.09.169-.348.166-.567.166h-.502a.174.174 0 0 0-.177.176c0 .098.08.177.177.177l.428-.004c.182 0 .304.052.213.265a8.31 8.31 0 0 0-.222.607c-.296.932-.2 2.238.267 3.4.03.079-.07.115-.25.115h-.799a.178.178 0 1 0 0 .356h.798c.362.002.45.04.599.25.414.58.835 1.011 1.366 1.687.168.211-.546.27-.926.268l-3.166-.001c-.1 0-.176.081-.176.178 0 .098.076.178.176.178l3.207-.005c.514 0 1.399-.007 1.498.106.774.896 1.712 2.274 1.873 3.435.045.336-.08.476-.493.476h-.43a.175.175 0 0 0-.176.177c0 .098.078.177.176.177h.38c.327 0 .505.054.428.299-.416 1.327-1.04 2.289-3.577 2.275-2.66-.015-3.2-2.624-2.423-5.345.153-.54-.007-.774-.251-.347l-1.852 2.909a.631.631 0 0 1-.506.235l-.261-.002c-.1 0-.177.081-.177.179 0 .097.08.176.177.176.234 0 .326.126.234.257l-.676 1.058c-1.122-2.56-2.997-5.713-3.996-6.86l.017-.056c2.47-.15 6.108-2.461 6.706-4.528C23.442 1.741 19.959.416 18.06.416L9.719.417c-1.108 0-1.19.841-.126.841.576 0 1.077.503.824 1.012L8.57 5.6c-.153.272-.727.256-1.472.256h-.81a.178.178 0 0 0 0 .357h.797c.532 0 1.118.03.919.412L5.82 10.568c-.104.184-.388.199-1.131.199l-.805.001c-.1 0-.18.084-.18.182 0 .094.08.177.18.177h.785c.588 0 .806.077.637.38l-2.918 5.278c-.348.378-.763.45-1.475.45-1.064 0-1.054.843.056.843h7.144c1.11 0 .828-.858.171-.858-.383 0-.79-.707-.532-1.13l3.646-6.908h.37c1.622 0 2.015 2.66 2.319 5.565.023.21-.373.219-1.183.219l-2.026.007a.177.177 0 1 0 0 .354h2.004c.534 0 1.278.006 1.297.174.139 1.276.243 2.398.49 3.42.076.32-.493.27-1.102.27l-2.582.002a.178.178 0 1 0 0 .356l2.58.002c.81 0 1.23 0 1.276.166 1.11 4.076 5.876 7.284 10.508 7.107 3.977-.15 7.337-2.314 9.053-3.692 2.29-1.837 5.649-5.68 7.018-8.475.248-.51.652-1.168.56-1.624" mask="url(#c)"/>
        </g>
        <path fill="#562385" d="M39.74 19.405c-.672.866-1.56 1.088-2.556 1.088h-.28l1.756-3.48a.559.559 0 0 1 .5-.285c.22 0 .191-.44-.096-.44h-2.77c-.236 0-.319.44-.1.44.237 0 .28.262.167.483l-1.573 3.101c-.108.167-.282.211-.473.263-.235.06-.395.478-.13.478h4.422c.342 0 .421-.126.512-.248l.89-1.378c.128-.165-.14-.188-.269-.022M53.062 16.412c-.135.076-.452.113-.59-.003-.352-.292-1.046-.518-1.409-.518-1.042 0-1.797.206-2.25 1.19-.387.84.009 1.542.928 1.966.398.185.926.426.724.904-.147.352-.556.387-.923.386-.494-.006-1.237-.377-1.351-1.074-.04-.227-.304-.174-.38-.053l-.63 1.254c-.098.167.162.351.265.243.211-.227.674-.284.9-.13.316.209 1.124.575 1.601.57 1.058-.008 1.755-.278 2.335-1.186.528-.827.203-1.646-.762-2.103-.51-.237-.946-.662-.718-1.13.15-.304.601-.238.826-.2.432.073.984.479 1.048.835.027.151.22.182.306.046l.331-.774c.077-.15-.167-.267-.251-.223M83.748 17.659l.386-.709c.169-.312-.106-.667-.548-.667h-5.164c-.37 0-.265.387-.113.387.332 0 .43.405.229.748l-1.552 2.855c-.231.275-.379.392-.712.392-.266 0-.361.388.012.388h5.233c.212 0 .308-.075.382-.182l.712-.944c.173-.227-.201-.227-.315-.114-.902.902-1.87.879-2.571.879h-.61l.715-1.601h.155c.458 0 .988-.007 1.13.344.037.084.261.15.354 0l.61-1.223c.1-.181-.175-.213-.251-.082-.239.43-1.302.315-1.578.315h-.155l.894-1.76h.993a1.46 1.46 0 0 1 1.326.913c.042.114.372.205.438.06M58.218 18.562l1.722-1.405.009 1.405h-1.73zm12.318-2.279h-1.837c-.372 0-.262.387-.112.387.395 0 .751.461.536.888l-.762 1.392-1.678-2.457c-.112-.15-.375-.224-.603-.224h-1.808c-.371 0-.285.386-.134.386.383 0 .285.288.19.492l-1.442 2.774c-.092.222-.483.252-.607-.03l-1.112-3.633c-.047-.143-.7-.135-.865 0l-2.794 2.305h-1.45c-.286 0-.4.12-.4.272 0 .153.11.293.41.293l.757-.003-.756.625c-.419.31-.849.744-1.139.744h-.172c-.275 0-.43.045-.43.264 0 .22.116.296.375.296h2.253c.426 0 .342-.554.13-.554-.234 0-.62-.296-.261-.714l.688-.658h1.356c.804 0 1.367.931.887 1.222l-.37.204c-.175.091-.251.5 0 .5h4.403c.329 0 .26-.43.11-.43-.45 0-.238-.65-.15-.823l1.155-2.192 1.627 3.15c.104.198.202.296.392.296h.623c.196 0 .264-.115.353-.266l1.85-3.344c.3-.598.528-.769.904-.769.151-.002.258-.393-.117-.393zM44.887 19.054c-.493.978-1.314 1.563-1.839 1.3-.522-.264-.547-1.27-.056-2.25.49-.98 1.312-1.563 1.837-1.3.522.263.547 1.27.058 2.25m-.44-2.98c-1.549 0-3.143.764-3.464 2.389-.276 1.415.703 2.88 2.434 2.88 1.645 0 3.165-1.077 3.47-2.637.307-1.568-.86-2.632-2.44-2.632M75.773 18.445h-1.988c-.372 0-.263.39-.113.39.157 0 .304.082.304.334 0 .803-.34 1.113-1.034 1.113-.756 0-1.03-.92-.52-2.047.326-.72 1.188-1.394 2.21-1.394.628 0 1.155.135 1.233.723.02.144.238.144.31.008l.475-.847c.054-.09-.03-.198-.174-.207-.121-.008-.394.149-.571.017-.4-.296-1.265-.584-1.92-.584-1.07 0-2.563.241-3.57 1.992-.91 1.582.417 3.254 1.649 3.256.682.002 1.477-.504 1.931-.697l.51.347c.072.09.233.203.384.203h.189c.176 0 .245-.238.313-.39l.779-1.89c.101-.19.045-.327-.397-.327M103.037 16.412c-.133.076-.451.113-.588-.003-.353-.292-1.046-.518-1.409-.518-1.042 0-1.798.206-2.25 1.19-.39.84.008 1.542.928 1.966.4.185.929.426.726.904-.15.352-.56.387-.928.386-.49-.006-1.235-.377-1.35-1.074-.037-.227-.302-.174-.376-.053l-.632 1.254c-.099.167.16.351.264.243.214-.227.676-.284.905-.13.312.209 1.116.575 1.6.57 1.053-.008 1.753-.278 2.33-1.186.53-.827.204-1.646-.76-2.103-.511-.237-.946-.662-.718-1.13.147-.304.604-.238.83-.2.427.073.982.479 1.044.835.027.151.22.182.304.046l.333-.774c.073-.15-.17-.267-.253-.223M89.198 19.405c-.667.866-1.558 1.088-2.557 1.088h-.28l1.76-3.48a.557.557 0 0 1 .498-.285c.22 0 .193-.44-.097-.44h-2.77c-.235 0-.318.44-.098.44.236 0 .28.262.165.483l-1.573 3.101c-.108.167-.28.211-.474.263-.233.06-.393.478-.128.478h4.423c.341 0 .424-.126.513-.248l.888-1.378c.13-.165-.14-.188-.27-.022M95.87 16.684c.615 0 1.15.436 1.323.913.04.115.37.206.44.061l.385-.708c.166-.312-.109-.667-.55-.667h-5.163c-.372 0-.264.387-.112.387.334 0 .433.405.23.748l-1.551 2.855c-.231.275-.383.392-.713.392-.266 0-.36.388.013.388h5.231c.213 0 .308-.075.383-.182l.711-.944c.174-.227-.202-.227-.316-.114-.903.902-1.871.879-2.571.879H93l.717-1.602h.152c.46 0 .99-.006 1.129.346.038.083.264.15.357 0l.61-1.224c.1-.18-.176-.213-.25-.082-.244.43-1.302.315-1.582.315h-.15l.892-1.76h.994z"/>
        <g>
            <g transform="translate(18.156 .938)">
                <mask id="e" fill="#fff">
                    <use xlink:href="#d"/>
                </mask>
                <path fill="#562385" d="M35.748 32.448l-1.398-.008a.175.175 0 0 0-.176.175c0 .097.08.177.176.177l1.417-.014c.48 0 .919.061.797.274l-3.671 7.01c-.455.835-1.42.622-1.573-.046L29.5 30.622l6.393-4.957c.634-.545 1.857-1.435 2.482-1.425l1.392-.008c.847-.005 1.15.392.95.905l-.247.474c-.16.266-.66.298-1.086.298l-.804.004a.177.177 0 0 0-.179.178c0 .1.08.177.179.177h.793c.343 0 .772.009.614.266l-2.965 5.653c-.137.22-.753.261-1.275.261m11.058 3.488c-2.99 3.628-4.686 4.87-7.723 4.87-1.034 0-1.572-.233-1.282-.734l3.602-7.244h1.373c1.534 0 1.323 1.293.905 3.042-.074.245.112.258.294.046l3.424-6.019c.168-.38-.265-.453-.476-.166-1.715 2.328-3.521 2.155-4.282 2.155h-.62l3.848-7.342h1.55c1.953.12 2.863 1.78 2.298 5.778h.813l2.828-5.575c.229-.47-.253-.903-.786-.903l-19.198.006c-1.11 0-1.162.854-.094.854.863 0 .817 1.237.041 1.837l-8.149 6.471 1.647 7.64c.12.576.491.851 1.127.851H43.82c.655 0 .925-.266 1.136-.539L47.83 36c.398-.715-.525-.668-1.024-.064" mask="url(#e)"/>
            </g>
            <g transform="translate(18.156 .938)">
                <mask id="g" fill="#fff">
                    <use xlink:href="#f"/>
                </mask>
                <path fill="#562385" d="M11.687 33.855h-5.05l6.389-8.427-1.34 8.427zm-1.172 5.233c-.15.865-1.02 1.436-2.115 1.728l-1.128.28.927-1.67c.244-.455-.291-.722-.874-.046-3.924 4.572-5.177 6.759-11.229 6.776l-1.627.003c-.492 0-1.031-.192-.698-.663l2.141-3.989 8.133.001c1.11 0 .826-.837.173-.858-.43-.014-.9-.261-1.233-.788-.095-.144-.297-.724.02-1.17l3.115-4.14h5.178l-.783 4.536zm12.055 1.561a.871.871 0 0 1-.804-.594c-.136-.408-.124-1.133.04-1.454l7.408-13.133c.12-.243.42-.75.788-.75.654.002.936-.86-.172-.86h-5.932c-1.109 0-1.12.845-.057.845.433 0 .606.425.482.684l-1.638 2.97c-.205.326-.659.351-1.137.351l-1.413-.005a.179.179 0 1 0 0 .358h1.401c.379 0 .681.114.462.554l-5.466 9.959c-.394.548-1.178.67-1.133-.38l1.943-14.584c.077-.456-.042-.765-.53-.765l-2.93.006c-.351 0-.567.17-.735.397l-1.048 1.317c-.138.136-.431.135-.758.135l-2.462-.004a.176.176 0 0 0-.176.177c0 .1.079.18.176.18h2.01c.356 0 .773.082.622.25L8.69 29.85c-.085.097-.358.123-.526.123l-.797-.001c-.1 0-.178.08-.178.177 0 .097.079.177.178.177l.665.002c.206 0 .207.1.125.194l-2.652 3.331c-.136.128-.4.155-.658.155l-2.342-.003a.176.176 0 0 0-.175.178c0 .097.08.177.175.177h2.01c.305 0 .54.054.379.26l-3.768 4.726c-.708.902-4.119 1.361-4.783 1.361L9.087 16.866c.121-.274.595-.692 1.083-.692h2.706c1.277 0 1.24-.85.131-.85H-.596c-1.107 0-1.152.85.123.85h2.52c.714 0 .944.432.76.785l-.361.656c-.118.213-.289.298-.979.298l-4.452-.002a.175.175 0 0 0-.176.176c0 .098.079.178.176.178l4.44.001c.241 0 .602.062.376.496l-.625 1.155c-.105.176-.377.26-.69.26l-2.018-.005a.178.178 0 1 0 0 .355l2.008.004c.286 0 .295.187.128.453L-.8 23.648c-.122.228-.355.258-.81.258l-.803-.004c-.1 0-.18.08-.18.178 0 .098.08.177.18.177l.792.001c.302 0 .381.17.246.457l-1.176 2.188c-.176.31-.425.435-1.208.435l-4.45-.004a.178.178 0 1 0 0 .356h4.438c.5.009.687.228.49.588l-2.299 4.316c-.136.192-.51.221-1.15.221l-4.45-.006a.178.178 0 0 0 0 .356h4.44c.531 0 .855.024.693.303l-1.32 2.49c-.245.38-.927.38-1.193.38l-1.412-.004a.177.177 0 0 0-.177.178c0 .098.08.177.177.177l1.4.001c.495 0 .755.086.626.351l-1.769 3.324c-.159.297-.85.311-1.383.311l-6.88-.006a.18.18 0 0 0-.178.18.18.18 0 0 0 .178.176l6.87.001c.456 0 1.031.056.817.42l-1.126 2.122c-.106.176-.492.19-1.047.19l-1.41-.002a.176.176 0 1 0 0 .353h1.4c.34 0 .758.04.612.3l-.706 1.354c-.228.337-.455.637-1 .637h-3.453c-1.277 0-1.232.85-.124.85l20.275.012c.593 0 .611-.08.891-.517l3.007-5.242 15.368.001c1.11.003.825-.834.174-.856z" mask="url(#g)"/>
            </g>
            <g transform="translate(18.156 .938)">
                <mask id="i" fill="#fff">
                    <use xlink:href="#h"/>
                </mask>
                <path fill="#562385" d="M61.813 31.036c-.558.456-1.435.984-1.605.816-.238-.235-.976-.745-1.372-.927l3.311-6.052c.137-.213.294-.328.66-.328 1.287 0 1.709 1.396 1.103 3.137-.425 1.22-1.112 2.542-2.097 3.354m26.728 5.424c-.084-.416-.233-.162-.509.362-.083.158-.35.162-.616.162l-.81.004c-.1 0-.18.08-.18.18 0 .095.08.173.18.173h.799c.301 0 .308.204.165.509-.56 1.19-1.135 1.989-1.901 2.947-.12.15-.427.28-.67.28l-.818.006a.176.176 0 0 0-.176.178c0 .096.078.177.176.177h.8c.402 0-.006.246-.074.337-1.418 1.892-2.395 2.737-3.435 3.583-.123.099-.71.063-1.123.061l-.805.002a.18.18 0 0 0-.176.181c0 .097.08.178.176.178h.796c.607 0 .15.349.06.423-2.211 1.842-5.5 2.434-7.007 2.246-4.887-.613-5.896-4.323-6.257-5.805-.073-.31-.309-.947-.387-1.34-.15-.774 2.055-.995 2.663-.586.923.617 3.077 1.25 4.772 1.256 1.568.006 4.775-1.133 5.704-3.824.95-2.755-1.435-5.812-2.494-6.866-1.344-1.347-2.617-3.489-2.08-5.061.404-1.187 1.079-1.725 2.526-1.725 1.87 0 3.229 1.202 3.229 2.908 0 .154-.091.333-.215.333l-.66.003a.179.179 0 0 0 0 .357h.62c.175 0 .284.132.238.346-.12.57-.16.971-.284 1.543-.074.332.413.561.582.32l2.939-5.247c.213-.397-.26-.502-.608-.38-.806.277-2.114.473-2.577.138-1.1-.788-2.103-1.293-3.634-1.293-2.614 0-4.443.641-5.618 2.792-.09.169-.347.166-.566.166h-.502a.174.174 0 0 0-.177.177c0 .097.079.176.177.176l.427-.004c.182 0 .304.052.213.265a8.31 8.31 0 0 0-.222.607c-.295.932-.2 2.238.267 3.4.03.079-.07.115-.25.115h-.798a.178.178 0 1 0 0 .356h.798c.361.002.449.04.598.25.414.581.835 1.011 1.366 1.687.169.211-.545.27-.925.268h-3.167c-.1 0-.175.08-.175.177 0 .098.075.178.175.178l3.207-.004c.515 0 1.4-.007 1.498.106.774.895 1.713 2.273 1.873 3.434.045.336-.08.476-.492.476h-.43a.175.175 0 0 0-.177.177c0 .098.079.177.177.177h.38c.327 0 .504.054.428.299-.416 1.327-1.04 2.289-3.577 2.275-2.66-.015-3.201-2.624-2.423-5.345.152-.54-.008-.774-.251-.347l-1.853 2.91a.631.631 0 0 1-.506.235l-.26-.002c-.101 0-.177.08-.177.178 0 .098.08.176.176.176.235 0 .327.126.235.257l-.677 1.058c-1.121-2.56-2.996-5.713-3.996-6.86l.018-.055c2.469-.151 6.107-2.462 6.705-4.529 1.034-3.584-2.448-4.909-4.347-4.909l-8.341.001c-1.108 0-1.19.841-.127.841.576 0 1.077.503.825 1.012l-1.848 3.33c-.152.272-.727.256-1.471.256h-.81a.178.178 0 0 0 0 .357h.797c.532 0 1.117.03.918.412l-2.184 3.943c-.104.184-.388.199-1.13.199l-.806.001c-.1 0-.18.084-.18.182 0 .094.08.177.18.177h.786c.587 0 .806.077.636.38l-2.917 5.278c-.348.378-.763.45-1.476.45-1.064 0-1.053.843.057.843h7.144c1.11 0 .828-.858.171-.858-.383 0-.79-.707-.533-1.13l3.647-6.908h.37c1.622 0 2.014 2.661 2.318 5.566.023.21-.373.218-1.182.218l-2.026.007a.177.177 0 1 0 0 .354h2.003c.535 0 1.278.006 1.298.175.138 1.275.243 2.397.49 3.42.075.319-.494.269-1.102.269l-2.582.002c-.1 0-.18.082-.18.177 0 .1.08.179.18.179l2.58.003c.81 0 1.23 0 1.275.165 1.11 4.076 5.876 7.284 10.508 7.107 3.978-.15 7.337-2.314 9.054-3.692 2.29-1.837 5.648-5.68 7.018-8.474.247-.512.652-1.17.559-1.625" mask="url(#i)"/>
            </g>
            <g transform="translate(18.156 .938)">
                <mask id="k" fill="#fff">
                    <use xlink:href="#j"/>
                </mask>
                <path fill="#562385" d="M21.584 18.467c-.672.867-1.56 1.088-2.556 1.088h-.28l1.756-3.479a.559.559 0 0 1 .5-.286c.219 0 .191-.439-.096-.439h-2.77c-.236 0-.319.439-.1.439.237 0 .28.262.167.484l-1.573 3.1c-.108.168-.282.212-.473.264-.235.06-.395.477-.13.477h4.422c.342 0 .421-.125.512-.248l.89-1.378c.128-.165-.14-.188-.269-.022" mask="url(#k)"/>
            </g>
            <g transform="translate(18.156 .938)">
                <mask id="m" fill="#fff">
                    <use xlink:href="#l"/>
                </mask>
                <path fill="#562385" d="M34.906 15.474c-.136.076-.452.114-.59-.002-.352-.293-1.046-.518-1.409-.518-1.042 0-1.797.205-2.251 1.19-.386.839.01 1.541.929 1.966.398.184.926.426.724.903-.147.352-.556.388-.923.387-.494-.007-1.237-.378-1.351-1.075-.04-.227-.304-.173-.38-.052l-.63 1.254c-.098.166.162.35.265.242.211-.227.673-.284.9-.13.316.209 1.124.575 1.601.57 1.058-.008 1.755-.278 2.335-1.186.528-.827.203-1.646-.762-2.102-.51-.238-.946-.663-.718-1.131.15-.303.601-.238.826-.2.432.073.984.479 1.047.835.028.152.22.182.307.046l.331-.774c.076-.15-.168-.267-.251-.223" mask="url(#m)"/>
            </g>
            <g transform="translate(18.156 .938)">
                <mask id="o" fill="#fff">
                    <use xlink:href="#n"/>
                </mask>
                <path fill="#562385" d="M65.592 16.72l.386-.708c.169-.312-.106-.667-.548-.667h-5.164c-.371 0-.265.388-.113.388.332 0 .43.405.229.747l-1.552 2.855c-.231.275-.379.392-.712.392-.266 0-.361.388.012.388h5.233c.212 0 .308-.075.382-.182l.712-.944c.173-.227-.201-.227-.316-.114-.902.903-1.868.88-2.57.88h-.61l.715-1.602h.155c.458 0 .988-.006 1.13.345.037.083.261.15.354 0l.61-1.223c.099-.182-.175-.213-.251-.083-.239.43-1.302.316-1.578.316h-.155l.894-1.76h.993a1.46 1.46 0 0 1 1.326.912c.042.114.372.206.438.06" mask="url(#o)"/>
            </g>
            <g transform="translate(18.156 .938)">
                <mask id="q" fill="#fff">
                    <use xlink:href="#p"/>
                </mask>
                <path fill="#562385" d="M40.062 17.625l1.722-1.405.009 1.405h-1.73zm12.318-2.28h-1.837c-.372 0-.262.387-.112.387.395 0 .751.461.536.888l-.762 1.393-1.678-2.457c-.112-.15-.375-.225-.603-.225h-1.808c-.372 0-.285.387-.134.387.383 0 .285.287.19.492l-1.442 2.773c-.092.222-.483.253-.607-.029l-1.113-3.633c-.046-.143-.699-.136-.865 0l-2.793 2.304h-1.45c-.286 0-.4.12-.4.273 0 .153.11.292.41.292l.757-.003-.756.626c-.419.31-.849.744-1.139.744h-.172c-.276 0-.43.044-.43.264 0 .22.116.295.375.295H38.8c.426 0 .342-.554.13-.554-.234 0-.62-.296-.261-.714l.688-.657h1.356c.804 0 1.367.93.887 1.221l-.37.205c-.175.09-.251.5 0 .5h4.403c.329 0 .26-.43.11-.43-.45 0-.238-.65-.15-.823l1.155-2.193 1.627 3.15c.104.198.202.296.392.296h.622c.197 0 .265-.114.354-.266l1.85-3.343c.3-.599.527-.77.903-.77.152-.002.258-.393-.116-.393z" mask="url(#q)"/>
            </g>
            <g transform="translate(18.156 .938)">
                <mask id="s" fill="#fff">
                    <use xlink:href="#r"/>
                </mask>
                <path fill="#562385" d="M26.731 18.117c-.493.977-1.314 1.563-1.839 1.299-.522-.264-.548-1.27-.056-2.25.49-.98 1.312-1.563 1.837-1.3.522.264.547 1.27.058 2.25m-.44-2.98c-1.549 0-3.143.764-3.464 2.389-.276 1.415.702 2.881 2.434 2.881 1.645 0 3.165-1.078 3.47-2.638.306-1.568-.86-2.632-2.44-2.632" mask="url(#s)"/>
            </g>
            <g transform="translate(18.156 .938)">
                <mask id="u" fill="#fff">
                    <use xlink:href="#t"/>
                </mask>
                <path fill="#562385" d="M57.617 17.508h-1.989c-.371 0-.262.389-.113.389.158 0 .305.082.305.334 0 .804-.34 1.113-1.034 1.113-.756 0-1.03-.92-.52-2.046.326-.721 1.188-1.395 2.21-1.395.628 0 1.155.135 1.233.723.02.145.238.145.31.008l.475-.847c.054-.09-.03-.197-.174-.207-.121-.008-.394.15-.571.018-.4-.297-1.265-.585-1.92-.585-1.07 0-2.563.242-3.57 1.992-.91 1.583.417 3.254 1.648 3.256.683.003 1.478-.504 1.932-.697l.509.347c.073.09.234.204.384.204h.19c.176 0 .245-.238.313-.39l.779-1.891c.101-.189.044-.326-.397-.326" mask="url(#u)"/>
            </g>
            <g transform="translate(18.156 .938)">
                <mask id="w" fill="#fff">
                    <use xlink:href="#v"/>
                </mask>
                <path fill="#562385" d="M84.88 15.474c-.133.076-.45.114-.587-.002-.353-.293-1.046-.518-1.409-.518-1.042 0-1.798.205-2.25 1.19-.39.839.008 1.541.928 1.966.4.184.929.426.726.903-.15.352-.56.388-.928.387-.49-.007-1.235-.378-1.35-1.075-.037-.227-.302-.173-.376-.052l-.632 1.254c-.099.166.16.35.264.242.214-.227.676-.284.905-.13.312.209 1.116.575 1.6.57 1.053-.008 1.753-.278 2.329-1.186.53-.827.205-1.646-.759-2.102-.511-.238-.946-.663-.718-1.131.147-.303.604-.238.83-.2.427.073.981.479 1.044.835.027.152.22.182.304.046l.333-.774c.073-.15-.17-.267-.254-.223" mask="url(#w)"/>
            </g>
            <g transform="translate(18.156 .938)">
                <mask id="y" fill="#fff">
                    <use xlink:href="#x"/>
                </mask>
                <path fill="#562385" d="M71.042 18.467c-.667.867-1.558 1.088-2.557 1.088h-.28l1.76-3.479a.557.557 0 0 1 .497-.286c.22 0 .193-.439-.096-.439h-2.77c-.236 0-.318.439-.099.439.237 0 .28.262.166.484l-1.573 3.1c-.108.168-.28.212-.474.264-.233.06-.393.477-.128.477h4.422c.342 0 .425-.125.514-.248l.887-1.378c.131-.165-.14-.188-.269-.022" mask="url(#y)"/>
            </g>
            <g transform="translate(18.156 .938)">
                <mask id="A" fill="#fff">
                    <use xlink:href="#z"/>
                </mask>
                <path fill="#562385" d="M77.713 15.747c.616 0 1.15.436 1.324.913.04.114.37.206.44.06l.385-.708c.166-.312-.109-.667-.55-.667h-5.163c-.372 0-.264.387-.112.387.334 0 .433.406.23.748l-1.551 2.855c-.231.275-.383.392-.713.392-.266 0-.36.388.013.388h5.231c.213 0 .308-.075.383-.182l.711-.944c.174-.227-.202-.227-.316-.114-.903.903-1.871.88-2.571.88h-.61l.717-1.602h.152c.46 0 .99-.006 1.129.345.038.083.264.15.356 0l.61-1.223c.1-.181-.176-.213-.249-.083-.244.43-1.302.316-1.582.316h-.15l.892-1.76h.994v-.001z" mask="url(#A)"/>
            </g>
        </g>
        <g>
            <path fill="#000" d="M55.93 4.363c-2.437-.172-4.427-.241-6.168-.06.505-1.27 1.511-2.46 2.293-2.979 1.658.067 3.372.31 4.73.578 4.346.858 11.103 3.508 14.017 7.413-3.882-2.59-10.329-4.629-14.872-4.952m-7.298.09c-1.463.093-4.12.668-5.067.942-.245-.636-.915-2.613-1.128-3.25 2.694-.765 5.829-1.03 8.243-.82-.673.515-1.8 2.55-2.048 3.128M36.36 8.069c-.302-.507-1.73-1.81-2.503-2.066 1.802-1.338 5.985-3.247 7.572-3.585.273.456 1.008 2.401 1.25 3.221-1.403.304-5.129 1.639-6.32 2.43m39.173 4.437c-.397-.458-.945-1.43-4.882-4.862C64.857 2.596 57.184.293 49.977.293c-5.312 0-9.964 1.193-15.115 4.027-6.561 3.613-9.28 7.765-9.95 8.61-.498.62-.569.984-.247 1.17.23.13.67-.351 1.084-.896 1.952-2.578 4.518-5.135 7.22-6.64.84.123 2.016 1.294 2.473 1.914-1.727.942-4.593 3.126-5.678 3.966-.936.725-1.26 1.133-1.007 1.428.211.245.928-.237 1.528-.728 1.037-.853 4.121-3.038 5.647-3.86 1.04 1.217.704 3.462.337 3.95-.197.262-.227.54 0 .668.212.121.446-.187.749-.624.705-1.022.423-3.496-.185-4.389 1.861-1.156 4.534-1.928 6.154-2.293.136.259 2.099 5.99 2.472 7.032.203.57.407 1.252.823 1.124.28-.084.095-.71-.136-1.336-.287-.777-1.772-5.592-2.228-7.018.535-.29 3.757-.944 4.563-.91-.395 2.095 1.09 2.953 2.763 4.055.893.585 6.556 3.84 7.741 4.57.676.42 1.2.685 1.343.488.168-.226-.291-.7-.916-1.064-.497-.291-5.767-3.348-7.968-4.74-1.577-.995-2.426-2.062-2.048-3.463.52-.151 2.108-.163 3.758-.151 11.234.09 20.243 6.53 21.25 7.563.511.523 1.221.973 1.496.761.173-.133-.127-.726-.368-1.001"/>
            <g transform="translate(22.549 43.985)">
                <mask id="C" fill="#fff">
                    <use xlink:href="#B"/>
                </mask>
                <path fill="#000" d="M55.416 6.987c.416-.764.754-1.2.396-1.399-.326-.18-.641.529-1.037 1.215-1.313 2.282-2.746 4.16-5.985 7.11-3.587 3.268-7.71 5.165-9.145 5.65-1.22-3.432-5.876-18.053-6-18.47-.182-.625-.338-.803-.549-.731-.237.086-.091.429.031.974.123.545 5.665 17.851 5.847 18.458-1.1.546-5.565 1.795-8.687 1.896-2.78.092-6.045 0-7.695-.38-1.933-1.56-6.328-7.767-7.998-11.074-1.966-3.892-3.268-7.473-3.603-8.995-.162-.727-.368-1.252-.734-1.18-.393.074-.167.649.063 1.429.59 2.002 1.555 4.84 3.603 8.884 2.17 4.285 6.044 9.31 7.173 10.68-3.54-.746-7.842-2.399-11.93-5.452C5.644 12.981 2.62 9.636 1.096 7.2.839 6.78.53 6.19.153 6.44c-.17.113.04.588.304 1.063 2.21 3.97 7.599 9.588 14.504 12.67 8.047 3.593 16.822 3.401 24.67.364 6.864-2.659 12.835-8.126 15.786-13.55" mask="url(#C)"/>
            </g>
        </g>
    </g>
</svg>
