<svg xmlns="http://www.w3.org/2000/svg" xmlns:xlink="http://www.w3.org/1999/xlink" width="93" height="93" viewBox="0 0 93 93">
    <defs>
        <filter id="a" width="132.5%" height="132.1%" x="-16.3%" y="-16.1%" filterUnits="objectBoundingBox">
            <feOffset dx="2" dy="2" in="SourceAlpha" result="shadowOffsetOuter1"/>
            <feGaussianBlur in="shadowOffsetOuter1" result="shadowBlurOuter1" stdDeviation="2.5"/>
            <feColorMatrix in="shadowBlurOuter1" result="shadowMatrixOuter1" values="0 0 0 0 0 0 0 0 0 0 0 0 0 0 0 0 0 0 0.2 0"/>
            <feMerge>
                <feMergeNode in="shadowMatrixOuter1"/>
                <feMergeNode in="SourceGraphic"/>
            </feMerge>
        </filter>
        <path id="b" d="M.329.006H8.37v3.597H.33z"/>
        <path id="d" d="M0 .304h14.983v14.983H0z"/>
        <path id="f" d="M0 83.498h82.423V0H0z"/>
    </defs>
    <g fill="none" fill-rule="evenodd" filter="url(#a)" transform="translate(3 3)">
        <g transform="translate(36.933 79.894)">
            <mask id="c" fill="#fff">
                <use xlink:href="#b"/>
            </mask>
            <path fill="#231916" d="M8.364.221c-.327.981-1.392 3.382-3.963 3.382C1.481 3.603.461.44.412.31L.33.006s2.517.21 3.902.21c1.385 0 3.753-.135 4.14-.21l-.007.215z" mask="url(#c)"/>
        </g>
        <path fill="#231916" d="M52.963 78.555l.603.081c-.715 1.866-2 3.958-4.527 3.958-2.443 0-3.655-1.417-4.172-2.37l-.421-.258s4.226-.14 8.517-1.41M29.793 78.555l-.603.081c.715 1.866 2.001 3.958 4.527 3.958 2.443 0 3.763-1.496 4.305-2.37l.288-.258s-4.226-.14-8.517-1.41"/>
        <path fill="#FFF000" d="M43.382 80.31c-.395.573-.66.546-1.136.546-.24 0-.598.199-.587.557.008.281.237.517.626.517.863 0 1.52-1.207 1.706-1.715 0 0 .51-.023.659-.037 0 0-.915 2.723-3.285 2.723-2.375 0-3.343-2.694-3.343-2.694s1.999.124 3.144.124 1.874-.006 2.216-.021M52.646 79.112c-1.55.418-2.65.754-5.252 1.072 0 0 .082.268.647.239.218-.011.246-.065.327-.08.16-.029.407.14.378.423-.022.197-.191.447-.767.447-.576 0-1.25-.473-1.588-.909 0 0-.347.079-.703.098 0 0 1.107 1.552 3.29 1.552 2.403 0 3.29-2.147 3.668-2.842"/>
        <path fill="#FFE200" d="M51.034 80.628c0-.376-.115-.725-.313-1.012-.841.197-1.803.378-3.211.554-.012.041-.02.083-.028.127.085.068.25.142.56.126.217-.011.245-.065.326-.08.16-.029.407.14.378.423-.022.197-.191.447-.767.447-.148 0-.304-.032-.458-.086.076.261.209.497.386.696.322.081.679.131 1.071.131.77 0 1.385-.22 1.877-.544.115-.235.18-.502.18-.782"/>
        <path fill="#FFE400" d="M51.01 80.628c0-.374-.116-.722-.314-1.006-.83.193-1.78.372-3.16.545a1.688 1.688 0 0 0-.033.146c.09.063.253.125.539.11.218-.011.245-.065.326-.08.16-.029.407.14.378.423-.022.197-.191.447-.767.447a1.39 1.39 0 0 1-.43-.076c.08.263.219.5.4.697.312.075.655.12 1.029.12.749 0 1.35-.208 1.836-.517.125-.242.196-.518.196-.809"/>
        <path fill="#FFE500" d="M50.986 80.628c0-.372-.118-.718-.316-1-.819.19-1.757.365-3.108.536a1.735 1.735 0 0 0-.037.164c.094.058.253.109.517.095.217-.011.246-.065.326-.08.16-.029.407.14.378.423-.022.197-.19.447-.767.447-.13 0-.266-.025-.401-.068.082.265.226.504.415.699.3.069.628.11.985.11a3.35 3.35 0 0 0 1.795-.49c.135-.249.213-.534.213-.836"/>
        <path fill="#FFF000" d="M30.11 79.112c1.549.418 2.65.754 5.252 1.072 0 0-.082.268-.648.239-.218-.011-.246-.065-.326-.08-.16-.029-.407.14-.377.423.02.197.19.447.765.447.577 0 1.25-.473 1.588-.909 0 0 .347.079.705.098 0 0-1.107 1.552-3.292 1.552-2.402 0-3.29-2.147-3.667-2.842"/>
        <path fill="#FFF000" d="M41.136 66.337c8.28 0 17.455-5.083 23.89-12.411.695-.791 1.877-2.293 4.676-2.293 2.8 0 6.524 2.551 6.085 7.197-.319 3.388-5.161 11.023-13.442 15.729-8.281 4.706-15.907 5.719-21.21 5.719-5.3 0-12.927-1.013-21.208-5.719C11.646 69.853 6.804 62.218 6.484 58.83c-.438-4.646 3.285-7.197 6.085-7.197s3.982 1.502 4.677 2.293c6.434 7.328 15.61 12.411 23.89 12.411"/>
        <path fill="#231916" d="M41.136 66.635c-4.11 0-8.434-1.235-12.538-3.368-4.252-2.207-8.271-5.383-11.575-9.145-.337-.384-.794-.94-1.488-1.39-.69-.447-1.633-.802-2.966-.802-.148 0-.292.007-.43.02-1.223.115-2.57.71-3.614 1.746-1.042 1.035-1.778 2.512-1.778 4.394 0 .238.011.476.033.713.174 1.841 1.741 4.995 4.516 8.243a33.308 33.308 0 0 0 8.777 7.255c4.113 2.337 8.063 3.757 11.643 4.593a41.411 41.411 0 0 0 18.84 0c3.58-.836 7.53-2.256 11.642-4.593a33.328 33.328 0 0 0 8.778-7.255c2.775-3.248 4.342-6.402 4.515-8.243.023-.237.034-.475.034-.713 0-1.882-.736-3.36-1.778-4.394-1.045-1.036-2.392-1.63-3.615-1.746a4.417 4.417 0 0 0-.43-.02c-1.333 0-2.275.355-2.966.802-.694.45-1.15 1.006-1.487 1.39-3.303 3.762-7.323 6.937-11.575 9.145-4.104 2.133-8.428 3.368-12.538 3.368m0-.595c4.012 0 8.242-1.211 12.263-3.3 4.19-2.177 8.15-5.304 11.403-9.009.358-.409.84-.998 1.611-1.498.775-.5 1.823-.899 3.289-.899.152 0 .315.01.486.025 1.35.127 2.833.78 3.977 1.917 1.146 1.136 1.955 2.756 1.955 4.814 0 .241-.012.498-.038.768-.183 1.946-1.8 5.233-4.655 8.574a33.946 33.946 0 0 1-8.935 7.385c-4.17 2.37-8.173 3.808-11.801 4.656a42.04 42.04 0 0 1-9.555 1.103c-2.67 0-5.924-.256-9.555-1.103-3.629-.848-7.632-2.287-11.8-4.656a33.913 33.913 0 0 1-8.936-7.384C7.99 64.09 6.373 60.805 6.19 58.858a8.28 8.28 0 0 1-.038-.768c0-2.058.81-3.678 1.955-4.814 1.145-1.137 2.628-1.79 3.977-1.917.171-.016.334-.025.486-.025 1.466 0 2.515.398 3.29.9.77.499 1.252 1.088 1.61 1.497 3.253 3.705 7.214 6.832 11.404 9.009 4.021 2.089 8.25 3.3 12.263 3.3"/>
        <path fill="#DF2410" d="M16.317 54.654l-.097-.11c-.66-.757-1.562-1.794-3.719-1.794-1.257 0-2.682.673-3.63 1.713-.707.777-1.509 2.143-1.312 4.23.27 2.854 4.8 10.253 12.868 14.84 6.502 3.694 13.446 5.568 20.641 5.568 7.195 0 14.14-1.874 20.642-5.569 8.068-4.586 12.6-11.985 12.867-14.839.197-2.087-.605-3.453-1.313-4.23-.947-1.04-2.37-1.713-3.628-1.713-2.157 0-3.06 1.037-3.72 1.795l-.096.11c-6.933 7.895-16.418 12.8-24.752 12.8s-17.819-4.905-24.751-12.8"/>
        <path fill="#FFF000" d="M67.738 45.34a7.194 7.194 0 1 1 14.388 0 7.194 7.194 0 0 1-14.388 0"/>
        <path fill="#231916" d="M68.036 45.34c0 1.904.772 3.629 2.02 4.876a6.874 6.874 0 0 0 4.876 2.02 6.876 6.876 0 0 0 4.876-2.02 6.874 6.874 0 0 0 2.02-4.876 6.875 6.875 0 0 0-2.02-4.876 6.877 6.877 0 0 0-4.876-2.02 6.875 6.875 0 0 0-4.877 2.02 6.877 6.877 0 0 0-2.02 4.876m-.595 0c0-2.069.839-3.942 2.194-5.297a7.468 7.468 0 0 1 5.298-2.195c2.068 0 3.942.839 5.297 2.195a7.466 7.466 0 0 1 2.194 5.297 7.467 7.467 0 0 1-2.194 5.297 7.469 7.469 0 0 1-5.297 2.194 7.47 7.47 0 0 1-5.298-2.194 7.467 7.467 0 0 1-2.194-5.297"/>
        <path fill="#FFF000" d="M.298 45.352a7.194 7.194 0 1 1 14.388 0 7.194 7.194 0 0 1-14.388 0"/>
        <g transform="translate(0 37.556)">
            <mask id="e" fill="#fff">
                <use xlink:href="#d"/>
            </mask>
            <path fill="#231916" d="M.596 7.795c0 1.905.772 3.63 2.02 4.877a6.874 6.874 0 0 0 4.876 2.02 6.87 6.87 0 0 0 4.876-2.02 6.872 6.872 0 0 0 2.02-4.877 6.874 6.874 0 0 0-2.02-4.876A6.874 6.874 0 0 0 7.492.9a6.875 6.875 0 0 0-4.876 2.02 6.873 6.873 0 0 0-2.02 4.876m-.596 0c0-2.069.839-3.941 2.195-5.297A7.468 7.468 0 0 1 7.492.304c2.069 0 3.941.839 5.297 2.194a7.468 7.468 0 0 1 2.194 5.297 7.469 7.469 0 0 1-2.194 5.298 7.47 7.47 0 0 1-5.297 2.194 7.471 7.471 0 0 1-5.298-2.194A7.469 7.469 0 0 1 0 7.795" mask="url(#e)"/>
        </g>
        <path fill="#231916" d="M76.9 25.99l.041-1.925c.588.444 1.707.46 2.362-.24.3-.32.47-.808.443-1.319a2.445 2.445 0 0 0-.715-1.58c-2.422-2.362-4.563-4.722-4.563-4.722a1.981 1.981 0 0 0-.768-.694c-.304-.135-1.35-.614-2.15.601-.725 1.102-.617 2.661-.486 3.227l2.273 3.088c.775.983 2.959 3.078 3.564 3.565M28.463 5.958c2.856-.957 5.463-1.747 8.978-2.06l-8.978 2.06z"/>
        <path fill="#231916" d="M28.463 5.966c2.856-.958 5.463-1.748 8.978-2.06l.535-.302c-1.965-1.545-3.914-2.596-5.855-2.596-1.22 0-3.696.827-4.253 5.195l.595-.237zM53.817 5.966c-2.857-.958-5.464-1.748-8.978-2.06l-.536-.302c1.966-1.545 3.915-2.596 5.856-2.596 1.219 0 3.696.827 4.252 5.195l-.594-.237zM38.796 3.466c.581-.03 1.921-.06 2.458-.06.535 0 2.016.072 2.34.096l-4.798-.036z"/>
        <path fill="#231916" d="M37.91 3.757C39.348 1.003 40.664 0 41.393 0c.91 0 1.977 1.449 2.813 3.315l.177.42-.728-.06c-.494-.09-1.865-.104-2.4-.104-.537 0-1.699 0-2.398.06l-.945.126z"/>
        <path fill="#FFF000" d="M35.1 68.968l-1.286 4.799-2.398-5.786-1.493-.401-1.818 6.786 1.618.434 1.297-4.837 2.436 5.837 1.454.39 1.818-6.785zM40.688 69.825l-1.843-.097-.368 7.015 1.844.096zM42.345 69.764l.129.926 1.967-.279.848 6.034 1.83-.258-.849-6.031 1.938-.273-.13-.924zM57.782 65.05L55.4 66.426l3.523 6.104 2.364-1.365c2.458-1.42 2.685-3.562 1.722-5.273-1.165-2.037-3.075-2.083-5.228-.84m3.592 1.855c.893 1.566.714 2.703-.664 3.5l-.654.377-2.583-4.472.707-.409c1.648-.952 2.578-.105 3.194 1.004M53.322 73.693l-.701-2.157 2.081-.676-.292-.898-2.08.677-.6-1.842 2.14-.695-.29-.887-3.903 1.269 2.17 6.68 4.305-1.399-.291-.897zM26.597 65.954l-2.08 3.752c-.627 1.132-1.274 1.848-2.332 1.237-1.05-.582-.808-1.45-.165-2.61l2.085-3.762-1.68-.93-2.201 3.972c-1.215 2.19.316 3.541 1.503 4.198 1.278.71 3.134 1.237 4.339-.936l2.211-3.99-1.68-.931zM25.407 24.693v32.89l15.729 10.11 15.728-10.11.02-32.838c-.499-.446-1.547-1.423-2.372-1.929H27.686c-.685.481-2.046 1.624-2.279 1.877"/>
        <path fill="#231916" d="M25.705 24.693v32.729l15.43 9.918 15.43-9.918.02-32.677h.596l-.02 32.838v.162l-.137.089-15.728 10.109-.16.104-.161-.104-15.728-10.11-.138-.088V24.693z"/>
        <path fill="#231916" d="M56.684 24.967L56.5 24.8h-.001c-.537-.485-1.437-1.297-2.14-1.729l.309-.507c.762.467 1.682 1.298 2.231 1.794.013.013-.069-.06.184.166l-.398.444z"/>
        <mask id="g" fill="#fff">
            <use xlink:href="#f"/>
        </mask>
        <path fill="#231916" d="M27.686 23.114h26.826v-.595H27.686z" mask="url(#g)"/>
        <path fill="#231916" d="M27.857 23.061c-.321.225-.775.582-1.189.923-.485.4-.924.782-1.042.91l-.437-.402c.131-.144.595-.548 1.102-.966.441-.363.912-.734 1.224-.954l.342.489z" mask="url(#g)"/>
        <path fill="#DF2410" d="M47.42 48.293v-1.222s-.327-.506-1.132-.506c-.803 0-1.28.238-1.28.447 0 .327.715 1.281 2.412 1.281zM41.076 37.47l1.222-2.125.951 2.125h1.58c-.953.894-1.34 2.244-1.34 3.138v.982c0 .418-.209 1.103-.209 1.103s1.367 1.045 1.579 1.221c.09.074.183.118.12.298-.11.308-1.035.72-1.133.804-.208.179-.264.296-.204.476.06.18.234.21.591.09.358-.119 1.103-.506 1.729-.774.624-.268 1.458-.21 1.458-.21v-1.191h-2.353v-3.812l-.417-.666 1.043-1.847 1.043 1.858-.417.655v1.995h1.206v-1.995l-.417-.655 1.042-1.848 1.042 1.848-.416.655v1.995h1.206v-1.995l-.416-.655 1.042-1.848 1.043 1.848-.418.655.013 3.81-2.366.001v1.751c.537.506 1.044 1.646 1.044 2.331 0 .686-.448.984-.448.984.15.535.12.76.06 1.25-.061.502-.685 1.281-.685 1.281v9.083c0 .618-1.43.56-1.43.029v-8.903c-.805-.894-3.01-1.578-3.01-1.578-.804.803-1.31 2.204-1.31 2.204.358.237.894 0 1.102-.239.209-.238.626-.297.864-.149.239.15.299.21.208.567-.088.357-.237.95-.237 1.365 0 .418.476.328.834.359.714.059.834.863.774 1.31-.06.447-.268 1.4-.268 1.996 0 .596.03 1.192.09 1.52.059.327.178.685.148 1.1-.04.567-.387.657-.744.3-.358-.359-5.333-5.66-5.333-5.66-.327 1.071 1.043 2.918 1.49 3.485.447.566.417.983.03 1.37-.388.387-1.132.596-1.281.953-.15.358.358 1.43 1.4 2.77 1.043 1.34-1.192 2.235-2.532 2.503-1.34.268-1.34-.656-1.251-1.162.09-.507.09-.804.06-1.251-.03-.447-.447-1.072-1.014-1.818-.565-.743-.565-1.429-.327-3.157.239-1.728.18-2.83.18-2.83s-.597.03-1.461 0c-.864-.03-1.579-.532-1.638-2.618-.06-2.085-.11-7.06-.249-7.576-.138-.516-.695-.615-.933-.674-.238-.06-.255-.418-.017-.537.62-.31 1.368-1.072 1.09-1.549-.278-.476-1.37-.377-2.105-.02-.735.357-1.51 1.132-1.709 1.35-.198.219-.357.219-.337-.019.02-.239-.139-1.37-.238-1.768-.1-.397-.457-1.15-.576-1.35-.12-.199 0-.278.198-.199.2.08.636.258 1.053.378.417.12.814-.08 1.013-.477.198-.397.575-1.25.775-1.628.198-.378.516-.298.774-.238s.496.218.734.317c.239.1.437.08.517-.04.08-.119.179-.158.318-.456.139-.298.317-.16.337-.04.712 4.271 2.562 4.468 2.562 4.468-.278.715-.933 1.848-1.092 2.125-.159.278-.219.655-.259.953-.04.298.1 3.117.299 4.15.198 1.033.833.637 1.032.318.199-.317.814-1.628.814-1.628s.16-.357.16-.655c0-.298-.517-.954-.637-1.153-.119-.197-.555-.594-.555-1.588 0-.992.893-1.688 1.21-1.946.319-.258.319-.615.279-.834-.14-.768-.954-2.383-1.35-2.999a296.117 296.117 0 0 0-1.172-1.787h1.609l1.032-2.145 1.132 2.155 1.172.01zm-.261 6.515a7.02 7.02 0 0 0 .749-1.769h-1.512s.242.924.763 1.769zm-1.579-4.375c.066.446.395.617.648.483.254-.134.201-.498.023-.781-.18-.283-.548-.6-.658-.551-.12.052-.05.595-.013.849zm3.011-.849c-.11-.048-.501.268-.68.55-.18.284-.23.648.023.782.252.134.571-.04.648-.483.044-.26.128-.797.01-.849zM26.64 34.876h29.016v-1.979H26.639zM26.64 31.88h29.016v-7.883H26.639z" mask="url(#g)"/>
        <path fill="#FFF000" d="M49.945 32.115v-1.346h-2.108V29.9h1.72v-3.813h-1.58l-.535-1.042-.536 1.042h-1.58v3.813h1.72v.868H42.92V29.9h1.719v-3.813h-1.579l-.536-1.042-.536 1.042h-1.579v3.813h1.72v.868h-4.21V29.9h1.72v-3.813h-1.58l-.535-1.042-.536 1.042h-1.58v3.813h1.72v.868l-3.328.009-3.316-.775.669 2.112z" mask="url(#g)"/>
        <path fill="#FFF000" d="M31.628 29.832l2.224.545 1.193-3.347v-.844zM36.995 3.685c-3.446.306-5.565 1.039-8.365 1.977.208-1.204.488-1.918.975-2.628-.04.623.469 1.287 1.481 1.287s1.575-.584 1.575-.935c0-.35-.213-.856-.757-.856-.545 0-.662.39-.624.545.04.156-.077.195-.233.234-.156.038-.584-.195-.428-.74.17-.599.896-.925 1.75-.925 0 0 2.038-.081 4.626 2.041M53.675 5.687c-2.8-.94-5.015-1.672-8.46-1.979 1.586-1.105 3.067-2.043 4.695-2.043.855 0 1.58.325 1.75.925.156.545-.272.778-.428.74-.156-.04-.272-.08-.233-.235.039-.155-.078-.544-.623-.544s-.758.506-.758.856.563.934 1.575.934 1.521-.664 1.481-1.286c.487.709.793 1.427 1 2.632M39.117 3.045c-.092.147-.174.258-.273.422.57-.03 1.883-.059 2.408-.059.526 0 1.976.07 2.295.094-.514-1.189-1.483-2.83-2.16-2.83-.132 0-.428-.069-.984.571 0 0-.086.282.267.228.448-.068.617.394.584.623-.078.535-.7 1.051-1.324 1.051-.622 0-.813-.1-.813-.1" mask="url(#g)"/>
        <path fill="#231916" d="M9.113 22.426l2.273-3.088c.132-.566.239-2.125-.486-3.227-.799-1.215-1.847-.736-2.151-.6-.194.086-.55.344-.768.693 0 0-2.18 2.41-4.593 4.782-.336.33-.714.953-.745 1.52-.028.511.173 1.02.472 1.34.656.7 1.805.663 2.393.219l.04 1.926c.606-.487 2.79-2.582 3.565-3.565" mask="url(#g)"/>
        <path fill="#FFF000" d="M41.136 17.926c12.948 0 20.322 12.159 21.923 14.294 2.86 3.813 6.355 6.905 10.406 5.878 5.958-1.509 5.64-10.336 5.64-10.336-1.43-1.033-3.881-2.334-8.34-8.658-4.37-6.196-14.26-15.388-29.63-15.388s-25.26 9.192-29.628 15.388c-4.46 6.324-6.91 7.625-8.34 8.658 0 0-.318 8.827 5.64 10.336 4.052 1.027 7.546-2.065 10.405-5.878 1.602-2.135 8.976-14.294 21.924-14.294" mask="url(#g)"/>
        <path fill="#231916" d="M41.136 18.224c-11.731 0-18.853 10.149-21.17 13.451-.205.292-.371.53-.516.723-1.45 1.932-3.062 3.684-4.833 4.826-1.804 1.164-3.767 1.7-5.883 1.163-6.193-1.569-5.866-10.607-5.866-10.633l.004-.145.121-.087c.163-.118.325-.23.501-.351 1.465-1.01 3.819-2.635 7.77-8.239 2.55-3.614 6.963-8.242 13.234-11.498 4.564-2.37 10.112-4.015 16.638-4.015 6.526 0 12.072 1.644 16.637 4.015 6.271 3.256 10.685 7.883 13.235 11.498 3.95 5.603 6.303 7.228 7.769 8.238.175.121.338.234.5.352l.122.087.003.145c.001.026.328 9.064-5.864 10.633-2.116.536-4.08.001-5.883-1.163-1.77-1.142-3.383-2.894-4.832-4.826-.146-.193-.313-.431-.518-.723-2.317-3.302-9.439-13.451-21.17-13.451m0-.596c12.04 0 19.296 10.34 21.656 13.705.214.304.389.553.506.709 1.41 1.88 2.974 3.582 4.679 4.682 1.671 1.078 3.481 1.576 5.418 1.086 5.289-1.34 5.426-8.76 5.416-9.894l-.37-.257c-1.5-1.035-3.908-2.697-7.918-8.384-2.509-3.557-6.851-8.109-13.02-11.313-4.489-2.33-9.945-3.948-16.366-3.948-6.422 0-11.879 1.617-16.366 3.948-6.17 3.204-10.512 7.756-13.02 11.313-4.011 5.689-6.42 7.35-7.919 8.385l-.37.256c-.01 1.133.128 8.553 5.417 9.894 1.937.49 3.747-.008 5.418-1.086 1.704-1.1 3.268-2.801 4.679-4.682.117-.156.291-.405.505-.709 2.36-3.364 9.617-13.705 21.656-13.705" mask="url(#g)"/>
        <path fill="#DF2410" d="M41.136 16.779c12.482 0 19.91 10.588 22.353 14.067.197.282.368.525.488.686 3.303 4.403 6.314 6.188 9.206 5.455 4.184-1.06 4.698-6.816 4.755-8.556l.002-.065-.052-.036c-1.472-1.015-3.935-2.714-8.06-8.565-2.466-3.496-11.82-14.901-28.692-14.901S14.91 16.269 12.444 19.765c-4.096 5.81-6.668 7.586-8.05 8.539l-.052.037.001.065c.06 1.746.58 7.525 4.745 8.58 2.893.734 5.904-1.05 9.206-5.454.12-.16.291-.404.489-.685 2.441-3.48 9.87-14.068 22.353-14.068" mask="url(#g)"/>
        <path fill="#FFF000" d="M14.28 21.656l-1.303 1.553 2.444 5.05-5.244-1.713-1.122 1.337 5.381 4.515.813-.968-3.799-3.2 5.096 1.655.535-.638-2.428-4.867 3.821 3.206 1.188-1.415zM18.244 17.41l-1.197 1.285 3.365 6.691.82-.88-.914-1.772 1.63-1.746 1.838.78 1.355-1.453-6.897-2.905zm2.84 3.189l-1.22 1.306-1.248-2.413 2.467 1.107zM26.46 11.052l2.634 4.213-5.867-2.193-1.31.82 3.722 5.957 1.421-.888-2.653-4.247 5.93 2.2 1.276-.799-3.722-5.956zM48.693 14.501l.738-2.144 2.068.712.31-.892-2.07-.711.63-1.833 2.125.733.304-.883-3.88-1.336-2.287 6.642 4.28 1.473.306-.891zM60.709 14.057l-.633.687 1.477 1.33-4.076 4.527 1.372 1.235 4.077-4.527 1.454 1.31.624-.694zM62.725 24.605l1.737-1.457 1.407 1.676.722-.607-1.405-1.676 1.483-1.245 1.445 1.723.715-.6-2.639-3.145-5.38 4.516 2.908 3.467.723-.606zM69.93 29.856c.014.014 1.086.546 2.273-.521.991-.894.658-2.119-.376-3.267l-1.915-2.125-5.22 4.7 1.236 1.372 2.074-1.867.61.679-1.32 2.958 1.568 1.262 1.07-3.191zm.935-3.462c.489.544.492 1.191-.069 1.695-.559.504-1.263.395-1.8-.201l-.316-.351 1.774-1.598.41.455zM43.509 7.558l-.05 2.87-2.76-.048.051-2.87-1.846-.032-.122 7.023 1.845.033.057-3.212 2.76.049-.057 3.21 1.846.033.123-7.024zM53.509 17.998c1.31.787 2.741.66 3.406-.449.49-.774.495-1.414-.088-2.56-.157-.332-.35-.566-.481-.86-.256-.486-.495-.88-.269-1.255.242-.401.806-.43 1.32-.121.543.325.765.864.873 1.238l.851-.369c-.261-.692-.647-1.316-1.52-1.84-1.502-.903-2.726-.665-3.235.183-.514.855-.368 1.561.014 2.29 0 0 .246.422.39.698.334.569.727 1.28.454 1.734-.335.559-.921.683-1.484.333-.722-.458-.89-.988-1.043-1.507l-.931.403c.206.706.687 1.447 1.743 2.082M34.36 7.926c-2.3.49-3.807 2.178-3.31 4.466.283 1.235 1.39 3.518 4.88 2.776.965-.185 1.493-.576 2.003-1.058l-.643-.734c-.234.268-.597.656-1.4.826-1.685.358-2.692-1.013-2.943-2.193-.37-1.745.646-2.956 1.807-3.202.813-.173 1.314.042 1.632.17l.01-.001.214-.896c-.556-.223-1.22-.372-2.25-.154M71.599 19.608c-.097-.416-.234-2.195.441-3.134.625-.866 1.193-.573 1.498-.437.137.06.55.328.63.854.044.282-.045.7-.263 1.008-.428.555-1.4.923-1.4.923s1.246 2.441 3.887 4.866l-.01 1.647c-3.615-3.487-4.783-5.727-4.783-5.727" mask="url(#g)"/>
        <path fill="#FFF000" d="M73.412 19.104c.358.616 1.265 2.124 3.537 4.253.377.354 1.317.648 1.848.052.203-.229.334-.556.313-.937-.024-.436-.293-.947-.551-1.169-.454-.389-2.407-2.362-3.807-3.911-.031.282-.279.755-.279.755-.187.264-.423.646-1.061.957M6.064 25.236l-.01-1.556c2.643-2.424 3.89-4.858 3.89-4.858s-.971-.368-1.4-.924c-.218-.306-.307-.725-.263-1.007a1.17 1.17 0 0 1 .63-.854c.305-.136.873-.429 1.497.437.676.939.498 2.706.403 3.123 0 0-1.232 2.144-4.747 5.64" mask="url(#g)"/>
        <path fill="#FFF000" d="M8.992 19.104c-.357.616-1.264 2.124-3.537 4.253-.377.354-1.317.648-1.847.052a1.29 1.29 0 0 1-.314-.937c.024-.436.293-.947.552-1.169.454-.389 2.407-2.362 3.807-3.911.031.282.278.755.278.755.187.264.423.646 1.061.957" mask="url(#g)"/>
        <path fill="#DF2410" d="M1.652 45.411a5.852 5.852 0 1 1 11.704 0 5.852 5.852 0 0 1-11.704 0" mask="url(#g)"/>
        <path fill="#FFF000" d="M8.98 50.497c-.304.099-.444-.117-.585-.279-.543-.62-.684-2.293-.684-2.515 0-.221.08-.463.235-.467 1.322-.033 2.262-.42 3.125-1.128.861-.709 1.235-1.51 1.314-1.666.078-.157.247-.13.289.097.033.185.102.52.102.876 0 2.404-1.62 4.378-3.797 5.082m-1.39.216c-.037-.002-.075 0-.112 0-.977 0-2.043-.37-2.676-.723-.653-.365-.898-2.038-.898-2.894 0-2.76 1.137-4.42 1.319-4.741.181-.322.584-.363.887-.283.301.081.419.142.765.247.188.058.564.136.846.197.282.061.583.121.403.645-.182.524-.789 1.791-.855 3.29-.062 1.354.12 2.704.427 3.53.2.539.196.742-.105.732M3.58 44.396c-.261-.144-.572-.808-.673-1.006-.072-.143-.068-.539.03-.713.43-.762 1.045-1.456 1.84-1.825.092-.041.233-.045.233.18 0 .126.062.324.064.446.003.12.057.38-.104.582-.161.2-.874 1.45-1.048 2.155-.04.16-.081.325-.342.18m-.14 4.438c-.737-.728-1.264-2.037-1.264-3.418 0-.536.08-1.051.227-1.539 0 0 .124-.222.245-.033.086.135.202.274.307.458.106.184.678.62.625.962-.202 1.294-.02 3.02.04 3.303.06.283-.028.418-.18.267m2.314-8.431a5.454 5.454 0 0 1 1.722-.286c.914 0 1.784.17 2.525.64.188.118.244.269.244.48 0 .69-1.085.923-1.808.923-.722 0-1.608-.287-2.236-.483-.628-.196-.768-.563-.768-.724 0-.162.12-.484.32-.55m4.897.771c.102.08.355.289.355.289.507.453.964.985 1.229 1.619.335.8-.697 2-.999 2.282-1.365 1.273-2.214 1.253-2.7 1.323-.488.069-.796-.233-.785-.597.031-1.076.793-2.907 1.007-3.244.14-.221.383-.362.383-.362.503-.141.992-.358 1.245-.645.253-.286.265-.665.265-.665" mask="url(#g)"/>
        <path fill="#DF2410" d="M80.849 45.411a5.852 5.852 0 1 0-11.704 0 5.852 5.852 0 0 0 11.704 0" mask="url(#g)"/>
        <path fill="#FFF000" d="M69.725 45.415c0-.357.068-.69.103-.875.04-.227.209-.255.288-.098.079.156.452.957 1.314 1.666.862.709 1.802 1.095 3.125 1.128.153.004.234.245.234.467 0 .222-.14 1.894-.684 2.515-.14.162-.28.378-.584.279-2.176-.705-3.796-2.678-3.796-5.082m5.08 4.567c.307-.826.488-2.177.428-3.531-.067-1.499-.674-2.766-.855-3.29-.181-.524.121-.584.403-.645.281-.061.657-.14.846-.198.345-.103.463-.165.765-.246.302-.08.705-.04.887.282.181.323 1.318 1.982 1.318 4.742 0 .856-.245 2.528-.899 2.894-.632.354-1.698.724-2.675.724-.037 0-.074-.003-.112-.001-.302.01-.306-.194-.106-.73m3.772-5.768c-.173-.705-.886-1.955-1.047-2.155-.162-.202-.108-.462-.105-.582.003-.123.065-.32.065-.446 0-.225.14-.221.23-.18.797.369 1.412 1.063 1.842 1.825.099.175.103.57.03.713-.1.198-.411.862-.673 1.006-.26.145-.302-.02-.342-.18m.302 4.35c.06-.282.242-2.01.04-3.303-.052-.343.52-.778.626-.962.105-.185.22-.322.307-.458.12-.19.244.033.244.033.148.488.227 1.003.227 1.539 0 1.38-.526 2.69-1.263 3.418-.153.151-.242.015-.18-.267m-1.814-7.615c0 .162-.14.53-.767.725-.628.196-1.515.483-2.236.483-.724 0-1.81-.234-1.81-.922 0-.213.058-.363.245-.481.74-.47 1.612-.64 2.525-.64.604 0 1.181.106 1.723.286.2.066.32.388.32.55m-4.95.886c.251.287.74.504 1.243.645 0 0 .243.14.383.362.214.337.976 2.168 1.008 3.244.01.365-.297.666-.785.597-.487-.07-1.336-.05-2.7-1.323-.302-.281-1.334-1.482-1-2.282.265-.634.722-1.166 1.23-1.619 0 0 .253-.208.354-.288 0 0 .012.378.266.664" mask="url(#g)"/>
        <path fill="#FFE900" d="M69.23 45.38c0 1.608.651 3.064 1.705 4.117a5.806 5.806 0 0 0 4.117 1.706 5.801 5.801 0 0 0 4.117-1.706 5.807 5.807 0 0 0 1.705-4.116 5.806 5.806 0 0 0-1.705-4.117 5.806 5.806 0 0 0-4.117-1.705 5.804 5.804 0 0 0-4.117 1.705 5.802 5.802 0 0 0-1.705 4.117m-.06 0c0-1.625.659-3.095 1.723-4.16a5.863 5.863 0 0 1 4.16-1.722c1.623 0 3.094.658 4.158 1.723a5.864 5.864 0 0 1 1.723 4.159 5.866 5.866 0 0 1-1.723 4.159 5.86 5.86 0 0 1-4.159 1.722 5.863 5.863 0 0 1-4.159-1.722 5.865 5.865 0 0 1-1.723-4.16" mask="url(#g)"/>
    </g>
</svg>
