<svg xmlns="http://www.w3.org/2000/svg" xmlns:xlink="http://www.w3.org/1999/xlink" width="94" height="94" viewBox="0 0 94 94">
    <defs>
        <filter id="a" width="132.1%" height="131.8%" x="-16.1%" y="-15.9%" filterUnits="objectBoundingBox">
            <feOffset dx="2" dy="2" in="SourceAlpha" result="shadowOffsetOuter1"/>
            <feGaussianBlur in="shadowOffsetOuter1" result="shadowBlurOuter1" stdDeviation="2.5"/>
            <feColorMatrix in="shadowBlurOuter1" result="shadowMatrixOuter1" values="0 0 0 0 0 0 0 0 0 0 0 0 0 0 0 0 0 0 0.2 0"/>
            <feMerge>
                <feMergeNode in="shadowMatrixOuter1"/>
                <feMergeNode in="SourceGraphic"/>
            </feMerge>
        </filter>
        <path id="b" d="M0 .176h83.71v83.73H0z"/>
    </defs>
    <g fill="none" fill-rule="evenodd" filter="url(#a)" transform="translate(3 3)">
        <path fill="#FFF" d="M73.343 42.086c0 17.39-14.097 31.487-31.488 31.487-17.39 0-31.487-14.097-31.487-31.487S24.465 10.6 41.855 10.6s31.488 14.097 31.488 31.487"/>
        <g transform="translate(0 .042)">
            <mask id="c" fill="#fff">
                <use xlink:href="#b"/>
            </mask>
            <path fill="#BB8A1A" d="M56.533 74.345c.392.044.782.091 1.172.148-.13 1-.623 2.088-1.658 2.415-.802.216-1.818.242-2.424-.42.848.296 1.85.577 2.677.062.69-.374 1.013-1.126 1.163-1.86a36.014 36.014 0 0 0-.682-.062c-.172.262-.344.521-.52.78.082-.357.174-.71.272-1.063m-36.69-1.48c.562-.04 1.129-.057 1.69.009-.554.13-1.132.048-1.69-.009m8.933-.835l.366-.008c.807.3 1.602.634 2.433.867.218.07.433.142.651.214-.017.4-.074.8-.274 1.155-.318-.05-.637-.111-.957-.098-.347.296-.425.782-.588 1.19-.223.752-.473 1.495-.82 2.2-.453-.123-1.12-.077-1.384-.503.007-.771.325-1.53.678-2.205.12-.179.24-.355.362-.53-.31.874-.615 1.75-.903 2.63l1.099.439c.49-1.181.885-2.4 1.336-3.594.36.074.719.144 1.079.216.045-.238.093-.473.14-.708a32.34 32.34 0 0 0-3-1.049l-.34.534c.312.212.628.42.93.647l-.09.262c-.345-.222-.692-.438-1.04-.652.109-.335.216-.67.322-1.007m-4.201-1.56c1.211-.24 2.763.041 3.245 1.332.226.719.204 1.488-.016 2.205-.074.312-.36.506-.558.739.504-.974.907-2.251.168-3.219-.584-.891-1.721-.955-2.678-1.044l-.161-.013m32.33.375c.646 1.45 1.502 2.805 2.36 4.136.833-.418 1.63-.9 2.426-1.381-.12-.244-.242-.489-.366-.728-.455.244-.893.527-1.377.719-.255-.068-.314-.382-.462-.565-.506-.893-1.005-1.791-1.547-2.665-.345.157-.69.32-1.034.484m-.089.468c-.399-.762.691-.978 1.15-1.307.713.976 1.165 2.116 1.89 3.08.558.198 1.06-.33 1.567-.504.175.353.606.76.388 1.177-.826.627-1.77 1.08-2.685 1.564-.728-1.362-1.595-2.643-2.31-4.01m-35.82-2.38c-.706.144-1.105.868-1.364 1.48-.212.5.311 1.101.847.916.63-.231 1.103-.804 1.334-1.423.227-.497-.283-1.118-.817-.972m-.194-.212a.98.98 0 0 1 1.131.447c.349 1.164-.765 2.589-1.985 2.406-1.123-.763-.157-2.456.854-2.853m-.968-1.294a17.03 17.03 0 0 1 1.98 0 8.257 8.257 0 0 1-1.98 0m45.704-3.008c-.697.547-1.275 1.227-1.898 1.855 1.024 1.187 2.186 2.251 3.306 3.345.8-.852 2.236-1.593 2.029-2.949-.055-.627-.765-.78-1.184-1.111-.313-.344-.49-.796-.843-1.103-.399-.298-1.018-.388-1.41-.037m.022-.329c.4.03.802.02 1.205.024.665.183.835.968 1.366 1.334.356.285.824.488 1.016.928.172.536.166 1.197-.253 1.622-.6.7-1.281 1.327-1.974 1.933-.896-.813-1.72-1.7-2.594-2.537-.357-.377-.712-.756-1.072-1.131.78-.71 1.471-1.52 2.306-2.173m-50.3 2.594c.588-1.044 1.55-1.798 2.406-2.611.843.68 1.56 1.495 2.343 2.24-.231.275-.469.545-.71.81-.537-.295-1.023-.871-1.692-.749.299.488.63.953.961 1.42-.292.219-.59.428-.904.614-.338-.258-.61-.694-1.044-.772-.545.39-.944.98-1.591 1.22l.118-.135c.47-.53.985-1.018 1.49-1.514.417.353.83.706 1.253 1.052l.38-.638c-.33-.35-.656-.7-.983-1.05l.708-.713c.384.355.77.706 1.16 1.052.167-.168.337-.335.507-.501a11.8 11.8 0 0 0-1.994-1.99c-.824.73-1.584 1.532-2.408 2.265M36.058 1.63c-9.69 1.373-18.813 6.368-25.163 13.813-4.57 5.342-7.78 11.856-9.097 18.771-.828 3.784-.658 7.684-.567 11.53.556 6.951 3.06 13.712 7.011 19.448 6.676 9.815 17.858 16.445 29.696 17.467 1.957.107 3.919.08 5.876.068 2.827.004 5.631-.475 8.36-1.181 5.64-1.454 10.943-4.165 15.454-7.846 8.486-6.86 14.077-17.27 14.872-28.173.041-3.576.248-7.2-.477-10.727a39.94 39.94 0 0 0-7.556-17.295c-4.073-5.499-9.626-9.862-15.844-12.69-4.984-2.213-10.424-3.553-15.897-3.462-2.225.007-4.463-.052-6.668.277M37.6.366c5.971-.538 12.069.042 17.748 2.016C62.971 4.95 69.78 9.81 74.75 16.123c4.917 6.2 7.996 13.826 8.776 21.7.356 4.259.225 8.582-.666 12.771a41.717 41.717 0 0 1-7.534 16.637c-3.819 5.068-8.792 9.263-14.445 12.142-5.863 2.992-12.44 4.598-19.026 4.53-6.913.07-13.815-1.708-19.891-4.988-7.053-3.803-12.968-9.68-16.827-16.703A41.888 41.888 0 0 1 .2 46.447C-.32 40.66.14 34.739 1.985 29.21c2.518-7.933 7.517-15.035 14.07-20.157C22.221 4.191 29.792 1.16 37.601.366" mask="url(#c)"/>
        </g>
        <path fill="#00318A" d="M28.343 33.136l.008.695c.6.002 1.195-.104 1.755-.327-.495-.396-1.149-.662-1.763-.368m.03-1.63c-.444.13-.25.665-.322 1.005.771.259 1.639.024 2.303-.406-.612-.322-1.277-.608-1.98-.599m-.234-1.626c-.026.369-.048.737-.059 1.107a7.96 7.96 0 0 0 2.251-.028c-.564-.604-1.275-1.358-2.192-1.079m20.632-5.843c-.072.473.19.802.663.855.12-.305.24-.608.357-.914-.34.018-.68.037-1.02.06m-1.811.407c.519.632 1.46 1.327 2.29.876-.42-.344-.84-.713-1.002-1.253-.442.059-1.181-.246-1.288.377m-17.5-1.406c-.2.277-.427.539-.58.846-.179.464.14.902.305 1.316.551.427 1.072.922 1.21 1.639 1.174-.567 2.083-2.068 1.48-3.339-.456-.889-1.653-1.046-2.415-.462m15.9-3.526c.454.542.643 1.28 1.219 1.728 1.305 1.266 3.225 1.351 4.925 1.593.355.724 1.035 1.168 1.643 1.661-.43 1.092-1.233 1.963-1.887 2.918-.39-.253-.77-.843-1.29-.595-.72.345-1.114 1.19-.948 1.968.473.041.948.052 1.42.022-.008.36-.021.717-.017 1.076.022.443.076.88.129 1.321-.717-.418-1.552-1.107-2.424-.708-.967.492-.932 1.809-.67 2.71.15.679.72 1.123 1.324 1.394.654-.026 1.166-.434 1.643-.835.146.364.29.728.423 1.098-.01.67-.028 1.441-.566 1.925-.672.723-1.718.715-2.624.767-.199 1.277.762 2.258.915 3.47.35 2.155.662 4.38 1.763 6.307.595 1.262 1.754 2.266 3.145 2.525 1.063.218 2.31-.095 2.953-1.022.595-.9.588-2.085.266-3.083-.652-1.87-2.384-3.069-3.2-4.845-.477-1.042-.444-2.34.225-3.293.904-1.334 2.28-2.228 3.432-3.324.571-.555 1.12-1.223 1.232-2.038.141-1.4-1.345-2.733-2.727-2.316-.723.176-1.041.906-1.368 1.497-.138.229-.28.458-.42.682 0-.645.012-1.294.136-1.928.205-.31.428-.607.678-.883 1.641-1.413 4.51-1.066 5.704.776.446 1.13.449 2.469-.21 3.522-1.076 1.752-2.99 2.687-4.463 4.044-.482.43-.8.998-1.072 1.574 1.026-.739 2.175-1.432 3.496-1.345 1.02.116 1.89.76 2.471 1.583.564 1.283.144 2.774-.913 3.659l-.164.167c.135-.843.447-1.845-.19-2.565-.727-1.091-2.497-1.155-3.305-.13-.421.466-.421 1.129-.414 1.717 1.006 1.412 2.382 2.652 2.79 4.407.446 1.44-.105 3.197-1.478 3.92-1.628.874-3.605.528-5.25-.122l-.489-.276c-.46-.295-.92-.589-1.399-.855.22 1.343.918 2.629 2.07 3.385 1.086.754 2.468.71 3.705.444-.32.412-.66.81-.948 1.25-1.56 2.161-1.475 4.94-1.316 7.472.085.721-.632.942-1.196 1.048-.513.046-.67.582-.914.944l-.133-.146-.104-.117c-.1-.277-.19-.558-.28-.837l-.598-.062c-.678-.045-.988.565-1.247 1.08l-.455.363c-.031-.536-.057-1.07-.081-1.604-.419.03-.84.063-1.253.129-.37.041-.702.218-1.014.41-.172.396-.303.81-.462 1.216l-.276-.432c.004-1.033-.639-2.434.418-3.153 1.227-.794 2.763-.5 4.143-.641.662-1.11 1.253-2.34 1.218-3.661-.032-.746-.26-1.561-.867-2.043-.698-.274-1.497-.124-2.193-.416-.616-.438-.717-1.299-1.266-1.791-.536-.19-1.118-.17-1.678-.175-1.39.175-2.925.826-3.544 2.164-.379.868.373 1.692 1.136 2.001.377.168.767.301 1.153.447-.177.08-.358.157-.536.233-.717.3-1.51.562-2.005 1.199-.807 1.02-.796 2.423-1.5 3.498-.47.67-1.408.453-2.081.743-.39.383-.423.985-.626 1.473-.135-.53-.268-1.061-.396-1.591-.45-.009-.896-.02-1.343-.004-.542.313-.96.798-1.122 1.41-.042.113-.127.338-.168.451l-.235-.375c.017-.508.065-1.013.115-1.517-.556.007-1.111.007-1.665.048-.118.074-.355.222-.475.299-.469.211-.22 1.174-.815 1.063l-.035-.146c-.063-.874-.2-1.743-.242-2.62a1.076 1.076 0 0 1 .678-1.09c1.645-.625 3.552.352 5.121-.559 1.663-1.003 2.07-3.077 2.472-4.827-.647-.47-1.626-.87-1.62-1.811-.1-.744.238-1.471.814-1.936 1.959-1.737 4.637-2.247 6.786-3.676.71-.458 1.325-1.288 1.064-2.173-.173-.848-.985-1.264-1.7-1.582.063.625.235 1.26.122 1.889-.48.689-1.439.643-2.162.905-.155-.232-.312-.462-.464-.694-.367-.56-.672-1.152-.99-1.739-1.323 1.637-2.933 3.198-5.056 3.677-.436-.329-.835-.75-1.369-.915-1.46-.214-3.18.808-3.144 2.416-.131.036-.39.1-.521.136l-.009-.188a47.252 47.252 0 0 0-.118-1.571c-.527.16-1.04.368-1.538.602.063-.506.144-1.01.23-1.511-.291.068-.583.137-.871.223-.155.082-.462.248-.615.33.116-.588.36-1.137.663-1.651-.42.04-.841.067-1.249.18l-.281.1c.129-.862.93-1.416 1.702-1.675 1.552-.37 3.265.087 4.723-.697 1.174-.633 2.299-1.358 3.47-2.001 1.396-.828 2.86-1.543 4.18-2.498-.927-.067-1.862-.137-2.749-.43-.18-.328-.368-.653-.558-.975-.444.494-.891 1.017-1.504 1.307-.627.32-1.35.305-2.037.327-.393-.285-.77-.586-1.118-.922.6-.183 1.663.053 1.798-.775.22-.722-.447-1.223-1.018-1.482-.976-.386-2.003-.615-3.023-.848-.002 2.571-.017 5.143.015 7.715-.246.039-.492.078-.736.113-.166-2.661.002-5.33-.074-7.996-.312-.033-.626-.063-.935-.1-.393-.053-.84-.107-1.11-.427-.226-.478-.368-.988-.566-1.476-.288-.545.346-1.068.13-1.62-.071-.372-.206-.79.033-1.132.27-.54.944-.62 1.482-.574.334.007.667.02 1 .03l.003-.62c-.334-.02-.667-.037-.998-.06a6.791 6.791 0 0 1-1.434-.232c.283-.197.592-.347.91-.476-.224-.167-.45-.33-.66-.516-.732-1.01-1.218-2.258-1.018-3.522.112-1.168.92-2.088 1.703-2.894 1.689-.902 3.82.041 4.74 1.613.752 1.704.305 3.87-1.184 5.027-.455.423-1.188.602-1.392 1.245.074.355.072.754.28 1.066.506.366 1.134.499 1.718.697.804.318 1.648.6 2.371 1.085.84.759 1.726 1.49 2.384 2.422.454.638.45 1.456.576 2.2.998-.171 1.589-1.135 1.66-2.085.003-.532-.298-1.11.044-1.593.667-1.225 1.473-2.439 1.626-3.86-1.033-.472-2.256-.963-2.594-2.172l-.08-.188c.473.26.885.654 1.419.785.464.056.913-.122 1.346-.266 1.28-.308 2.123-1.866 1.458-3.056-.372-.773-1.34-.597-2.042-.62.582-.9 1.72-1.02 2.696-1.008.401-.006.804-.015 1.208-.024.01-.915.178-1.826.58-2.654m-3.675 54.855c-.017.736-.105 1.506.19 2.205.006.447.021.896.052 1.343-.32.573-.127 1.26-.059 1.872 1.17.115 2.343-.042 3.502-.207.029-.45.035-.896.022-1.343a77.208 77.208 0 0 0-1.724-.065c-.02-1.273.087-2.552-.096-3.816a4.993 4.993 0 0 0-1.887.01m3.735-.147c-.294.549-.015 1.17.061 1.74.258 1.067.1 2.24.685 3.215l.015.214.124.163c.857.173 1.75-.156 2.541-.48.23-.045.456-.1.682-.16-.058-.432-.122-.861-.193-1.29-.49-.11-.992-.107-1.489-.1-.126-.635-.185-1.28-.246-1.92-.074-.282.01-.774-.384-.825a84.367 84.367 0 0 1-.094-.743c-.549-.279-1.198-.113-1.702.186m-6.335-.343c-.636 1.155-1.168 2.363-1.783 3.529-.314.62-.702 1.229-.784 1.935.054.427 1.033.423 1.03-.028.273-.334.541-.671.813-1.005.674.07.815.808 1.062 1.314.514.05 1.028.083 1.547.105-.22-1.081-.623-2.112-.93-3.17-.286-.903-.476-1.85-.955-2.68m-6.218-.525l.17.044c-.135.442-.26.889-.346 1.342-.369.473-.536 1.046-.384 1.639-.2.68-.407 1.369-.399 2.088-.037.372.613.466.772.166.28.109.575.194.874.248.418.508 1.323.445 1.791.035.715-.595.835-1.53.689-2.4.022-.07.063-.209.085-.276l.333-.14c.345-.82-.03-1.898-.909-2.186-.769-.569-1.752-.656-2.676-.56m-13.026-.445c.558.057 1.136.14 1.69.01-.561-.066-1.128-.049-1.69-.01m32.396 1.214c-.026.757.277 1.565.931 1.99.142.148.292.288.453.418.606.663 1.622.637 2.424.421 1.035-.327 1.528-1.414 1.658-2.414-.39-.057-.78-.105-1.172-.149-.098.353-.19.706-.273 1.064l-.209.307c-.381-.115-.774-.198-1.142-.347-.444-.365-.566-.965-.767-1.475.21-.28.403-.58.67-.808.479.006.943.143 1.405.259.292-.351.523-.747.562-1.21-.582-.28-1.188-.592-1.85-.542-1.319.096-2.496 1.179-2.69 2.486m4.577-2.765c.715 1.366 1.582 2.648 2.31 4.01.916-.484 1.86-.937 2.685-1.565.218-.416-.213-.824-.388-1.177-.507.174-1.009.702-1.567.504-.725-.964-1.177-2.103-1.89-3.08-.459.33-1.549.545-1.15 1.308M19.834 67.47c.656.08 1.321.078 1.98 0a17.03 17.03 0 0 0-1.98 0m-4.574-.743c-.366.34-.706.706-1.044 1.074.307.323.619.643.93.963l-.117.136c.647-.24 1.046-.83 1.59-1.22.435.078.707.513 1.045.77l-.116.068.595.366c-.198.785-.49 1.643-.041 2.402l.098-.231c.562 1.412 2.402 2.136 3.727 1.353l.62.096c.038.859.145 1.837.973 2.313.97 1.004 2.791 1.044 3.726-.029.199-.233.484-.427.558-.739.284-.388.674-.697 1.142-.398-.037.41-.06.821-.065 1.233-.353.676-.671 1.434-.678 2.206.264.425.93.379 1.384.503.347-.706.597-1.45.82-2.2a3.077 3.077 0 0 1 1.675-1.071l-.13-.022c.2-.355.257-.754.274-1.155-.218-.072-.433-.144-.651-.213-.543-.744-1.576-.879-2.433-.868l-.366.009a9.345 9.345 0 0 1-.956-.23c-.482-1.29-2.034-1.57-3.245-1.33-.33 0-.632.163-.938.265-.013-.614-.028-1.249-.322-1.804-.035.093-.105.283-.137.379-.323-.684-.792-1.369-1.57-1.563-.682-.148-1.492-.213-2.1.205l-.813-.176c.2-.218.4-.436.603-.652.242-.266.48-.536.71-.81-.782-.746-1.499-1.561-2.342-2.241-.857.813-1.818 1.567-2.406 2.61m50.3-2.593c-.835.654-1.526 1.463-2.306 2.173-.198.183-.394.369-.588.558-.258.26-.521.512-.785.765.455 1.234 1.935 1.981 1.911 3.378-.137-.017-.414-.05-.553-.065-.79-.81-1.365-1.803-2.073-2.68-.534.189-.967.559-1.397.917.645.972 1.284 1.98 2.169 2.754.039.074.12.218.16.292.964.698 2.682.406 3.026-.858.466-.087.47-1.168.01-1.269-.069-.337-.265-.627-.468-.896-.172-.573-.453-1.15-.34-1.765.874.837 1.698 1.724 2.594 2.537.693-.606 1.375-1.234 1.974-1.933.419-.425.425-1.085.253-1.621-.192-.44-.66-.643-1.016-.929-.531-.366-.701-1.15-1.366-1.334-.052-.48-1.125-.477-1.205-.024m8.336-17.245c-.392.179-.43.654-.562 1.011-.5.12-1.214.146-1.358.757-.179.808-.414 1.603-.615 2.408-.096.564.4.933.783 1.246-.03.451-.188 1.007.196 1.36.405.336.902.53 1.327.837.456.292.907.759 1.502.656.29-.107.514-.329.758-.512.456.283 1.064.595 1.558.202a48.766 48.766 0 0 1 1.798-1.481c.51-.4.262-1.086.146-1.609.417-.311.865-.81.604-1.369-.33-.73-.593-1.486-.891-2.229-.255-.553-.911-.512-1.421-.508-.166-.39-.316-.922-.8-1.006-.58-.066-1.155.098-1.733.093-.431.026-.895-.067-1.292.144m-67.419.782c-.516-.021-1.207-.05-1.436.53-.27.745-.552 1.486-.876 2.212-.253.551.222 1.014.59 1.358-.067.386-.207.776-.128 1.172.137.414.555.615.871.876.476.327.855.774 1.332 1.099.477.26.985-.037 1.447-.181.416.266.94.627 1.434.314.665-.43 1.325-.866 2.012-1.262.54-.33.386-1.027.344-1.552.408-.263.915-.634.785-1.196-.214-.802-.445-1.598-.624-2.406-.152-.556-.808-.617-1.275-.735-.187-.47-.392-1.1-1-1.124-.848-.013-1.689-.116-2.534-.146-.56.004-.741.627-.942 1.041m67.702-18.38c-1.752.49-3.073 2.25-2.91 4.088-.017 2.306 2.293 4.221 4.553 3.868 2.095-.19 3.795-2.214 3.568-4.317-.044-2.53-2.827-4.426-5.21-3.64m-66.908.005c-1.813.516-3.085 2.423-2.878 4.295.135 1.517 1.196 2.897 2.621 3.429 1.532.599 3.402.137 4.485-1.099 1.282-1.37 1.367-3.646.247-5.139-.977-1.377-2.87-1.974-4.475-1.486m33.774-16.37c-4.777.077-9.515 1.435-13.662 3.8-6.046 3.44-10.793 9.109-13.08 15.684-1.502 4.198-1.927 8.74-1.437 13.16.726 6.18 3.496 12.114 7.81 16.604 4.51 4.838 10.752 7.994 17.3 8.85 5.05.64 10.279.037 14.99-1.92 5.97-2.443 11.058-6.943 14.26-12.538 3.98-6.878 4.888-15.412 2.565-22.996-1.97-6.612-6.436-12.41-12.244-16.112a28.876 28.876 0 0 0-16.502-4.531m24.07.551c-1.96 1.07-3.998 1.996-5.924 3.125.412.462.793 1.046 1.41 1.243.379-.094.717-.297 1.068-.46.368.072.81.028 1.1.31.37.324.231.866.264 1.3-.066.297-.397.654-.124.935.549.654 1.196 1.234 1.937 1.665.645-1.942 1.297-3.88 1.914-5.83.37-1.205.887-2.37 1.111-3.62-.98.305-1.852.857-2.757 1.332m-47.427-1.855c-2.088.713-3.446 3.189-2.74 5.318.432 1.232 1.284 2.338 2.415 3.003 2.338 1.275 5.834-.037 6.331-2.776l.242.046c.05-.737.425-1.84-.244-2.343-.042-.1-.124-.306-.168-.406-.636.072-1.27.19-1.879.395.138 1.05.153 2.366-.976 2.885-.253-.25-.763-.229-1.007.024-.813-.32-1.521-.9-1.93-1.678-.413-.686-.369-1.67.267-2.212.713.002 1.428-.06 2.117-.25l.263.036c.135-.712.28-1.431.236-2.16-.97-.097-1.981-.191-2.927.118m38.777-4.186c-1.011 2.127-2.173 4.182-3.14 6.329 1.551.959 3.208 1.748 4.873 2.482.357-.558.656-1.153.832-1.792-.592-.311-1.198-.599-1.793-.902.013-.344.035-.686.06-1.028.476.1.953.2 1.43.292.266.14.532.276.802.411.41-.55.73-1.167.885-1.841a38.614 38.614 0 0 0-1.647-.876c-.024-.229-.046-.46-.066-.69l1.297.16c.327.17.656.332.992.486.374-.573.721-1.172.889-1.843-1.524-.765-3.02-1.587-4.57-2.29-.465.138-.6.727-.844 1.102m-30.517-.83c.22.754.61 1.438.965 2.133-.148.253-.166.63-.445.778-.261.03-.525.009-.786-.002-.37-.746-.678-1.521-1.07-2.256-.866.334-1.76.647-2.494 1.234.689 1.528 1.42 3.036 2.145 4.546.482.996.872 2.04 1.475 2.973.872-.255 1.687-.67 2.454-1.147-.274-.751-.658-1.451-1.015-2.162.035-.278.072-.555.11-.834.302-.135.605-.275.9-.419.45.911.827 1.86 1.306 2.757.905-.202 1.713-.673 2.511-1.125-1.085-2.571-2.386-5.045-3.546-7.584-.913.173-1.708.667-2.51 1.108M49.09 4.632c-1.196.534-1.56 2.073-1.13 3.226.38.847 1.204 1.344 1.85 1.97a2.24 2.24 0 0 1-.774 1.05 37.32 37.32 0 0 1-.682-1.355 6.069 6.069 0 0 0-1.761.54c.152.543.314 1.103.68 1.545.876 1.149 2.556 1.456 3.87.983 1.103-.392 1.811-1.604 1.659-2.754a3.151 3.151 0 0 0-.998-1.711c.58-.153 1.152-.345 1.684-.626.45-2.295-2.495-3.942-4.398-2.868m-17.234-.331c-.055.553.015 1.107.14 1.645.472 2.245.827 4.516 1.388 6.743 1.802-.24 3.604-.577 5.356-1.065a13.958 13.958 0 0 0-.374-1.868c-.262.02-.523.056-.78.109-.604-.018-1.206-.03-1.81-.068.038-.215.072-.431.11-.645.322-.122.666-.23.908-.49.375-.072.75-.13 1.127-.19a4.725 4.725 0 0 0-.39-2.042c-.355.072-.71.148-1.066.224-.514-.028-1.042-.058-1.508-.296.39-.25.826-.43 1.183-.73a7.677 7.677 0 0 0 1.264-.329c-.2-.597-.093-1.432-.577-1.86-1.667.215-3.293.696-4.971.862m8.116-1.15c0 2.858-.007 5.716.002 8.575 1.922.111 3.855.146 5.777.007a6.069 6.069 0 0 0 .005-2.313 27.98 27.98 0 0 0-2.498-.128c-.183-2.045.077-4.102-.144-6.144a60.431 60.431 0 0 0-3.142.002m-3.914-1.477c2.205-.33 4.443-.27 6.668-.277 5.473-.092 10.913 1.249 15.897 3.46 6.218 2.83 11.77 7.192 15.844 12.691a39.938 39.938 0 0 1 7.556 17.295c.725 3.527.518 7.151.477 10.728-.795 10.903-6.386 21.312-14.872 28.172-4.511 3.681-9.814 6.392-15.454 7.846-2.729.706-5.533 1.186-8.36 1.181-1.957.012-3.919.04-5.876-.067C26.1 81.679 14.918 75.05 8.242 65.234c-3.95-5.736-6.455-12.497-7.01-19.449-.092-3.844-.262-7.745.566-11.529 1.316-6.915 4.526-13.429 9.097-18.77 6.35-7.445 15.473-12.44 25.163-13.813"/>
        <path fill="#2B2F36" d="M34.177 74.642c.399.029.96.266.845.759.044.52-.63.362-.952.451.03-.406.068-.809.107-1.21m7.51-.274a4.998 4.998 0 0 1 1.887-.011c.183 1.264.077 2.543.096 3.816.576.015 1.149.037 1.724.065.013.447.007.894-.022 1.343-1.16.165-2.332.322-3.502.207-.068-.613-.262-1.3.059-1.872l.198-.103c.007.506.013 1.011.037 1.517.153.621.998.27 1.419.135.477-.017.952-.033 1.432-.028l.255.01c-.026-.355-.05-.707-.072-1.058a147.54 147.54 0 0 0-1.698-.02c-.013-1.281-.013-2.567-.17-3.842a34.925 34.925 0 0 0-1.45.009c-.003.677-.003 1.357-.003 2.037-.295-.7-.207-1.469-.19-2.205m3.735-.148c.504-.3 1.153-.465 1.702-.186-.527.118-1.057.22-1.586.325.08 1.622.503 3.2.63 4.816-.584-.976-.427-2.149-.685-3.214-.076-.571-.355-1.192-.06-1.741m-12.554-.868c.924-.096 1.907-.009 2.676.56-.83-.194-1.68-.294-2.506-.516l-.17-.044m19.37.77c.194-1.308 1.371-2.391 2.69-2.487.662-.05 1.268.261 1.85.542-.04.463-.27.859-.562 1.21-.462-.116-.926-.253-1.406-.26-.266.23-.46.528-.669.81.2.51.323 1.109.767 1.475.368.148.76.23 1.142.346-.523 0-1.21.198-1.552-.33-.422-.607-.836-1.557-.255-2.196.482-.57 1.304-.229 1.944-.244.116-.213.231-.425.35-.636-.628-.212-1.289-.61-1.967-.384-1.068.227-2.048 1.23-1.926 2.373 0 .628.279 1.208.525 1.77-.654-.425-.957-1.233-.93-1.99m-34.633-7.704c.67-.122 1.155.454 1.691.75-.202.216-.403.434-.603.652l.812.176c-1.006.676-1.44 1.877-1.307 3.06l-.098.231c-.45-.758-.157-1.617.041-2.402l-.595-.366.116-.067c.314-.186.612-.395.904-.613-.331-.468-.662-.933-.96-1.42M61.67 17.383c.222-.107.444-.21.666-.312.358.29.713.584 1.066.88-.117.35-.237.698-.368 1.042-.033-.434.107-.976-.264-1.301-.29-.281-.732-.237-1.1-.31m-3-8.024c.45.192.894.397 1.328.621l-1.297-.16c.02.23.042.461.066.69-.177-.09-.351-.181-.523-.275.141-.292.283-.584.427-.876m-31.758-.62c.1.213.196.428.294.642-.414.22-.832.434-1.253.643-.091-.17-.183-.34-.272-.51.261.01.525.033.786.002.28-.148.297-.525.445-.778m7.929-2.81c.427-.12.86-.221 1.298-.3-.357.3-.793.48-1.183.73.466.238.994.268 1.508.297-.466.095-.93.19-1.397.287-.076-.337-.152-.675-.226-1.013m5.332-2.624c-.002 2.764-.004 5.525 0 8.288 1.812.131 3.633.07 5.447.03.03-.55.021-1.104-.083-1.645l.09-.379c-.89-.022-1.78-.02-2.666-.02-.12-2.068.067-4.145-.083-6.209-.072-.037-.211-.115-.283-.152-.809.013-1.617.004-2.422.087m-.202-.155a60.431 60.431 0 0 1 3.142-.002c.22 2.042-.039 4.1.144 6.144.833.013 1.667.041 2.498.128a6.07 6.07 0 0 1-.005 2.313c-1.922.139-3.855.104-5.777-.007-.009-2.86-.002-5.717-.002-8.576"/>
        <path fill="#9E8644" d="M40.174 3.305c.805-.083 1.613-.074 2.422-.087-.016.227-.029.455-.04.684-.623-.235-1.29-.238-1.941-.179-.011 2.465.002 4.932-.011 7.397l.009.205c1.523.092 3.09.257 4.587-.124.116-.408.231-.813.338-1.223.104.54.113 1.094.083 1.646-1.814.039-3.635.1-5.447-.031-.004-2.763-.002-5.524 0-8.288"/>
        <path fill="#A29165" d="M42.596 3.218c.072.037.211.115.283.152.15 2.064-.037 4.141.083 6.21.887 0 1.776-.003 2.665.019l-.09.38c-.106.409-.221.814-.337 1.222l-.109-1.133a50.378 50.378 0 0 0-2.572-.064c-.07-2.033-.076-4.07.037-6.102.011-.229.024-.458.04-.684"/>
        <path fill="#A48C4C" d="M33.04 73.396c.825.222 1.675.322 2.506.516.878.288 1.253 1.367.908 2.186l-.333.14c.161-.587.312-1.373-.246-1.8-.79-.524-1.766-.602-2.677-.746-.324 1.517-.81 3.001-1.002 4.544.924.216 1.876.695 2.84.46.871-.364.686-1.454 1-2.181.146.869.026 1.804-.689 2.399-.597-.03-1.194-.022-1.791-.035a4.823 4.823 0 0 1-.874-.248c-.24-.114-.501-.253-.772-.166-.008-.72.199-1.408.4-2.088.158-.538.278-1.087.383-1.639.087-.453.211-.9.346-1.342m32.708-59.73a330.746 330.746 0 0 1-5.784 3.01c.21.263.434.514.67.756.586-.249 1.16-.521 1.723-.82.536.368 1.02.807 1.458 1.288-.196.565-.383 1.13-.575 1.691.416.447.867.872 1.42 1.149.785-2.576 1.749-5.098 2.476-7.689-.477.17-.943.37-1.388.615m-.632-.19c.905-.475 1.776-1.026 2.757-1.332-.224 1.25-.74 2.415-1.111 3.62-.617 1.95-1.269 3.888-1.914 5.83-.74-.431-1.388-1.011-1.937-1.665-.273-.281.059-.638.124-.935.13-.344.25-.693.368-1.041-.353-.297-.708-.591-1.065-.88-.223.101-.445.204-.667.31-.351.164-.689.367-1.068.46-.617-.196-.998-.78-1.41-1.242 1.926-1.129 3.964-2.055 5.923-3.125M57.34 6.844c-1.157 2.228-2.32 4.453-3.404 6.717 1.301.802 2.7 1.428 4.056 2.13.159-.323.307-.652.44-.988-.758-.405-1.517-.81-2.284-1.203.225-.706.573-1.362.985-1.977.776.356 1.524.774 2.317 1.092l.423-.987c-.726-.401-1.465-.774-2.195-1.162.218-.592.495-1.161.804-1.71.813.309 1.57.738 2.36 1.094.157-.33.293-.667.397-1.016-1.292-.676-2.604-1.316-3.899-1.99m-.874.59c.244-.374.38-.962.844-1.102 1.55.704 3.046 1.526 4.57 2.29-.168.672-.514 1.271-.89 1.844a23.443 23.443 0 0 1-.99-.485c-.435-.225-.88-.43-1.328-.622-.144.292-.286.584-.427.876.172.094.346.186.523.275.555.281 1.107.569 1.647.876-.154.674-.475 1.29-.885 1.842-.27-.136-.536-.273-.802-.412a40.082 40.082 0 0 0-1.43-.73c-.204.39-.407.784-.603 1.179.179.096.36.191.543.287.595.303 1.2.59 1.793.903-.176.638-.475 1.233-.832 1.791-1.665-.734-3.321-1.523-4.873-2.482.967-2.147 2.13-4.202 3.14-6.33M32.33 4.749c.028.447.08.893.178 1.331.436 2.014.774 4.047 1.243 6.055 1.412-.142 2.802-.467 4.188-.77.482-.11.1-.732.12-1.055-.906.06-1.78.34-2.687.404a37.45 37.45 0 0 1-.425-2.127c.835-.188 1.672-.362 2.504-.56-.065-.336-.133-.674-.2-1.012-.852.088-1.69.257-2.535.382a7.473 7.473 0 0 1-.294-1.886 41.75 41.75 0 0 0 2.42-.523c-.07-.342-.145-.684-.221-1.024-1.443.198-2.86.534-4.291.785m-.473-.447c1.678-.166 3.304-.647 4.971-.861.484.427.377 1.262.578 1.859a7.7 7.7 0 0 1-1.265.33c-.438.078-.871.18-1.298.3.074.338.15.675.226 1.013.467-.098.93-.192 1.397-.287.355-.077.71-.153 1.066-.225.288.643.405 1.34.39 2.042-.377.059-.752.118-1.127.19-.446.078-.889.176-1.33.285l.184 1.253c.656-.039 1.299-.18 1.937-.335.258-.052.52-.09.78-.11.164.616.297 1.237.375 1.869-1.752.488-3.554.826-5.356 1.065-.56-2.227-.916-4.498-1.389-6.743-.124-.538-.194-1.092-.14-1.645"/>
        <path fill="#FFFFFA" d="M63.169 16.168c.3.274.615.534.937.782a7.38 7.38 0 0 0 .473-1.482 8.074 8.074 0 0 0-1.41.7m2.578-2.502a9.479 9.479 0 0 1 1.388-.615c-.727 2.591-1.69 5.113-2.475 7.689-.554-.277-1.005-.702-1.421-1.149.192-.562.379-1.126.575-1.69a8.437 8.437 0 0 0-1.458-1.289c-.562.299-1.137.571-1.724.82a9.994 9.994 0 0 1-.669-.757 332.245 332.245 0 0 0 5.784-3.01m-49.973.162c.815-1.547 2.672-2.212 4.34-1.885-.029.364-.062.728-.092 1.092-.793.01-1.696-.042-2.328.53-.708.581-.943 1.627-.527 2.449.514 1.074 1.46 2.096 2.694 2.258a1.98 1.98 0 0 0 2-.974c.388-.593.28-1.33.375-1.997.207-.333.706-.148 1.04-.233.045.848.104 1.733-.212 2.539-.523 1.388-1.974 2.308-3.437 2.338-2.996.295-5.498-3.532-3.853-6.117M57.34 6.844c1.295.674 2.607 1.314 3.9 1.99-.105.349-.24.687-.398 1.016-.79-.356-1.547-.785-2.36-1.094-.31.549-.586 1.118-.804 1.71.73.388 1.469.761 2.195 1.162-.142.33-.284.658-.423.987-.793-.318-1.541-.736-2.317-1.092-.412.615-.76 1.27-.985 1.977.767.392 1.526.798 2.284 1.203a13.34 13.34 0 0 1-.44.987c-1.356-.701-2.755-1.327-4.056-2.129 1.083-2.264 2.247-4.49 3.404-6.717M49.14 5.142c1.443-.889 3.647-.028 3.963 1.691-.293.118-.587.227-.887.325-.238-.558-.458-1.332-1.2-1.345-.764-.185-1.24.75-.877 1.358.422.732 1.25 1.103 1.754 1.774.702.798.514 2.13-.281 2.796-.865.767-2.206.74-3.19.231-.665-.344-1.038-1.024-1.313-1.689.301-.039.613-.2.918-.113.381.47.706 1.198 1.432 1.129.778.041 1.26-.972.82-1.58-.62-.793-1.662-1.275-1.971-2.29-.16-.833.048-1.834.832-2.287M32.33 4.748c1.432-.25 2.848-.587 4.29-.785.077.34.151.682.221 1.024-.802.199-1.608.373-2.419.523.01.639.122 1.271.294 1.886.846-.125 1.683-.295 2.535-.382.067.338.135.676.2 1.011-.832.199-1.67.373-2.504.56.118.713.266 1.421.425 2.128.907-.064 1.78-.345 2.687-.404-.02.323.362.944-.12 1.055-1.386.303-2.776.628-4.188.77-.469-2.008-.807-4.041-1.243-6.055a8.575 8.575 0 0 1-.178-1.331m8.286-1.025c.651-.058 1.318-.056 1.942.18-.114 2.03-.107 4.068-.037 6.101.856.002 1.715.018 2.571.064.037.377.072.756.11 1.133-1.53-.092-3.065-.03-4.597-.08.013-2.466 0-4.933.01-7.398"/>
        <path fill="#A28C51" d="M49.14 5.142c-.784.453-.991 1.454-.832 2.286.31 1.016 1.351 1.497 1.97 2.29.44.609-.041 1.622-.82 1.58-.725.07-1.05-.657-1.431-1.128-.305-.087-.617.074-.918.113.275.665.648 1.345 1.312 1.69.985.507 2.326.535 3.19-.232.796-.667.984-1.998.282-2.796-.503-.671-1.332-1.042-1.754-1.774-.362-.608.113-1.543.878-1.358.74.014.96.787 1.199 1.345.3-.098.594-.207.887-.325-.317-1.72-2.52-2.58-3.963-1.69m-.05-.51c1.903-1.075 4.847.572 4.398 2.867-.569.02-1.135.053-1.704.085-.142-.403-.288-.802-.434-1.203-.272-.013-.547-.026-.82-.037-.067.861.72 1.286 1.274 1.78.499.445.867 1.053.998 1.712.152 1.15-.556 2.362-1.659 2.754-1.314.473-2.994.166-3.87-.983-.366-.442-.528-1.002-.68-1.545a6.062 6.062 0 0 1 1.76-.54c.219.457.447.909.683 1.355.425.009.806-.155 1.127-.43-.116-.208-.23-.417-.354-.62-.645-.626-1.468-1.123-1.85-1.97-.43-1.153-.065-2.692 1.131-3.226"/>
        <path fill="#A48C49" d="M26.558 6.807c.322.963.843 1.844 1.194 2.796-.65.38-1.33.698-2.031.964-.504-.87-.876-1.807-1.354-2.69-.568.205-1.115.462-1.654.735 1.007 2.319 2.151 4.58 3.252 6.86.56-.233 1.105-.5 1.621-.817-.425-1.022-.948-2-1.37-3.025.675-.355 1.364-.693 2.083-.952.534.978.902 2.046 1.526 2.977.538-.24 1.065-.5 1.575-.798-1.041-2.28-2.098-4.56-3.264-6.778-.54.21-1.068.451-1.578.728m-.61-.203c.802-.44 1.597-.934 2.51-1.107 1.16 2.54 2.46 5.013 3.546 7.585-.798.45-1.606.922-2.51 1.124-.48-.898-.857-1.846-1.306-2.757-.506-.18-.957.177-1.397.369.126.296.25.592.386.884.357.711.74 1.41 1.015 2.162-.767.478-1.582.892-2.454 1.147-.603-.933-.993-1.977-1.475-2.973-.726-1.51-1.456-3.018-2.145-4.546.735-.586 1.628-.9 2.494-1.234.392.735.7 1.51 1.07 2.256.089.17.18.34.272.51.42-.21.84-.423 1.253-.643-.098-.214-.194-.43-.294-.643-.355-.695-.745-1.38-.965-2.134"/>
        <path fill="#FFFFFC" d="M26.558 6.807c.51-.277 1.037-.519 1.578-.728 1.166 2.219 2.223 4.498 3.264 6.778-.51.299-1.037.558-1.575.798-.624-.93-.992-1.999-1.526-2.977-.72.26-1.408.597-2.083.952.422 1.024.945 2.003 1.37 3.025-.516.316-1.06.584-1.621.817-1.1-2.28-2.245-4.541-3.252-6.86.539-.273 1.086-.53 1.654-.735.478.883.85 1.82 1.354 2.69a13.52 13.52 0 0 0 2.031-.964c-.35-.952-.872-1.833-1.194-2.796"/>
        <path fill="#03317F" d="M50.53 6.345c.273.011.548.024.82.037.146.401.292.8.434 1.203a75.58 75.58 0 0 1 1.704-.085c-.532.281-1.105.473-1.684.626-.554-.495-1.34-.92-1.273-1.78"/>
        <path fill="#374041" d="M35.465 8.947c.44-.109.883-.207 1.33-.285-.243.26-.587.368-.91.49-.037.214-.071.43-.108.645.603.037 1.205.05 1.808.068-.638.155-1.281.296-1.937.336l-.183-1.254"/>
        <path fill="#424740" d="M49.81 9.828c.124.203.237.412.353.62-.32.275-.702.439-1.127.43a2.24 2.24 0 0 0 .773-1.05"/>
        <path fill="#E1C278" d="M40.604 11.12c1.532.05 3.066-.01 4.596.08-1.497.382-3.064.217-4.587.125l-.01-.205z"/>
        <path fill="#A48C4D" d="M45.732 74.544c.22 1.532.46 3.06.719 4.586.952-.079 1.892-.26 2.827-.45-.061-.246-.125-.492-.186-.736-.516.087-1.03.174-1.547.253-.336-1.273-.386-2.598-.693-3.875-.375.072-.747.144-1.12.222m-.194-.185c.53-.105 1.06-.207 1.586-.325.031.249.061.495.094.743.114 1.055.244 2.112.517 3.139.536-.08 1.072-.172 1.602-.295.071.43.135.86.193 1.29-.226.062-.453.116-.682.162-.889.1-1.782.16-2.665.316l-.015-.214c-.127-1.617-.55-3.195-.63-4.816M15.774 13.827c-1.645 2.585.857 6.412 3.853 6.118 1.463-.031 2.914-.95 3.437-2.34.316-.805.257-1.69.212-2.538-.334.085-.833-.1-1.04.233-.096.667.013 1.404-.375 1.996a1.98 1.98 0 0 1-2 .975c-1.234-.162-2.18-1.184-2.694-2.258-.416-.822-.181-1.868.527-2.45.632-.57 1.535-.518 2.328-.53.03-.363.063-.727.091-1.091-1.667-.327-3.524.338-4.339 1.885m1.914-2.206c.946-.31 1.957-.215 2.927-.117.043.728-.1 1.447-.236 2.16l-.263-.038c-.715-.126-1.504-.244-2.117.251-.636.543-.68 1.526-.268 2.212.41.778 1.118 1.358 1.931 1.678.305.183.726.229 1.007-.024 1.129-.519 1.114-1.835.976-2.885a9.048 9.048 0 0 1 1.88-.395c.043.1.125.306.167.406.072.763.078 1.534.002 2.297-.497 2.74-3.993 4.051-6.331 2.776-1.131-.665-1.983-1.771-2.415-3.003-.706-2.13.652-4.605 2.74-5.318"/>
        <path fill="#323C41" d="M26.79 11.818c.441-.192.892-.55 1.398-.369-.297.144-.6.284-.9.418a55.1 55.1 0 0 0-.111.835c-.135-.292-.26-.588-.386-.884"/>
        <path fill="#2B3B48" d="M56.694 13.265c.196-.395.399-.79.604-1.18.481.234.957.478 1.43.73a77.22 77.22 0 0 1-1.43-.291c-.026.342-.048.684-.061 1.028a61.593 61.593 0 0 1-.543-.287"/>
        <path fill="#BA8A1D" d="M39.067 74.514c-.813 1.52-1.667 3.038-2.268 4.657.17.005.507.01.675.015.183-.35.366-.702.545-1.052.373.05.743.109 1.114.176.122.349.248.698.375 1.046.38.042.765.075 1.15.098-.436-1.671-.91-3.352-1.59-4.94m.019-.637c.48.83.669 1.776.954 2.68.308 1.058.711 2.089.931 3.17a28.076 28.076 0 0 1-1.547-.105c-.247-.506-.388-1.244-1.062-1.314-.272.333-.54.671-.813 1.005a4.177 4.177 0 0 0-1.03.028c.082-.706.47-1.314.784-1.935.615-1.166 1.147-2.374 1.783-3.529m23.579-7.013c.758.695 1.364 1.534 2 2.339.203.268.399.557.469.895.002.423-.002.844-.011 1.269-.344 1.264-2.062 1.556-3.025.858.612.07 1.26.316 1.863.061.905-.32 1.419-1.551.861-2.375-.588-.97-1.32-1.842-2.04-2.713-.202.19-.403.383-.601.577.612.946 1.416 1.763 1.979 2.744.283.57-.61 1.188-1.04.693-.782-.813-1.336-1.813-2.092-2.65-.318.242-.634.484-.948.73.612.883 1.33 1.7 1.857 2.641-.885-.773-1.524-1.782-2.169-2.754.43-.358.863-.728 1.397-.918.708.878 1.284 1.87 2.073 2.68l.553.066c.024-1.397-1.456-2.144-1.911-3.378.264-.253.527-.506.785-.765m-23.79-52.848c-3.463.34-6.848 1.37-9.94 2.96-6.09 3.11-10.954 8.52-13.408 14.9-2.188 5.636-2.491 11.972-.872 17.795 1.665 6.056 5.44 11.503 10.516 15.199 4.905 3.62 11.023 5.568 17.119 5.437 5.858-.054 11.679-2.022 16.375-5.524 5.015-3.699 8.755-9.099 10.4-15.112 1.646-5.93 1.306-12.4-.998-18.11-2.29-5.756-6.555-10.69-11.895-13.822-5.165-3.058-11.333-4.376-17.297-3.723m2.17-1.091a28.88 28.88 0 0 1 16.502 4.53c5.808 3.704 10.274 9.5 12.244 16.113 2.323 7.584 1.414 16.118-2.565 22.997-3.202 5.594-8.29 10.094-14.26 12.537-4.711 1.957-9.94 2.561-14.99 1.92-6.548-.856-12.79-4.012-17.3-8.85-4.314-4.49-7.084-10.424-7.81-16.605-.49-4.42-.065-8.961 1.436-13.159 2.288-6.575 7.035-12.244 13.08-15.685 4.148-2.364 8.886-3.722 13.663-3.798"/>
        <path fill="#2A3843" d="M18 13.877c.612-.495 1.4-.377 2.116-.25-.69.19-1.404.252-2.117.25"/>
        <path fill="#1D2F44" d="M23.692 14.869c.669.503.294 1.606.244 2.343l-.242-.046c.076-.763.07-1.535-.002-2.297"/>
        <path fill="#B3944A" d="M63.169 16.168a8.074 8.074 0 0 1 1.41-.7 7.38 7.38 0 0 1-.473 1.482 14.6 14.6 0 0 1-.937-.782"/>
        <path fill="#514E34" d="M19.662 17.767c.244-.253.754-.274 1.007-.024-.281.253-.702.207-1.007.024"/>
        <path fill="#596DB1" d="M40.728 23.2l.15-.002c.702.024 1.67-.152 2.042.621.665 1.19-.178 2.748-1.458 3.056.408-.71.885-1.543.547-2.38-.159-.545-.795-.597-1.242-.77l-.039-.525m2.846-1.009c-.314-1.274.794-2.16 1.787-2.678-.4.828-.568 1.74-.58 2.655-.403.008-.806.017-1.207.023"/>
        <path fill="#586EB1" d="M32.261 62.224c.554-.041 1.11-.041 1.665-.048-.05.504-.098 1.01-.115 1.517a70.607 70.607 0 0 1-.5-.318c-.156-.569-.348-1.153-1.05-1.15M26.35 23.276c.307-1.075 1.128-2.016 2.198-2.378-.782.806-1.59 1.726-1.702 2.894-.2 1.264.286 2.513 1.018 3.522-1.416-.734-1.902-2.574-1.514-4.038"/>
        <path fill="#D3D3D6" d="M41.282 58.088c.494-.637 1.288-.898 2.005-1.199.59.29 1.194.547 1.802.798-.902.458-1.999.71-2.609 1.586-.706.97-.697 2.256-1.318 3.263-.475.771-1.48.567-2.204.874-.285.433-.366.972-.575 1.445a6.054 6.054 0 0 1-1.308-1.053c.203-.488.236-1.09.626-1.473.673-.29 1.61-.072 2.081-.743.704-1.075.693-2.478 1.5-3.498m19.335-18.63c.913.317 1.543 1.225 1.543 2.19.096 1.367-.894 2.62-2.134 3.104-.054-.555-.128-1.109-.322-1.634 1.057-.885 1.477-2.376.913-3.66m-27.33-16.946c.774.067 1.125.843 1.404 1.464.464 1.269.26 2.772-.56 3.853-.543.774-1.37 1.269-2.192 1.7-.386-.283-.809-.514-1.227-.745.205-.643.937-.822 1.392-1.245 1.489-1.157 1.936-3.323 1.184-5.027"/>
        <path fill="#596DB2" d="M29.46 23.04c.763-.585 1.96-.428 2.415.461.604 1.27-.305 2.772-1.48 3.339-.137-.717-.658-1.212-1.209-1.639.639-.043 1.635.037 1.693-.841.15-.859-.756-1.175-1.418-1.32"/>
        <path fill="#D2D3D9" d="M29.46 23.04c.663.145 1.57.461 1.42 1.32-.06.878-1.055.798-1.694.841-.166-.414-.484-.852-.305-1.316.152-.307.38-.569.58-.846"/>
        <path fill="#CDD3E0" d="M46.961 24.445c.107-.623.846-.318 1.288-.377.161.54.582.909 1.003 1.253-.83.451-1.772-.244-2.291-.876"/>
        <path fill="#B4C8EB" d="M48.772 24.037c.34-.022.68-.041 1.02-.059-.118.306-.237.609-.357.914-.473-.053-.735-.382-.663-.855"/>
        <path fill="#D3D3D7" d="M46.041 63.14c.312-.192.643-.369 1.014-.41l.595.106c.163.312.329.626.499.935-.74.192-1.016.907-1.317 1.524-.58-.571-.625-1.408-.79-2.155m7.106-38.645c.42.381 1.068.658 1.203 1.249-.28.717-.815 1.296-1.188 1.963-.361-.1-.717-.218-1.08-.298-.144.19-.249.4-.312.634-.595-.508-1.031.35-1.327.765-.473.03-.948.02-1.421-.022-.166-.778.229-1.623.948-1.968.52-.248.9.342 1.29.595.654-.955 1.458-1.826 1.887-2.918"/>
        <path fill="#5A6DB2" d="M45.078 52.044c.56.005 1.142-.015 1.678.175.55.492.65 1.353 1.266 1.791.696.292 1.495.142 2.193.416.608.482.835 1.297.867 2.043.035 1.32-.556 2.552-1.218 3.66-1.38.143-2.916-.152-4.143.642-1.057.719-.414 2.12-.418 3.153-.534-.942-.578-2.227-.07-3.184.891-1.081 2.447-.91 3.694-1.131.396-.02.457-.469.545-.771a5.713 5.713 0 0 0-.007-1.936c-.06-.279-.13-.553-.2-.828-.35-.111-.7-.22-1.046-.34-1.18-.462-2.108-1.43-2.67-2.548a17.236 17.236 0 0 1-.471-1.142m-.77-8.878c.716.318 1.528.734 1.7 1.582.262.885-.352 1.715-1.063 2.173-2.149 1.43-4.827 1.94-6.786 3.676-.576.465-.914 1.192-.813 1.936-.007.941.972 1.342 1.619 1.81-.401 1.75-.809 3.825-2.472 4.828-1.569.91-3.476-.066-5.121.56a1.076 1.076 0 0 0-.678 1.09c.042.876.179 1.745.242 2.62-.272-.295-.44-.663-.414-1.07-.009-.964-.214-2.069.434-2.886a4.584 4.584 0 0 1 1.517-.656c1.253-.018 2.84.556 3.811-.525.748-1.01 1.003-2.32 1.062-3.55-.258-.711-1.223-1.007-1.393-1.805-.299-1.53.732-2.883 1.744-3.906 1.342-1.26 2.859-2.388 4.572-3.083.723-.262 1.682-.216 2.162-.905.113-.63-.06-1.264-.122-1.89m-15.236-8.747c.31.037.623.067.935.1.076 2.665-.092 5.335.074 7.996.244-.035.49-.074.736-.113.44-.107.872-.258 1.28-.456 1.153-.647 2.192-1.473 3.297-2.194.937-.596 1.929-1.103 2.868-1.696.887.292 1.822.362 2.748.43-1.318.954-2.783 1.669-4.18 2.497-1.17.643-2.295 1.369-3.47 2-1.457.785-3.17.328-4.722.698-.771.26-1.573.813-1.702 1.676l-.065.244c-.362-.18-.125-.625-.085-.922.246-1.135 1.412-1.606 2.305-2.145.003-2.704.024-5.409-.02-8.115m26.593-4.481c1.382-.417 2.868.915 2.727 2.316-.111.816-.66 1.483-1.232 2.038-1.152 1.096-2.528 1.99-3.432 3.324-.67.952-.702 2.251-.225 3.293.816 1.776 2.548 2.975 3.2 4.845.322.998.329 2.183-.266 3.083-.643.927-1.89 1.24-2.953 1.023-1.39-.26-2.55-1.265-3.145-2.526.35.3.72.586 1.103.85.976.551 2.262.839 3.29.268.827-.458 1.073-1.537.803-2.391-.39-1.34-1.484-2.286-2.293-3.372-1.061-1.346-1.761-3.23-1.094-4.905.88-1.997 2.912-3.056 4.271-4.664.34-.369.454-.868.471-1.356-.229-.719-.952-1.21-1.702-.944-.305.194-.604.4-.891.615.327-.59.645-1.32 1.368-1.497m-17.062-2.271c-.094-.386.046-.763.174-1.122.338 1.21 1.56 1.7 2.594 2.172-.153 1.421-.959 2.635-1.626 3.86-.342.484-.041 1.061-.043 1.593-.072.95-.663 1.914-1.661 2.086-.127-.745-.122-1.563-.576-2.201-.658-.93-1.545-1.663-2.384-2.422 1.027.081 2.045.26 3.073.314.671-.843 1.238-1.763 1.737-2.717-.497-.45-1.192-.833-1.288-1.563"/>
        <path fill="#EA0E16" d="M53.164 27.707c.876.284 1.593-.47 2.275-.891-.164.946-.739 1.857-1.722 2.099a26.403 26.403 0 0 1-.817-.122c-.392-.227-.756-.493-1.13-.75.064-.233.169-.445.313-.634.364.08.719.198 1.08.298"/>
        <path fill="#536EB5" d="M29.047 28.54c.33.022.664.04.998.059l-.002.62c-.334-.01-.667-.023-1-.03 0-.163.001-.488.004-.65"/>
        <path fill="#5A6EAE" d="M30.712 28.784c.418.231.84.462 1.227.745.283.318.527.67.771 1.018-.584-.198-1.212-.331-1.717-.697-.21-.312-.207-.71-.281-1.066"/>
        <path fill="#D7D3D5" d="M52.9 28.793c.272.045.545.085.817.122.331.109.65.255.974.39-.25.277-.473.573-.678.882-.344-.167-.7-.316-1.004-.546-.1-.27-.087-.565-.11-.848"/>
        <path fill="#FDF7FB" d="M7.386 35.937c.155.248.285.523.508.725.385.15.808.05 1.207.024-.364-.599-1.06-.767-1.715-.75m-1.207-.512c.028.659.599.953 1.159 1.099.013-.687-.551-1.01-1.16-1.099m-.603-.316c-.1.301 0 .417.305.345.105-.303.002-.419-.305-.345m-.663-2.107c.06.523-.03 1.205.465 1.55.9.7 1.985 1.137 3.112 1.296.163-.311.324-.625.483-.939-1.405-.523-2.724-1.234-4.06-1.907m3.808 2.986l.494.379c1.214-.935 1.63-2.515 1.794-3.966l-.81-.042c-.382 1.253-.857 2.476-1.478 3.629m2.54-3.664c-.108 1.467-.707 2.8-1.418 4.063 1.584-.54 2.343-2.332 2.11-3.91-.231-.052-.46-.103-.691-.153m-6.264.336c1.28.863 2.679 1.569 4.16 2.011.04-.355.467-.85.066-1.12a22.241 22.241 0 0 0-3.833-2.096 4.877 4.877 0 0 0-.393 1.205m4.115-1.253c.296.261.59.534.944.719.582.048 1.166.004 1.747-.015a49.043 49.043 0 0 0-.296-.68 7.422 7.422 0 0 0-2.395-.024m-1.314-.837c.335.277.673.68 1.16.601l2.285-.109a4.685 4.685 0 0 0-.592-.601c-.944-.2-1.918-.083-2.853.109m-2.258.634c1.393.678 2.715 1.48 4.071 2.227.085-.37.166-.74.244-1.113-1.055-.853-2.253-1.526-3.557-1.918-.259.261-.512.53-.758.804m1.098-1.042c.242.114.471.373.763.301.841-.168 1.691-.285 2.54-.412-1.019-.6-2.307-.464-3.303.111m.635-.867c1.604-.488 3.497.109 4.474 1.486 1.12 1.493 1.035 3.768-.246 5.14-1.084 1.235-2.954 1.697-4.486 1.098-1.425-.532-2.486-1.912-2.621-3.429-.207-1.872 1.065-3.779 2.879-4.295"/>
        <path fill="#FDF8FD" d="M74.273 35.913c.144.25.26.53.468.739.35.135.735.093 1.103.12-.09-.748-.98-.822-1.571-.86m-1.197-.476c.03.657.567.974 1.151 1.091-.015-.669-.54-1.013-1.15-1.091m-.626-.306c-.087.303.02.412.322.33.09-.308-.02-.42-.322-.33m-.621-2.096c.024.477-.074 1.072.32 1.432.852.736 1.94 1.152 3.034 1.37.394-.11.462-.618.669-.924-1.395-.512-2.698-1.22-4.023-1.878m6.296-.741a7.871 7.871 0 0 1-1.61 4.197c1.608-.505 2.621-2.288 2.297-3.931-.157-.218-.463-.181-.687-.266m-1.168.414a20.787 20.787 0 0 1-1.356 3.28l.502.4c1.194-.984 1.695-2.567 1.713-4.07-.297.085-.778-.015-.86.39m-4.785-1.13c-.166.347-.238.725-.314 1.097a18.783 18.783 0 0 0 4.071 2c.148-.296.292-.594.434-.893-1.014-.8-2.166-1.407-3.313-1.99-.285-.08-.577-.366-.878-.213m3.83-.172c.293.266.579.562.945.732.58.033 1.16-.007 1.74-.033a84.411 84.411 0 0 1-.28-.656 6.658 6.658 0 0 0-2.406-.043m-1.323-.842c.297.238.565.613.983.604.815-.015 1.63-.076 2.448-.07-.17-.218-.336-.438-.539-.62-.952-.234-1.946-.103-2.892.086m-2.262.643c1.39.682 2.711 1.493 4.078 2.217.074-.358.294-.715.226-1.088-1.004-.904-2.247-1.5-3.517-1.935-.268.262-.53.53-.787.806m1.07-1.048c.249.124.493.38.798.3.843-.165 1.693-.287 2.545-.411-1.035-.59-2.33-.451-3.343.111m.693-.87c2.384-.786 5.167 1.11 5.211 3.64.227 2.103-1.473 4.128-3.568 4.317-2.26.353-4.57-1.562-4.552-3.868-.164-1.837 1.157-3.598 2.91-4.088"/>
        <path fill="#C6363B" d="M6.638 30.161c.996-.575 2.284-.71 3.302-.11-.848.126-1.698.243-2.539.411-.292.072-.52-.187-.763-.3"/>
        <path fill="#C63136" d="M73.486 30.16c1.014-.563 2.308-.703 3.343-.112-.852.124-1.702.246-2.545.412-.305.078-.55-.177-.798-.3"/>
        <path fill="#576DB5" d="M28.14 29.88c.918-.279 1.628.475 2.192 1.079a7.951 7.951 0 0 1-2.25.028c.01-.37.032-.739.058-1.107"/>
        <path fill="#D2D3D8" d="M50.851 34.864l.14.367c.257-.1.516-.2.776-.299.418.867.619 2.04-.092 2.811-.652.785-1.748.78-2.67.92-.13 1.31.752 2.4.911 3.664.295 2 .706 3.997 1.526 5.856-.384-.264-.752-.55-1.103-.85-1.1-1.927-1.412-4.152-1.763-6.308-.153-1.211-1.114-2.192-.915-3.47.906-.051 1.952-.043 2.624-.766.538-.484.555-1.256.566-1.925m-.425-4.98l1.225.031c.07.772.135 1.54.196 2.312-.765-.388-1.702-1.229-2.552-.568-.97.66-.671 1.965-.51 2.942-.603-.27-1.174-.715-1.325-1.393-.261-.902-.296-2.219.671-2.711.872-.399 1.707.29 2.424.708-.052-.44-.107-.878-.129-1.32"/>
        <path fill="#D2D3D7" d="M48.844 63.841c.26-.514.569-1.124 1.247-1.078.29.3.588.595.878.897l.105.118c-.471.438-.846.96-1.197 1.495-.44-.403-.758-.909-1.033-1.432m-14.63-.224c.161-.613.58-1.097 1.122-1.41.438.292.759.712 1.075 1.127-.48.5-.822 1.109-1.123 1.728a3.429 3.429 0 0 1-1.074-1.445m-2.428-1.094l.475-.299c.702-.002.894.582 1.05 1.15-.311.413-.603.835-.897 1.258-.759-.42-.586-1.386-.628-2.11m9.748-8.313c.62-1.339 2.154-1.99 3.544-2.165.146.384.296.768.47 1.142-.862.39-1.801.748-2.414 1.509-.346.422-.362.998-.464 1.514-.763-.31-1.515-1.133-1.136-2m-5.775-7.005c2.123-.48 3.733-2.04 5.056-3.677.318.586.624 1.18.99 1.74-1.467 1.14-2.803 2.615-4.719 2.972-.497-.348-.956-.82-1.562-.959-.96-.006-1.973.412-2.563 1.182-.275.645-.602 1.27-.885 1.913-.083 1.234-.04 2.476-.03 3.711-.029.724.858 1.177.627 1.931a12.663 12.663 0 0 0-.2 2.812c-.539.13-1.06.342-1.517.656-.475-.183-.92-.467-1.083-.974.494-.24 1.148-.404 1.349-.985.109-.571-.092-1.156.026-1.724a8.791 8.791 0 0 0 .161-1.62c-.229-.246-.66-.4-.654-.789-.067-1.516.03-3.035-.03-4.552.13-.035.39-.1.52-.135-.034-1.609 1.685-2.631 3.145-2.417.534.165.933.586 1.37.915m19.87-4.897c.192-.547.46-1.166 1.101-1.288.81-.307 1.602.261 1.912.996-.454.118-1.007.111-1.328.506-.39.418-.379 1.111.04 1.505.926 1.073 1.941 2.154 2.325 3.56.375 1.192.224 2.64-.732 3.526-1.162 1.233-3.047 1.288-4.59.9-.98-.277-2.04-.641-2.666-1.5 1.646.65 3.623.996 5.25.122 1.374-.723 1.925-2.48 1.478-3.92-.407-1.755-1.783-2.995-2.79-4.407m4.765-12.226c1.085.379 1.639 1.536 1.597 2.632.063 1.286-.69 2.435-1.595 3.28-.73.654-1.517 1.238-2.251 1.883-1.321-.087-2.47.606-3.496 1.345.272-.575.59-1.144 1.072-1.574 1.473-1.357 3.387-2.292 4.464-4.044.658-1.053.655-2.391.209-3.522"/>
        <path fill="#EF0C14" d="M71.83 33.034c1.325.658 2.628 1.366 4.023 1.878-.207.306-.275.813-.67.924-1.093-.218-2.18-.634-3.033-1.37-.394-.36-.296-.955-.32-1.432m-66.29-1.83c.246-.276.499-.544.758-.805 1.304.392 2.502 1.066 3.557 1.918-.078.372-.159.743-.244 1.113-1.356-.747-2.678-1.55-4.071-2.227"/>
        <path fill="#E31219" d="M7.798 30.569c.935-.192 1.909-.31 2.852-.11.216.184.412.382.593.602-.762.037-1.525.072-2.286.11-.486.078-.824-.325-1.16-.602"/>
        <path fill="#EF0D14" d="M72.416 31.207c.257-.276.519-.544.787-.806 1.27.436 2.513 1.03 3.517 1.935.068.373-.152.73-.226 1.088-1.367-.724-2.688-1.534-4.078-2.217"/>
        <path fill="#DC151B" d="M74.678 30.564c.946-.19 1.94-.32 2.892-.087.203.183.369.403.539.621-.818-.006-1.633.055-2.448.07-.418.009-.686-.366-.983-.604"/>
        <path fill="#D3D3D8" d="M55.188 30.82c.75-.266 1.473.224 1.702.943-.686.296-1.249.796-1.724 1.362a17.32 17.32 0 0 0 .022-2.306"/>
        <path fill="#E1131A" d="M9.112 31.406a7.422 7.422 0 0 1 2.395.024c.1.224.198.45.296.68-.581.02-1.166.063-1.747.015-.353-.185-.648-.458-.944-.72"/>
        <path fill="#566DB5" d="M28.373 31.506c.704-.009 1.369.277 1.981.6-.664.429-1.532.664-2.303.405.072-.34-.122-.874.322-1.005"/>
        <path fill="#E21219" d="M76.001 31.406a6.663 6.663 0 0 1 2.406.043c.092.218.185.438.28.656-.58.026-1.16.066-1.74.033-.366-.17-.652-.466-.946-.732"/>
        <path fill="#F10B13" d="M9.58 51.78c.794.05 1.829.373 2.101 1.206-.207.551-.863.676-1.288 1.015-.442.23-.82.724-1.36.66-.695-.586-.383-1.614-.279-2.388.397.185.733.464 1.07.737-.082-.41-.172-.817-.244-1.23m-1.623-1.754c.593-.425 1.538.04 1.547.772.072.75-.841 1.358-1.493.95-.662-.323-.736-1.38-.054-1.722M4.997 32.66c.079-.419.21-.822.393-1.205a22.228 22.228 0 0 1 3.833 2.096c.401.27-.026.765-.065 1.12-1.482-.442-2.881-1.148-4.16-2.011"/>
        <path fill="#F10C13" d="M5.1 52.766c-.018-1.018 1.425-1.114 2.199-1.17-.142.416-.308.823-.458 1.237.357-.224.702-.47 1.048-.712.27.667.227 1.467-.076 2.114-.18.4-.772.318-1.016.026-.527-.543-1.207-.92-1.697-1.495m67.072-21.188c.3-.153.593.133.878.213 1.147.583 2.3 1.19 3.313 1.99-.142.299-.286.597-.434.894a18.783 18.783 0 0 1-4.07-2c.075-.373.147-.75.313-1.097"/>
        <path fill="#E11219" d="M11.26 32.323c.232.05.46.1.692.153.233 1.578-.526 3.37-2.11 3.91.71-1.262 1.31-2.596 1.419-4.063"/>
        <path fill="#EB0F16" d="M76.958 32.707c.08-.405.562-.305.859-.39-.018 1.503-.52 3.086-1.713 4.07l-.502-.4c.543-1.055 1-2.15 1.356-3.28"/>
        <path fill="#E41118" d="M78.126 32.293c.225.085.53.048.687.266.324 1.643-.69 3.425-2.298 3.931a7.872 7.872 0 0 0 1.611-4.197"/>
        <path fill="#E90F16" d="M8.72 35.987c.62-1.153 1.096-2.376 1.477-3.629l.81.041c-.163 1.452-.579 3.032-1.793 3.967-.124-.096-.37-.283-.494-.38"/>
        <path fill="#556DB6" d="M28.343 33.136c.614-.294 1.268-.028 1.763.368-.56.223-1.155.33-1.755.327l-.008-.695"/>
        <path fill="#F00C14" d="M76.919 51.604c.677.024 1.384.135 1.946.54.399.186.266.776-.061.966-.482.384-.966.765-1.423 1.18-.247.302-.87.313-1.007-.101-.249-.575-.255-1.22-.242-1.835.47-.22.815.307 1.216.468-.142-.407-.299-.808-.43-1.218M4.913 33.001c1.336.673 2.655 1.384 4.06 1.907-.159.314-.32.628-.483.94a6.573 6.573 0 0 1-3.113-1.297c-.494-.345-.405-1.027-.464-1.55"/>
        <path fill="#D1D3D8" d="M30.803 34.686c1.02.233 2.047.462 3.023.848.087.2.172.405.255.608a44.724 44.724 0 0 0-2-.36c-.068 2.053-.05 4.11.017 6.163-.408.198-.84.349-1.28.456-.032-2.572-.017-5.144-.015-7.715"/>
        <path fill="#BC7D80" d="M5.575 35.109c.307-.075.41.04.305.344-.305.072-.405-.044-.305-.344"/>
        <path fill="#C86D70" d="M72.451 35.13c.303-.09.412.022.323.33-.303.082-.41-.027-.323-.33"/>
        <path fill="#C33539" d="M6.178 35.425c.609.089 1.173.411 1.16 1.098-.56-.146-1.131-.44-1.16-1.098"/>
        <path fill="#566DAF" d="M33.826 35.534c.571.259 1.238.76 1.018 1.482-.135.828-1.199.592-1.798.775.368-.266.832-.442 1.096-.83.054-.272-.015-.55-.061-.82a29.296 29.296 0 0 0-.255-.607"/>
        <path fill="#CE3439" d="M73.076 35.435c.61.079 1.136.423 1.151 1.092-.584-.117-1.12-.433-1.15-1.092"/>
        <path fill="#CC2B30" d="M7.386 35.937c.656-.018 1.351.15 1.715.75-.399.026-.822.126-1.207-.025-.223-.202-.353-.477-.508-.725"/>
        <path fill="#CA1D23" d="M74.273 35.913c.59.037 1.482.111 1.571.858-.368-.026-.754.016-1.103-.12-.209-.209-.324-.488-.468-.738"/>
        <path fill="#CDD3DF" d="M36.201 38.386c.613-.29 1.06-.813 1.504-1.307.19.322.377.647.558.976-.94.593-1.93 1.1-2.868 1.696a20.574 20.574 0 0 0-1.231-1.038c.686-.022 1.41-.006 2.037-.327"/>
        <path fill="#5A6DB1" d="M28.419 46.396c.288-.086.58-.155.872-.223a31.961 31.961 0 0 0-.231 1.51c.499-.233 1.01-.442 1.538-.601.046.523.09 1.046.118 1.571-.22-.233-.44-.466-.663-.697-.095 1.966-.002 3.936-.021 5.901-.042.321.028.763-.334.925-.444.17-.928.185-1.395.25-.013-.32-.028-.64-.043-.96.26-.099.52-.195.782-.289.124-1.571.02-3.151.063-4.726.088-.953-.507-1.757-.686-2.661m27.626-5.807c.808-1.024 2.578-.96 3.306.131.636.72.324 1.722.19 2.565-.247.225-.58.308-.875.445-.002-.573.033-1.146-.024-1.715-.309-.735-1.1-1.303-1.91-.996-.642.122-.91.74-1.101 1.288-.007-.588-.007-1.25.414-1.718"/>
        <path fill="#6C81B9" d="M27.218 45.256c.408-.114.828-.142 1.249-.181-.303.514-.547 1.063-.663 1.652l-.067.261c-.203-.57-.214-1.203-.519-1.732"/>
        <path fill="#FFF3F9" d="M9.58 51.78c.072.413.162.82.245 1.23-.338-.273-.674-.552-1.07-.737-.105.774-.417 1.802.278 2.389.54.063.918-.432 1.36-.66.425-.34 1.081-.465 1.288-1.016-.272-.833-1.307-1.155-2.1-1.205m-4.481.985c.49.575 1.17.952 1.697 1.495.245.292.835.375 1.016-.026.303-.648.347-1.447.076-2.114-.346.242-.69.488-1.048.712.15-.414.316-.821.458-1.238-.774.057-2.217.153-2.2 1.17m2.858-2.739c-.682.342-.608 1.4.054 1.722.652.408 1.565-.2 1.493-.95-.009-.732-.954-1.197-1.547-.772m1.765.161c.405.018.813.025 1.218.04-.276.31-1.05.418-.84.94.516.285 1.08.505 1.67.56.354.001.687-.308.57-.672-.197-.739-.38-1.482-.58-2.221-.07-.318-.56-.462-.81-.255-.557.388-1.075.924-1.228 1.608m-4.78-.324c-.134.39-.479.817-.224 1.233.698.469 1.552-.009 2.29-.137-.1-.434-.457-.704-.747-1.009.366-.04.828.218 1.123-.087-.223-.776-.759-1.474-1.495-1.82-.582.443-.648 1.203-.946 1.82m2.129-2.441c-.122.754.464 1.393.87 1.968.53.166.429-.73.673-1.029.16.369.248.76.349 1.151.619-.223.996-.81 1.279-1.373.198-.277.111-.732-.24-.83-.608-.173-1.255-.077-1.878-.142-.36.006-.846-.144-1.053.255m-.595.248c.2-.414.381-1.037.942-1.042.845.031 1.686.134 2.534.146.608.025.813.654 1 1.125.467.118 1.123.179 1.275.735.18.808.41 1.604.624 2.406.13.562-.377.933-.785 1.196.042.525.196 1.223-.344 1.552-.687.396-1.347.832-2.012 1.262-.494.313-1.018-.048-1.434-.314-.462.144-.97.44-1.447.18-.477-.324-.856-.77-1.331-1.098-.316-.261-.735-.462-.872-.876-.079-.396.06-.786.128-1.172-.368-.345-.843-.807-.59-1.358.324-.726.606-1.467.876-2.212.229-.58.92-.551 1.436-.53"/>
        <path fill="#FFF2F4" d="M76.919 51.604c.13.41.287.811.429 1.218-.401-.16-.745-.688-1.216-.468-.013.615-.007 1.26.242 1.835.137.414.76.403 1.007.1.457-.414.941-.795 1.423-1.179.327-.19.46-.78.06-.965-.561-.406-1.268-.517-1.945-.54m-2.881.237c-.63.237-1.487.514-1.493 1.329.7.482 1.42.93 2.129 1.401.303.234.702.033.826-.3.159-.66.059-1.347-.052-2.008-.395.214-.744.495-1.103.76.104-.396.229-.784.349-1.171-.216-.044-.445-.116-.656-.011m1.235-1.87c-.64.268-.771 1.218-.213 1.647.549.552 1.608.157 1.647-.623.157-.774-.76-1.39-1.434-1.024m-2.894-.87c-.098.857-.658 1.67-.43 2.542.85.206 1.664-.199 2.367-.635-.34-.288-.71-.532-1.083-.773.44-.016.883-.027 1.323-.062-.263-.658-.721-1.263-1.344-1.612-.4-.253-.824.128-.833.54m5.53-.843a3.294 3.294 0 0 0-1.101 1.73c.424-.002.85-.024 1.274-.03-.279.32-.91.475-.854.98.767.218 1.903.752 2.437-.128-.338-.739-.613-1.502-.905-2.258a.536.536 0 0 0-.852-.294m-2.925-1.04c-.37.024-.891-.043-1.074.373-.04.859.665 1.517 1.299 1.99.128-.406.23-.82.344-1.23.15.351.275.713.43 1.062.429.07.557-.475.784-.739.266-.427.66-1.155.087-1.508-.623-.048-1.246.06-1.87.052m-1.087-.331c.397-.211.86-.118 1.292-.144.578.005 1.153-.159 1.733-.093.484.084.634.616.8 1.006.51-.004 1.166-.045 1.42.508.3.743.563 1.5.892 2.23.262.558-.187 1.057-.604 1.368.116.523.364 1.21-.146 1.609-.612.477-1.21.976-1.798 1.482-.494.392-1.102.08-1.558-.203-.244.183-.469.405-.758.512-.595.103-1.046-.364-1.502-.656-.425-.307-.922-.501-1.327-.837-.384-.353-.227-.908-.196-1.36-.384-.313-.879-.682-.783-1.246.2-.805.436-1.6.615-2.408.144-.61.859-.637 1.358-.757.133-.357.17-.832.562-1.011"/>
        <path fill="#F20B13" d="M74.037 51.842c.212-.105.44-.033.656.01-.12.388-.244.776-.348 1.171.36-.264.708-.545 1.103-.759.11.661.21 1.347.052 2.008-.124.333-.523.534-.826.3-.708-.47-1.43-.92-2.13-1.4.007-.816.864-1.093 1.493-1.33m1.236-1.87c.674-.366 1.591.25 1.434 1.024-.039.78-1.098 1.175-1.647.623-.558-.429-.428-1.38.213-1.647m-2.894-.87c.009-.412.434-.793.833-.54.623.349 1.08.954 1.344 1.613-.44.034-.882.045-1.323.06.373.242.743.486 1.083.774-.703.436-1.516.841-2.366.634-.23-.871.33-1.684.429-2.54M9.722 50.186c.153-.684.671-1.22 1.227-1.608.25-.207.741-.063.81.255.201.74.384 1.482.58 2.221.118.364-.215.673-.568.671-.59-.054-1.155-.274-1.672-.56-.21-.52.565-.63.841-.94-.405-.014-.813-.021-1.218-.039m68.186-1.928a.536.536 0 0 1 .852.294c.292.756.567 1.52.905 2.258-.534.88-1.67.346-2.437.128-.057-.505.575-.66.854-.98-.425.006-.85.028-1.275.03a3.293 3.293 0 0 1 1.101-1.73M4.943 49.863c.298-.617.364-1.377.946-1.82.736.346 1.272 1.044 1.495 1.82-.295.305-.757.048-1.123.087.29.305.648.575.748 1.009-.739.129-1.593.606-2.29.137-.256-.416.089-.843.224-1.233m2.129-2.441c.207-.399.693-.249 1.053-.255.623.065 1.27-.03 1.878.141.351.099.438.554.24.831-.283.562-.66 1.15-1.28 1.373-.1-.39-.189-.782-.348-1.15-.244.298-.144 1.194-.673 1.028-.406-.576-.992-1.214-.87-1.968"/>
        <path fill="#F30B12" d="M74.983 47.22c.624.008 1.247-.101 1.87-.053.573.353.179 1.081-.087 1.508-.227.264-.355.809-.784.739-.155-.349-.28-.71-.43-1.062-.113.41-.216.824-.344 1.23-.634-.473-1.338-1.131-1.299-1.99.183-.416.704-.349 1.074-.373"/>
        <path fill="#043083" d="M30.053 47.956c.223.231.443.464.663.697l.009.188c.06 1.517-.037 3.035.03 4.552-.006.388.425.543.654.79a8.792 8.792 0 0 1-.161 1.619c-.118.568.083 1.153-.026 1.723-.2.582-.855.746-1.35.986-.647-.203-1.176-.61-1.484-1.223.478.12.953.314 1.45.296.65-.174.84-1.185.298-1.582-.57-.294-1.235-.298-1.86-.366.008-.152.02-.453.027-.604.467-.065.95-.08 1.395-.25.362-.162.292-.604.334-.925.02-1.965-.074-3.935.021-5.901"/>
        <path fill="#CFD3DE" d="M49.805 49.381c.48.266.94.56 1.4.855-.101.904.359 1.715.67 2.53-1.152-.756-1.85-2.042-2.07-3.385"/>
        <path fill="#D2D3D6" d="M54.632 54.46c.737-.02 1.474-.066 2.208-.132-1.767 1.838-2.467 4.444-2.317 6.948 0 .722.21 1.465.016 2.175-.288.517-.994.478-1.489.684-.172.29-.346.578-.52.866a79.072 79.072 0 0 1-1.324-1.077c.245-.362.401-.898.914-.943.564-.107 1.281-.327 1.196-1.049-.159-2.532-.244-5.31 1.316-7.473"/>
        <path fill="#586DB3" d="M28.275 55.636c.626.068 1.29.072 1.861.366.543.397.351 1.408-.298 1.582-.497.018-.972-.176-1.45-.296-.026-.517.205-.98.486-1.397l-.599-.255"/>
        <path fill="#C8CDE1" d="M48.219 55.734c.346.12.697.229 1.046.34.07.275.14.55.2.828-.475-.32-.965-.651-1.246-1.168"/>
        <path fill="#586EAF" d="M35.336 62.207c.447-.015.894-.005 1.343.004.128.53.261 1.062.396 1.591a4.757 4.757 0 0 1-.664-.468c-.316-.415-.637-.835-1.075-1.127"/>
        <path fill="#4C68A4" d="M47.055 62.73c.414-.066.834-.098 1.253-.129.024.534.05 1.068.08 1.604l-.24-.434c-.17-.309-.335-.623-.498-.934l-.595-.107"/>
        <path fill="#5A72AE" d="M50.09 62.762l.6.062c.09.279.179.56.279.836-.29-.303-.589-.597-.878-.898"/>
        <path fill="#2A3A46" d="M65.56 64.133c.08-.453 1.153-.455 1.205.024-.403-.004-.804.007-1.205-.024"/>
        <path fill="#FFFFF8" d="M33.785 76.466a5.25 5.25 0 0 0-.286 1.408c.392-.032.922.098 1.14-.338.037-.294-.05-.581-.09-.867l-.764-.203m.392-1.824c-.04.401-.076.804-.107 1.21.323-.09.996.07.952-.451.116-.493-.446-.73-.845-.759m-.979-.95c.911.144 1.888.222 2.677.745.558.428.407 1.214.246 1.8-.022.068-.063.208-.085.278-.314.727-.129 1.817-1 2.18-.964.236-1.916-.243-2.84-.459.192-1.543.678-3.027 1.002-4.544M15.26 66.727c.824-.733 1.584-1.534 2.408-2.265a11.8 11.8 0 0 1 1.994 1.99c-.17.166-.34.334-.508.502-.39-.347-.775-.698-1.159-1.053l-.708.712c.327.351.654.702.983 1.05l-.38.64c-.422-.347-.836-.7-1.253-1.053-.505.497-1.02.985-1.49 1.514-.312-.32-.624-.64-.931-.963.338-.368.678-.734 1.044-1.074m51.647.093c-.092.1-.275.303-.366.406l-.16-.116c.188.486.55.863.957 1.175.292-.344.783-.8.408-1.27-.188-.31-.547-.207-.84-.195m-2-.96c.32.4.689.76 1.107 1.059.264-.375.702-.903.29-1.336-.43-.513-1.01-.007-1.397.276m.632-1.397c.392-.35 1.011-.26 1.41.037.353.308.53.759.843 1.103.419.331 1.13.484 1.184 1.112.207 1.355-1.23 2.096-2.03 2.948-1.12-1.094-2.28-2.157-3.305-3.345.623-.628 1.2-1.307 1.898-1.855"/>
        <path fill="#A69A77" d="M65.305 65.857c.211.253.44.488.688.704l.299-.501c-.07-.129-.21-.386-.277-.514-.24.1-.475.204-.71.311m-.399.002c.388-.283.968-.789 1.397-.276.412.433-.026.96-.29 1.336a5.545 5.545 0 0 1-1.107-1.06"/>
        <path fill="#323B38" d="M65.305 65.857c.235-.107.47-.211.71-.311l.277.514-.299.501a6.16 6.16 0 0 1-.688-.704"/>
        <path fill="#143362" d="M62.666 66.864c.194-.19.39-.375.588-.558.36.375.715.754 1.072 1.131-.113.615.168 1.192.34 1.765-.636-.804-1.242-1.643-2-2.338"/>
        <path fill="#9B916E" d="M66.907 66.82c.292-.013.651-.115.839.194.375.471-.116.927-.408 1.271-.407-.312-.77-.689-.957-1.175l.16.116c.287.207.568.42.852.636.078-.218.157-.438.237-.654-.24-.133-.481-.263-.723-.387"/>
        <path fill="#3B4342" d="M66.54 67.226c.092-.103.275-.305.367-.405.242.124.483.255.723.388-.08.215-.159.435-.237.653-.284-.215-.565-.43-.853-.636"/>
        <path fill="#FFFFF4" d="M62.182 67.775c.198-.194.399-.388.601-.577.72.871 1.452 1.743 2.04 2.713.558.824.044 2.055-.86 2.375-.604.255-1.252.01-1.864-.06-.041-.075-.122-.219-.161-.293-.528-.941-1.245-1.758-1.857-2.641.314-.246.63-.488.948-.73.756.837 1.31 1.837 2.092 2.65.43.495 1.323-.122 1.04-.693-.563-.98-1.367-1.798-1.98-2.744"/>
        <path fill="#FFFFF6" d="M20.802 68.764c-1.011.397-1.977 2.09-.854 2.853 1.22.183 2.334-1.242 1.985-2.406a.98.98 0 0 0-1.131-.447m-1.295-.769c.609-.418 1.42-.353 2.101-.205.778.194 1.247.879 1.57 1.563.228 1.177-.325 2.338-1.251 3.055-1.325.783-3.165.06-3.727-1.353-.133-1.183.3-2.384 1.307-3.06"/>
        <path fill="#023185" d="M20.996 68.976c.534-.146 1.044.475.817.972-.23.619-.704 1.192-1.334 1.423-.536.185-1.059-.416-.847-.915.26-.613.658-1.336 1.364-1.48"/>
        <path fill="#28334A" d="M23.178 69.353c.032-.096.102-.286.137-.38.294.556.31 1.19.322 1.805.306-.102.608-.266.938-.266l.16.013c-.625.473-1.313.962-1.584 1.735-.383.852-.067 1.794.369 2.557-.828-.475-.935-1.454-.972-2.313l-.621-.096c.926-.717 1.48-1.878 1.25-3.055"/>
        <path fill="#2F3C42" d="M65.135 70.098c.46.1.455 1.182-.011 1.269.009-.425.013-.846.01-1.269"/>
        <path fill="#FFFFF7" d="M28.994 72.289a32.34 32.34 0 0 1 3 1.048c-.047.235-.095.47-.14.708-.36-.072-.72-.142-1.08-.216-.45 1.195-.845 2.413-1.335 3.594l-1.098-.438c.287-.88.592-1.757.902-2.63.085-.21.17-.417.25-.624.024-.065.068-.196.092-.261-.303-.227-.619-.436-.93-.648.084-.135.254-.4.34-.533m27.91-1.402c.345-.163.69-.327 1.034-.483.542.873 1.041 1.771 1.547 2.665.148.183.207.497.462.564.484-.192.922-.475 1.377-.719.125.24.247.484.366.728-.795.482-1.593.963-2.425 1.382-.859-1.332-1.715-2.688-2.36-4.137"/>
        <path fill="#FFFFF3" d="M54.571 71.968c.678-.226 1.339.172 1.966.384-.118.211-.233.423-.349.636-.64.015-1.462-.327-1.944.244-.581.639-.167 1.589.255 2.197.343.527 1.03.33 1.552.33l.21-.308c.176-.26.348-.519.52-.78.227.017.456.039.682.06-.15.735-.473 1.487-1.163 1.862-.826.514-1.829.233-2.677-.063a4.892 4.892 0 0 1-.453-.419c-.246-.562-.525-1.142-.525-1.77-.122-1.144.858-2.146 1.926-2.373m-29.393-.157c-.721.565-1.314 1.87-.512 2.585 1.14.394 2.036-1.005 1.863-2.016.12-.702-.915-1.063-1.35-.569m-.443-1.286c.957.09 2.094.153 2.678 1.044.739.968.336 2.245-.168 3.22-.935 1.072-2.756 1.032-3.726.028-.436-.763-.752-1.705-.369-2.557.27-.773.96-1.262 1.585-1.735"/>
        <path fill="#06317B" d="M25.178 71.811c.436-.495 1.471-.133 1.351.569.173 1.011-.723 2.41-1.863 2.016-.802-.715-.21-2.02.512-2.585"/>
        <path fill="#374654" d="M27.82 71.844c.313.091.632.17.956.229-.106.335-.213.671-.322 1.007.348.213.695.43 1.04.651-.081.207-.166.415-.251.624-.122.174-.242.35-.362.53.004-.413.028-.825.065-1.234-.468-.299-.858.01-1.142.398.22-.717.242-1.486.016-2.205"/>
        <path fill="#253C58" d="M29.142 72.064c.857-.01 1.89.124 2.433.867-.83-.233-1.626-.566-2.433-.867"/>
        <path fill="#2A3E55" d="M30.995 74.202c.32-.013.638.048.957.098l.13.022a3.077 3.077 0 0 0-1.676 1.07c.164-.408.242-.894.589-1.19"/>
        <path fill="#FFFFF5" d="M38.605 77.01c-.368.09-.252.736.135.65.358-.082.214-.708-.135-.65m.462-2.496c.68 1.588 1.155 3.269 1.591 4.94-.385-.024-.769-.056-1.15-.098-.127-.348-.253-.697-.375-1.046-.37-.067-.741-.126-1.114-.176-.179.35-.362.701-.545 1.052-.168-.004-.505-.01-.675-.015.601-1.62 1.455-3.136 2.268-4.657m6.665.03c.373-.078.745-.15 1.12-.222.307 1.277.358 2.602.693 3.875.517-.079 1.031-.166 1.548-.253.06.244.124.49.185.737-.935.19-1.875.37-2.827.449-.26-1.526-.499-3.054-.72-4.586"/>
        <path fill="#C2B388" d="M41.88 74.536c.485-.014.966-.016 1.45-.01.157 1.276.157 2.562.17 3.843.565.004 1.131.009 1.698.02.022.35.046.703.072 1.059l-.255-.011-.198-.726c-.521-.04-1.042-.074-1.563-.107-.044-1.277-.061-2.552-.116-3.827-.353.005-.704.009-1.052.016-.002 1.007.039 2.013.041 3.02l-.198.103a25.13 25.13 0 0 1-.052-1.343c0-.68 0-1.36.004-2.037"/>
        <path fill="#3E4B53" d="M32.31 76.377c-.153-.593.014-1.166.383-1.639a16.85 16.85 0 0 1-.384 1.639"/>
        <path fill="#FFFFF9" d="M42.086 74.793c.348-.007.7-.011 1.052-.016.055 1.275.072 2.55.116 3.827.52.033 1.042.068 1.563.107l.198.726c-.48-.004-.955.01-1.432.028-.469-.076-.941-.176-1.419-.135-.024-.505-.03-1.011-.037-1.517-.002-1.007-.043-2.013-.041-3.02"/>
        <path fill="#293E58" d="M47.218 74.777c.395.05.31.543.384.824.06.641.12 1.286.246 1.92.497-.006.998-.009 1.489.1-.53.122-1.066.214-1.602.295-.273-1.027-.403-2.084-.517-3.139"/>
        <path fill="#A0936B" d="M33.979 76.713c-.081.311-.16.623-.234.94.462.097.722-.238.791-.648-.139-.072-.418-.218-.557-.292m-.194-.247l.765.203c.039.285.126.573.089.867-.218.436-.748.306-1.14.338a5.25 5.25 0 0 1 .286-1.408"/>
        <path fill="#363A31" d="M33.979 76.713c.139.074.418.22.557.292-.07.41-.329.745-.79.647.073-.316.152-.628.233-.94"/>
        <path fill="#AB955C" d="M38.605 77.01c.35-.058.493.568.135.65-.387.086-.503-.56-.135-.65"/>
        <path fill="#464B44" d="M31.91 78.465c.27-.087.532.052.772.166-.16.3-.809.206-.772-.166"/>
        <path fill="#3B4544" d="M33.556 78.879c.597.013 1.194.004 1.791.035-.468.41-1.373.473-1.791-.035"/>
        <path fill="#2C3F56" d="M46.183 79.389c.883-.157 1.776-.216 2.665-.316-.79.322-1.684.652-2.54.48l-.125-.164z"/>
        <path fill="#2F3D49" d="M36.52 79.341c.342-.05.688-.063 1.03-.028.003.45-.976.455-1.03.028"/>
        <path fill="#B0A789" d="M42.164 79.33c.477-.041.95.059 1.419.135-.42.135-1.266.486-1.419-.135"/>
    </g>
</svg>
