<svg xmlns="http://www.w3.org/2000/svg" xmlns:xlink="http://www.w3.org/1999/xlink" width="85" height="102" viewBox="0 0 85 102">
    <defs>
        <filter id="a" width="135.5%" height="129%" x="-17.8%" y="-14.5%" filterUnits="objectBoundingBox">
            <feOffset dx="2" dy="2" in="SourceAlpha" result="shadowOffsetOuter1"/>
            <feGaussianBlur in="shadowOffsetOuter1" result="shadowBlurOuter1" stdDeviation="2.5"/>
            <feColorMatrix in="shadowBlurOuter1" result="shadowMatrixOuter1" values="0 0 0 0 0 0 0 0 0 0 0 0 0 0 0 0 0 0 0.2 0"/>
            <feMerge>
                <feMergeNode in="shadowMatrixOuter1"/>
                <feMergeNode in="SourceGraphic"/>
            </feMerge>
        </filter>
        <path id="b" d="M.018.146h10.46v9.437H.018z"/>
        <path id="d" d="M.162.054h10.202v11.741H.162z"/>
    </defs>
    <g fill="none" fill-rule="evenodd" filter="url(#a)" transform="translate(3 3)">
        <path fill="#025EAC" d="M12.325 74.353L9.74 72.05l-.227.257.03.038c.098.13.144.243.144.334 0 .076-.023.136-.068.174-.015.038-.13.106-.341.205l-4.54 2.244 1.81-4.64c.07-.181.137-.302.206-.37a.222.222 0 0 1 .197-.1c.083 0 .174.031.288.1l.053.022.227-.25L5.04 67.85l-.227.257.038.053c.106.145.16.289.16.432 0 .16-.061.395-.175.72l-2.54 6.762-.242.545c-.083.084-.167.13-.25.13a.544.544 0 0 1-.288-.1l-.068-.03-.167.205-.045.053 2.281 2.047.205-.205.03-.038-.03-.053c-.099-.151-.152-.28-.152-.387a.24.24 0 0 1 .068-.174c.038-.045.19-.129.455-.242l4.912-2.464-1.88 5.033c-.114.334-.197.523-.243.561-.068.084-.144.122-.227.122a.58.58 0 0 1-.326-.122l-.053-.03-.22.265 2.327 2.077.228-.265-.038-.038c-.114-.137-.167-.25-.167-.349a.325.325 0 0 1 .076-.182c.068-.076.25-.19.553-.341l6.435-3.282c.341-.167.569-.258.682-.265l.046-.008c.114 0 .25.046.417.13l.045.014.228-.25-2.449-2.183-.227.25.038.053c.106.137.159.258.159.357l-.053.166c-.083.084-.235.175-.44.273l-4.343 2.266 1.766-4.676c.069-.182.122-.296.167-.35.068-.067.137-.105.22-.105.083 0 .19.03.326.098l.038.03.182-.211.053-.046M21.14 79.72l-3.032-1.486-.152.303.03.038c.13.114.19.228.19.334l-.038.151c-.075.129-.197.25-.363.379l-6.102 4.829c-.228.181-.394.287-.493.31l-.167.03-.242-.037-.06-.008-.16.303 2.85 1.387.16-.303-.054-.038c-.151-.129-.227-.242-.227-.356l.023-.121a1.12 1.12 0 0 1 .28-.296l1.114-.887 3.608 1.812v1.387c0 .212-.015.349-.045.402a.33.33 0 0 1-.288.182l-.22-.038-.038-.015-.16.303 3.146 1.554.152-.319-.053-.038a.689.689 0 0 1-.273-.356c-.053-.144-.083-.379-.083-.69l-.03-7.852-.046-.008h.045c0-.19.023-.333.069-.424.053-.099.159-.144.31-.152l.144.015.182-.227.023-.068zm-2.79 4.82l-2.485-1.22 2.584-2.092-.098 3.312zM31.85 83.29a2.919 2.919 0 0 0-.978-.66c-.386-.159-.917-.31-1.607-.462l-5.662-1.175-.068.28c.182.145.288.243.31.288l.024.145v.128l-1.585 7.573c-.037.128-.083.212-.136.25a.66.66 0 0 1-.318.068l-.106.273-.015.068 2.918.614.068-.28-.296-.28a.309.309 0 0 1-.038-.16l.008-.106.614-2.903 2.312.485 1.205 2.963c.129.296.19.493.19.584v.015c-.023.069-.107.099-.266.106h-.053l-.114.266-.015.068 3.373.697.076-.34-.068-.016a.772.772 0 0 1-.432-.288c-.114-.144-.28-.47-.493-.963L29.516 87.8h.181c1.547.007 2.464-.69 2.744-2.108a3.34 3.34 0 0 0 .069-.674c0-.205-.016-.41-.054-.614a2.24 2.24 0 0 0-.606-1.114m-1.75.947c.196.16.295.394.295.69l-.03.31c-.099.448-.319.713-.66.812l-.402.06h-.106l-.94-.159-2.94-.614.454-2.205 2.949.613c.424.084.735.16.925.228.166.068.318.152.454.265"/>
        <g transform="translate(33.295 82.659)">
            <mask id="c" fill="#fff">
                <use xlink:href="#b"/>
            </mask>
            <path fill="#025EAC" d="M5.786.161L.078.388l-.06.28c.204.1.325.175.363.213.053.053.084.144.084.265l.303 7.747c0 .114-.023.197-.068.243-.046.06-.144.113-.288.159l-.053.288 2.933-.038.053-.296c-.19-.083-.303-.152-.349-.197-.06-.06-.09-.151-.098-.265L2.784 5.83 5.15 5.74l1.895 2.584c.22.289.326.463.326.523v.008c0 .083-.091.144-.28.182l-.046.28 3.365-.053.069-.295c-.28-.076-.47-.16-.569-.243-.174-.144-.41-.41-.712-.81L7.393 5.55c1.561-.326 2.334-1.19 2.327-2.607V2.79a3.246 3.246 0 0 0-.296-1.243 2.111 2.111 0 0 0-.856-.94C8.257.403 7.878.275 7.446.214L6.362.146 5.786.16zm1.303 1.796c.319.16.486.463.5.91l.008.068c-.007.41-.151.705-.432.88-.144.083-.31.136-.485.174l-.955.076-3.001.128-.099-2.334 3.608-.06.356.022c.167.015.334.06.5.136z" mask="url(#c)"/>
        </g>
        <path fill="#025EAC" d="M43.97 82.964l1.675 7.557.008.129-.03.151c-.038.076-.13.144-.266.205l.008.296.03.068 2.918-.645-.068-.28-.379-.144c-.068-.038-.113-.121-.136-.243l-1.675-7.557-.008-.129.03-.143a.668.668 0 0 1 .258-.205l-.007-.288-.016-.068-2.918.636.053.28c.205.054.334.107.394.145a.344.344 0 0 1 .13.235M51.512 79.69c-1.978.863-3.092 2.152-3.343 3.873a3.794 3.794 0 0 0-.068.712c0 .644.137 1.281.402 1.902a4.74 4.74 0 0 0 1.03 1.532c.494.5 1.062.864 1.721 1.091a4.616 4.616 0 0 0 1.554.265c.766 0 1.592-.182 2.479-.553 1.955-.841 3.07-2.13 3.342-3.88l.061-.774c0-.614-.121-1.213-.371-1.804-.569-1.326-1.493-2.22-2.782-2.668a4.434 4.434 0 0 0-1.539-.265c-.788 0-1.614.19-2.486.568m2.948 1.403c.834.28 1.448.879 1.85 1.811.16.356.25.75.258 1.19v.038c0 .478-.091.91-.28 1.281-.312.69-.872 1.197-1.668 1.539-.47.197-.918.295-1.342.295-.326 0-.629-.053-.925-.151-.864-.296-1.478-.887-1.842-1.759-.189-.454-.288-.886-.288-1.303 0-.432.1-.85.288-1.259.319-.674.872-1.19 1.66-1.53.478-.19.94-.289 1.372-.289.304 0 .607.046.917.137M56.75 78.022c.083.022.159.076.235.174l4.714 6.124c.069.084.106.16.106.243v.008c-.007.09-.06.19-.151.303l-.03.038.204.273 2.373-1.82-.205-.28-.053.023-.273.06h-.045a.465.465 0 0 1-.235-.159l-1.804-2.334 1.872-1.456 3.054 1.016c.357.106.539.19.561.25l.03.053c0 .06-.052.144-.151.243l-.038.045.174.22.03.053 2.737-2.1-.212-.272-.068.022a.73.73 0 0 1-.455.152h-.053c-.16-.008-.508-.09-1.031-.25l-2.85-.887c.614-.66.917-1.319.917-1.978 0-.538-.205-1.077-.614-1.607a3.168 3.168 0 0 0-.978-.85 2.185 2.185 0 0 0-1.076-.272h-.16c-.37.023-.75.136-1.128.333-.357.175-.827.478-1.395.925l-4.578 3.525.197.265.053-.023a.721.721 0 0 1 .28-.068l.046.008zm5.616-2.835c.13-.084.288-.137.478-.167l.144-.015c.295 0 .568.152.803.462.175.235.265.463.265.675 0 .106-.022.22-.075.341-.068.16-.167.303-.288.425l-.728.621-2.388 1.827-1.364-1.781 2.373-1.835c.333-.25.59-.44.78-.553z"/>
        <g transform="translate(64.804 65.605)">
            <mask id="e" fill="#fff">
                <use xlink:href="#d"/>
            </mask>
            <path fill="#025EAC" d="M.177 6.133c.045.75.379 1.372 1.008 1.88.38.296.78.485 1.205.553l.387.03c.34 0 .66-.068.955-.212.296-.129.56-.288.803-.485l1.077-1.008.735-.735c.455-.463.803-.766 1.046-.91a.73.73 0 0 1 .379-.113c.114 0 .227.045.356.144a.971.971 0 0 1 .288.477l.038.319-.045.363c-.099.432-.326.887-.698 1.35-.34.409-.773.788-1.296 1.137-.508.348-.955.553-1.334.613l-.167.016a.601.601 0 0 1-.394-.13l-.068-.052-.334.113 1.175 2.312.273-.114.076-.333.394-.212c1.198-.553 2.183-1.304 2.956-2.259A7.183 7.183 0 0 0 10 7.24c.243-.569.364-1.084.364-1.554 0-.19-.015-.349-.053-.493a2.585 2.585 0 0 0-.963-1.6 2.53 2.53 0 0 0-1.083-.522l-.546-.068-.607.083c-.371.114-.72.28-1.045.508-.319.205-.713.538-1.183 1l-.743.758c-.477.493-.819.804-1.016.933-.174.114-.333.174-.485.174a.609.609 0 0 1-.363-.129.779.779 0 0 1-.266-.5l-.023-.19c0-.174.03-.348.1-.53.15-.372.37-.728.65-1.061.653-.811 1.441-1.35 2.373-1.63l.349-.06c.084 0 .152.015.205.053l.076.075.28-.075.06-.03L5.051.053 4.778.16c-.038.213-.076.341-.114.38-.007.022-.136.105-.387.25-.735.401-1.31.75-1.712 1.06a7.486 7.486 0 0 0-1.183 1.175C.572 4.034.162 4.99.162 5.898l.015.235" mask="url(#e)"/>
        </g>
        <path fill="#025EAC" d="M36.823 7.318c-4.965 0-9.718.955-14.25 2.872a36.398 36.398 0 0 0-11.635 7.846A36.316 36.316 0 0 0 3.093 29.67a36.218 36.218 0 0 0-2.88 14.25c0 4.965.962 9.718 2.88 14.25a36.15 36.15 0 0 0 7.845 11.635 36.398 36.398 0 0 0 11.635 7.845c4.532 1.918 9.285 2.873 14.25 2.873 4.964 0 9.717-.955 14.242-2.873A36.399 36.399 0 0 0 62.7 69.805a36.15 36.15 0 0 0 7.845-11.635c1.917-4.532 2.873-9.285 2.873-14.25 0-4.964-.956-9.717-2.873-14.25A36.315 36.315 0 0 0 62.7 18.036a36.399 36.399 0 0 0-11.635-7.846c-4.525-1.917-9.278-2.872-14.242-2.872M1.918 17.308c-.182.159-.364.333-.554.523-.22.227-.409.455-.568.675-.28.378-.493.773-.63 1.182a3.19 3.19 0 0 0-.158 1.16c.022.363.128.72.318 1.06.19.327.462.615.819.88.333.25.69.425 1.076.508.371.076.743.068 1.099-.023.371-.09.72-.258 1.054-.508.34-.257.651-.583.932-.97l.432-.63.379-.696c.098-.22.182-.47.258-.766.06-.258.098-.53.106-.819l-.137-.106a.89.89 0 0 1-.144.076c-.038.023-.09.015-.144-.023l-.955-.697-.106-.151c0-.054.03-.137.09-.25l-.15-.114-1.547 2.107-.167.151c-.053.023-.136 0-.234-.06l-.107.151 1.077.796.106-.159c-.099-.083-.152-.16-.16-.227-.007-.053.023-.13.084-.22l.788-1.077.728.524-.31.78c-.145.311-.327.622-.554.932-.16.205-.334.387-.538.546-.213.167-.44.28-.682.349l-.766.038a2.085 2.085 0 0 1-.819-.38c-.28-.204-.485-.424-.606-.666a1.724 1.724 0 0 1-.197-.743c-.008-.25.038-.5.129-.75a2.51 2.51 0 0 1 .363-.675l.425-.523c.16-.174.318-.318.485-.44a1.61 1.61 0 0 1 .47-.265l.341.008.083.083.175-.129-.75-1.311a.667.667 0 0 1-.13.06l-.007.13-.053.144-.205.174-.44.34"/>
        <g>
            <path fill="#025EAC" d="M11.18 11.615c-.318-.356-.674-.59-1.069-.712a2.988 2.988 0 0 0-1.182-.099 3.88 3.88 0 0 0-1.152.341c-.372.19-.698.41-.978.667-.28.25-.53.554-.75.918-.22.348-.372.72-.455 1.114a2.827 2.827 0 0 0-.008 1.182c.084.402.28.781.607 1.137.326.356.682.592 1.076.713.394.114.788.151 1.183.098.409-.053.788-.166 1.136-.356.357-.19.683-.41.97-.675.296-.265.546-.568.759-.91.22-.333.379-.696.47-1.098.083-.387.09-.78.007-1.19a2.485 2.485 0 0 0-.614-1.13m-.455 2.267a2.178 2.178 0 0 1-.295.743 2.478 2.478 0 0 1-.493.629 2.787 2.787 0 0 1-.675.44c-.25.12-.507.196-.773.22-.257.03-.515 0-.765-.084-.25-.076-.47-.22-.675-.44a1.493 1.493 0 0 1-.379-.712 1.805 1.805 0 0 1-.015-.781 2.43 2.43 0 0 1 .28-.75c.13-.22.304-.432.508-.63.205-.182.432-.325.675-.44.25-.113.5-.189.765-.211.266-.03.524-.008.774.075.242.084.47.235.682.448.19.227.318.462.371.712.06.25.068.515.015.78M11.756 8.356l2.502 4.025c.068.114.007.22-.167.326l.098.167 4.222-2.623c.099-.06.182-.098.235-.114.06-.03.121 0 .175.091l.159-.09-.758-1.22-.16.09c.046.083.054.16.023.227a.36.36 0 0 1-.174.197l-2.949 1.827-2.198-3.532c-.053-.099-.007-.205.152-.318l-.09-.152-1.54.94.106.167.364-.008M21.996 2.899a3.466 3.466 0 0 0-1.053.235l-3.222 1.28.076.175c.152-.06.25-.03.288.083l1.751 4.412c.053.114 0 .205-.151.257l.068.182 3.221-1.28c.357-.144.667-.334.933-.554a2.295 2.295 0 0 0 .833-1.796c0-.364-.083-.766-.257-1.213-.182-.447-.394-.796-.645-1.046a2.3 2.3 0 0 0-.841-.591 2.312 2.312 0 0 0-1-.144m.94 1.432c.174.205.318.463.439.789.136.34.212.629.227.879.008.265-.037.485-.136.66a1.287 1.287 0 0 1-.447.507c-.19.137-.447.265-.766.394l-1.508.6-1.357-3.442 1.5-.599c.32-.121.592-.197.827-.235l.675.053c.197.068.379.205.545.394M30.865.428c-.046.06-.144.106-.288.136l-4.677.91.045.182.137.022a.172.172 0 0 1 .076.13l.91 4.646c.007.06 0 .113-.03.151a.195.195 0 0 1-.122.076l.038.182 4.775-.932.258-.023c.068 0 .106.053.129.152l.189-.038-.273-1.403-.19.038a.233.233 0 0 1-.06.213.319.319 0 0 1-.235.113l-3.426.675-.273-1.41 2.009-.402.333.008c.084.038.137.129.175.28l.181-.03-.318-1.6-.174.03c.022.168.007.274-.06.312a.756.756 0 0 1-.304.128l-2.009.395-.257-1.274 3.327-.652.31-.007c.062.03.1.083.122.159l.182-.038L31.1.2l-.182.038c.015.084 0 .144-.053.19M38.755 3.854L35.761.746c-.144-.152-.212-.25-.212-.303 0-.068.03-.099.083-.099V.162h-1.788l.007.182c.129 0 .197.061.197.19V5.27c0 .13-.068.19-.204.19v.19h1.546v-.19c-.16 0-.235-.06-.235-.19V1.807l3.184 3.32c.113.114.166.19.166.243 0 .06-.045.09-.129.09v.19h1.69v-.19c-.128 0-.197-.06-.197-.189V.534c0-.129.069-.19.198-.19V.162h-1.585v.182c.182 0 .273.061.273.19v3.32M49.837 2.05a5.725 5.725 0 0 0-.91-.341 3.789 3.789 0 0 0-1.121-.152c-.342.008-.637.06-.872.16-.25.105-.455.242-.599.416-.152.16-.258.356-.318.576-.084.311-.091.576-.03.796.06.212.174.402.333.576.16.167.356.311.591.425.212.106.455.204.72.303l.743.258c.235.075.447.159.63.25.18.083.318.182.416.288.099.098.129.227.083.386a.47.47 0 0 1-.295.326l-.508.091-.568-.045-.448-.099-.515-.197-.516-.303-.416-.334a.84.84 0 0 1-.213-.31.49.49 0 0 1 .008-.182l-.083-.076-.895 1.061.114.129c.06-.046.114-.06.159-.053a.613.613 0 0 1 .235.151l.364.288.599.342c.235.106.545.22.94.333l.909.174c.341.054.66.046.963-.007.303-.046.583-.16.841-.334.243-.159.41-.417.508-.773.083-.295.098-.553.03-.78a1.368 1.368 0 0 0-.341-.584 2.24 2.24 0 0 0-.584-.417 7.506 7.506 0 0 0-.72-.319l-.735-.257a5.043 5.043 0 0 1-.637-.265 1.072 1.072 0 0 1-.401-.311.403.403 0 0 1-.076-.402.317.317 0 0 1 .205-.258.98.98 0 0 1 .363-.098l.455.023.47.075c.19.061.38.137.569.228.181.083.348.19.5.303.144.083.273.19.386.318.099.114.167.22.205.311a.554.554 0 0 1 .008.25l.09.068 1.047-1.06-.099-.107a.355.355 0 0 1-.22 0 .86.86 0 0 1-.303-.174l-.44-.303-.621-.364M58.28 5.46l-4.198-1.978-.137-.129c-.038-.053-.03-.12.008-.22l-.175-.083-.621 1.327.167.076c.038-.084.098-.13.166-.137l.182.03 1.562.743-1.774 3.76-.121.098-.144-.015-.068.167 1.447.697.084-.174c-.13-.068-.175-.16-.13-.273l1.782-3.752 1.561.735.137.13c.038.052.038.12 0 .211l.167.084.629-1.32-.175-.082c-.037.083-.09.136-.159.144l-.19-.038M56.598 10.38l-.258-.008-.098.16 1.22.826.106-.152c-.106-.076-.136-.144-.09-.212.022-.053.113-.114.257-.197l.72-.402 2.115 1.418-.106.864a.61.61 0 0 1-.084.273l-.098.045-.106-.038-.106.16 1.523 1.03.099-.16-.106-.196c-.023-.068-.03-.144-.023-.228l.606-4.972a.387.387 0 0 1 .069-.16c.037-.067.09-.098.143-.09l.16.038.098-.16-1.463-.985-.098.16.09.136a.167.167 0 0 1-.014.167l-.167.129-4.116 2.417-.273.137zm4.457-1.516l-.364 2.1-1.546-1.039 1.91-1.06zM65.413 9.902l-.992 1.077.143.121c.069-.068.13-.099.197-.083.061.015.114.045.167.083l1.266 1.175-2.812 3.055c-.045.045-.09.068-.144.06a.205.205 0 0 1-.129-.053l-.121.144 1.182 1.084.13-.136c-.115-.099-.13-.198-.046-.296l2.82-3.055 1.265 1.168a.444.444 0 0 1 .106.166c.015.054-.007.122-.075.205l.143.129.986-1.076-.137-.13c-.068.069-.136.1-.204.084a.273.273 0 0 1-.167-.083l-3.419-3.146-.09-.159c-.023-.068 0-.137.068-.212l-.137-.122M70.666 15.92l-3.752 2.896c-.053.03-.098.046-.144.038l-.121-.076-.144.114 2.964 3.858.144.212c.03.061 0 .122-.084.19l.121.151 1.137-.879-.128-.144c-.061.053-.13.06-.205.038a.405.405 0 0 1-.22-.16l-2.13-2.758 1.145-.88 1.25 1.623a.744.744 0 0 1 .144.295c.008.091-.053.182-.182.28l.122.145 1.28-.993-.105-.152c-.13.099-.228.137-.304.099l-.25-.228-1.25-1.622 1.03-.788 2.062 2.683c.099.114.144.212.152.28 0 .069-.03.122-.091.175l.114.152 1.098-.842-.12-.151c-.054.053-.122.06-.19.038-.076-.016-.16-.084-.25-.205l-2.903-3.767-.152.113c.03.054.046.099.038.137l-.076.129"/>
            <path fill="#FAC93F" d="M36.8 9.084c-4.563 0-8.93.887-13.106 2.653a33.055 33.055 0 0 0-10.702 7.216 33.297 33.297 0 0 0-7.216 10.702 33.253 33.253 0 0 0-2.653 13.106c0 4.57.887 8.936 2.653 13.105a33.409 33.409 0 0 0 7.216 10.71c3.1 3.108 6.67 5.51 10.702 7.216A33.3 33.3 0 0 0 36.8 76.438c4.646 0 9.08-.91 13.31-2.737a33.45 33.45 0 0 0 10.809-7.436c.174-.098.394-.333.66-.704a33.469 33.469 0 0 0 6.533-10.347 33.372 33.372 0 0 0 2.372-12.453c0-4.57-.88-8.937-2.645-13.106a33.297 33.297 0 0 0-7.216-10.702 33.332 33.332 0 0 0-10.71-7.216A33.315 33.315 0 0 0 36.8 9.084zm12.286 4.593a31.355 31.355 0 0 1 10.036 6.769 31.174 31.174 0 0 1 6.761 10.028 31.183 31.183 0 0 1 2.479 12.28c0 5.085-1.16 9.883-3.487 14.408-9.573-2.137-18.835-6.382-27.787-12.734a95.253 95.253 0 0 1-15.925-14.197l-.122-4.123-.985-.44-.917.789.038 1.462-.516-.636-.022-2.327h-1.35l-.03.803-.819.205-.075 4.457c-1.79 4.1-3.82 7.792-6.087 11.082-1.554 2.266-3.123 4.199-4.692 5.813a31.876 31.876 0 0 1-.333-4.563c0-4.282.826-8.375 2.478-12.28a31.18 31.18 0 0 1 6.762-10.027 31.243 31.243 0 0 1 10.028-6.769A31.182 31.182 0 0 1 36.8 11.2c4.282 0 8.375.826 12.286 2.478zM40.25 47.703l3.577 11.195-1.955.083-4.177-13.219 2.555 1.94zm-3.533-2.714l4.457 14.023-2.13.113-5.283-16.569a93.344 93.344 0 0 0 2.956 2.433zm7.14 5.29l2.699 8.528-2.031.06-3.29-10.444 2.607 1.811.099.068-.084-.022zm-37.883-.81l1.107-1.584-.766 3.009-.341-1.425zm3.767-5.617L7.754 55.093a31.25 31.25 0 0 1-.963-2.6l1.395-6.246 1.554-2.395zm15.402-9.224l7.928 24.869-1.94.151-8.701-27.795 2.713 2.775zm-3.812-3.934L30.448 59.7l-2.138.175-6.89-22.171-.25-7.178.16.167zm-2.146-2.32c.326 13.59.645 24.362.963 32.32l-.712.084c-.364-8.914-.622-19.905-.766-32.972l.515.568zm-2.872 3.38L11.12 61.082a28.85 28.85 0 0 1-1.297-1.948l3.942-22.201a84.886 84.886 0 0 0 2.547-5.177zm-3.555 7.02L9.346 58.299a25.677 25.677 0 0 1-1.137-2.213l2.41-13.659a102.235 102.235 0 0 0 2.138-3.653zM16 47.46l-2.494 14.053-1.834.258 4.593-25.9c-.068 3.858-.121 7.731-.167 11.612l-.098-.023zm5.526-6.973l6.094 19.45-1.79.166-4.016-12.772-.288-6.844zm7.632-2.001l6.61 20.829-2.009.136-7.45-23.679c.962.948 1.91 1.85 2.85 2.714zm-6.624 21.943c-.182-2.638-.38-6.087-.592-10.346L25.15 60.17l-2.615.258zm-8.33.993l1.85-10.46c-.039 3.676-.062 7.08-.062 10.225l-1.789.235zm1.834 5.079l-1.122-1.016 1.107-.046.015 1.062zm3.85 2.887c-.083-1.22-.166-2.577-.242-4.055l.705-.023c.083 1.767.166 3.283.257 4.533l-.72-.455zm3.002-4.138c15.235-.341 26.984-.084 35.246.758a31.346 31.346 0 0 1-9.695 6.086A31.264 31.264 0 0 1 36.8 74.315c-4.654 0-9.08-.978-13.288-2.933-.204-1.57-.417-3.616-.621-6.132zm31.971-8.664c1.964.917 3.752 1.645 5.375 2.168l-4.708-.06-.667-2.108zm4.685 8.042c-7.33-.583-17.813-.75-31.456-.5 9.952-.447 20.677-.538 32.176-.273l-.72.773zm-5.51-8.436l.795 2.501h-2.07l-1.182-3.76 2.456 1.26zm-3.965 2.54l-1.744-5.64c.751.455 1.554.917 2.41 1.38l1.32 4.229-1.986.03zm-.697.007l-2.13.053-2.524-7.966a85.297 85.297 0 0 0 2.743 1.743l1.91 6.17zm-12.916.53l-6.276-19.843 2.652 2.342 5.518 17.388-1.894.113z"/>
        </g>
    </g>
</svg>
