<svg xmlns="http://www.w3.org/2000/svg" width="15" height="14" viewBox="0 0 15 14">
    <path fill="#FFD500" fill-rule="evenodd" d="M.868 5.965C.317 5.927-.067 5.002.01 3.9.087 2.8.596 1.937 1.147 1.975c.55.039.935.963.858 2.065-.077 1.102-.586 1.964-1.137 1.925zM11.34 8.63c-.43-.347-.214-1.325.481-2.183.695-.859 1.607-1.273 2.036-.925.43.347.214 1.325-.481 2.183-.695.859-1.607 1.273-2.036.925zM4.817 4.938C4 4.794 3.534 3.575 3.774 2.215 4.014.855 4.869-.13 5.685.014c.816.144 1.283 1.363 1.043 2.722-.24 1.36-1.095 2.346-1.911 2.202zm3.866.255c-.745-.363-.858-1.664-.253-2.905.606-1.24 1.7-1.952 2.444-1.59.745.364.858 1.664.253 2.905-.606 1.241-1.7 1.953-2.444 1.59zm-3.95 8.058C2.36 12.615.723 11.037 1.36 8.666c.635-2.371 3.726-3.603 5.443-3.143 1.717.46 3.778 3.073 3.143 5.443-.636 2.371-2.843 2.92-5.214 2.285z"/>
</svg>
