<svg xmlns="http://www.w3.org/2000/svg" width="31" height="31" viewBox="0 0 31 31">
    <path fill="#FFD500" fill-rule="nonzero" d="M17.615 18.985l.612 8.807c.157 2.265-1.59 4.12-3.904 4.142a4.465 4.465 0 0 1-2.532-.77L2.783 25.09c-1.958-1.32-2.54-3.883-1.299-5.723A3.858 3.858 0 0 1 3.5 17.858l8.395-2.731c2.159-.703 4.595.474 5.44 2.627.156.398.25.813.28 1.23zm-2.095.02a2.08 2.08 0 0 0-.14-.615c-.422-1.077-1.64-1.665-2.72-1.314l-8.395 2.732a1.93 1.93 0 0 0-1.008.754c-.62.92-.33 2.2.65 2.861l9.007 6.076c.378.254.821.39 1.267.385 1.156-.011 2.03-.939 1.951-2.071l-.612-8.808zM26.6 8.817c.804 1.526.135 3.774-1.499 5.526-1.917 2.056-4.607 2.834-6.167 1.38-1.56-1.455-.971-4.193.945-6.249 1.557-1.67 3.625-2.497 5.183-1.968l1.257-1.626c.324-.419.93-.464 1.354-.1.423.363.504.996.18 1.415L26.6 8.817zm-6.373 5.519c.5.466 2.085.008 3.382-1.384 1.298-1.391 1.644-3.004 1.144-3.47-.5-.466-2.084-.008-3.382 1.383-1.297 1.392-1.644 3.005-1.144 3.47zm7.516 5.801c.074 1.312-.851 2.746-2.305 3.69-1.918 1.245-4.24 1.303-5.245-.243-1.003-1.545-.006-3.644 1.912-4.89 1.62-1.051 3.527-1.256 4.686-.365l1.374-.825c.45-.27 1.048-.097 1.338.386.29.482.162 1.092-.287 1.362l-1.473.885zm-5.96 2.415c.224.344 1.388.315 2.544-.436 1.156-.75 1.656-1.802 1.433-2.146-.224-.344-1.388-.316-2.544.435-1.156.751-1.656 1.803-1.432 2.147zM17.096 2.728c1.597.99 1.925 3.511 1.001 5.918-1.007 2.624-3.21 4.353-5.202 3.589-1.99-.764-2.47-3.524-1.464-6.148.75-1.954 2.164-3.412 3.66-3.713l.66-2.067c.16-.504.715-.754 1.237-.558.522.197.815.765.654 1.269l-.546 1.71zm-3.521 7.737c.638.245 1.936-.774 2.618-2.55.681-1.776.399-3.401-.24-3.646-.638-.245-1.935.773-2.617 2.55-.682 1.775-.4 3.4.239 3.646zM7.164 6.89c1.226.614 1.963 2.248 1.932 4.062-.04 2.286-1.291 4.244-3.134 4.212-1.843-.032-3.025-2.033-2.985-4.32.032-1.853.86-3.49 2.154-4.027l.2-2.06c.05-.523.542-.888 1.098-.815.556.074.966.558.915 1.082l-.18 1.866zm-1.169 6.378c.41.007 1.037-.974 1.061-2.352.024-1.378-.568-2.38-.978-2.388-.41-.007-1.037.974-1.061 2.352-.025 1.379.568 2.381.978 2.388z"/>
</svg>
